<?xml version="1.0" encoding="utf-8" standalone="no"?>
<!DOCTYPE svg PUBLIC "-//W3C//DTD SVG 1.1//EN"
  "http://www.w3.org/Graphics/SVG/1.1/DTD/svg11.dtd">
<svg height="288pt" version="1.1" viewBox="0 0 432 288" width="432pt" xmlns="http://www.w3.org/2000/svg" xmlns:xlink="http://www.w3.org/1999/xlink">
 <metadata>
  <rdf:RDF xmlns:cc="http://creativecommons.org/ns#" xmlns:dc="http://purl.org/dc/elements/1.1/" xmlns:rdf="http://www.w3.org/1999/02/22-rdf-syntax-ns#">
   <cc:Work>
    <dc:type rdf:resource="http://purl.org/dc/dcmitype/StillImage"/>
    <dc:date>2021-12-12T18:50:11.210432</dc:date>
    <dc:format>image/svg+xml</dc:format>
    <dc:creator>
     <cc:Agent>
      <dc:title>Matplotlib v3.4.3, https://matplotlib.org/</dc:title>
     </cc:Agent>
    </dc:creator>
   </cc:Work>
  </rdf:RDF>
 </metadata>
 <defs>
  <style type="text/css">*{stroke-linecap:butt;stroke-linejoin:round;}</style>
 </defs>
 <g id="figure_1">
  <g id="patch_1">
   <path d="M 0 288 
L 432 288 
L 432 0 
L 0 0 
z
" style="fill:none;"/>
  </g>
  <g id="axes_1">
   <g id="patch_2">
    <path d="M 46.388 246.616 
L 356.175297 246.616 
L 356.175297 10.8 
L 46.388 10.8 
z
" style="fill:#ffffff;"/>
   </g>
   <g id="matplotlib.axis_1">
    <g id="xtick_1">
     <g id="line2d_1">
      <defs>
       <path d="M 0 0 
L 0 3.5 
" id="me9c533831f" style="stroke:#000000;stroke-width:0.8;"/>
      </defs>
      <g>
       <use style="stroke:#000000;stroke-width:0.8;" x="59.604182" xlink:href="#me9c533831f" y="246.616"/>
      </g>
     </g>
     <g id="text_1">
      <!-- 0 -->
      <g transform="translate(56.422932 261.214438)scale(0.1 -0.1)">
       <defs>
        <path d="M 2034 4250 
Q 1547 4250 1301 3770 
Q 1056 3291 1056 2328 
Q 1056 1369 1301 889 
Q 1547 409 2034 409 
Q 2525 409 2770 889 
Q 3016 1369 3016 2328 
Q 3016 3291 2770 3770 
Q 2525 4250 2034 4250 
z
M 2034 4750 
Q 2819 4750 3233 4129 
Q 3647 3509 3647 2328 
Q 3647 1150 3233 529 
Q 2819 -91 2034 -91 
Q 1250 -91 836 529 
Q 422 1150 422 2328 
Q 422 3509 836 4129 
Q 1250 4750 2034 4750 
z
" id="DejaVuSans-30" transform="scale(0.015625)"/>
       </defs>
       <use xlink:href="#DejaVuSans-30"/>
      </g>
     </g>
    </g>
    <g id="xtick_2">
     <g id="line2d_2">
      <g>
       <use style="stroke:#000000;stroke-width:0.8;" x="125.68509" xlink:href="#me9c533831f" y="246.616"/>
      </g>
     </g>
     <g id="text_2">
      <!-- 1 -->
      <g transform="translate(122.50384 261.214438)scale(0.1 -0.1)">
       <defs>
        <path d="M 794 531 
L 1825 531 
L 1825 4091 
L 703 3866 
L 703 4441 
L 1819 4666 
L 2450 4666 
L 2450 531 
L 3481 531 
L 3481 0 
L 794 0 
L 794 531 
z
" id="DejaVuSans-31" transform="scale(0.015625)"/>
       </defs>
       <use xlink:href="#DejaVuSans-31"/>
      </g>
     </g>
    </g>
    <g id="xtick_3">
     <g id="line2d_3">
      <g>
       <use style="stroke:#000000;stroke-width:0.8;" x="191.765998" xlink:href="#me9c533831f" y="246.616"/>
      </g>
     </g>
     <g id="text_3">
      <!-- 2 -->
      <g transform="translate(188.584748 261.214438)scale(0.1 -0.1)">
       <defs>
        <path d="M 1228 531 
L 3431 531 
L 3431 0 
L 469 0 
L 469 531 
Q 828 903 1448 1529 
Q 2069 2156 2228 2338 
Q 2531 2678 2651 2914 
Q 2772 3150 2772 3378 
Q 2772 3750 2511 3984 
Q 2250 4219 1831 4219 
Q 1534 4219 1204 4116 
Q 875 4013 500 3803 
L 500 4441 
Q 881 4594 1212 4672 
Q 1544 4750 1819 4750 
Q 2544 4750 2975 4387 
Q 3406 4025 3406 3419 
Q 3406 3131 3298 2873 
Q 3191 2616 2906 2266 
Q 2828 2175 2409 1742 
Q 1991 1309 1228 531 
z
" id="DejaVuSans-32" transform="scale(0.015625)"/>
       </defs>
       <use xlink:href="#DejaVuSans-32"/>
      </g>
     </g>
    </g>
    <g id="xtick_4">
     <g id="line2d_4">
      <g>
       <use style="stroke:#000000;stroke-width:0.8;" x="257.846906" xlink:href="#me9c533831f" y="246.616"/>
      </g>
     </g>
     <g id="text_4">
      <!-- 3 -->
      <g transform="translate(254.665656 261.214438)scale(0.1 -0.1)">
       <defs>
        <path d="M 2597 2516 
Q 3050 2419 3304 2112 
Q 3559 1806 3559 1356 
Q 3559 666 3084 287 
Q 2609 -91 1734 -91 
Q 1441 -91 1130 -33 
Q 819 25 488 141 
L 488 750 
Q 750 597 1062 519 
Q 1375 441 1716 441 
Q 2309 441 2620 675 
Q 2931 909 2931 1356 
Q 2931 1769 2642 2001 
Q 2353 2234 1838 2234 
L 1294 2234 
L 1294 2753 
L 1863 2753 
Q 2328 2753 2575 2939 
Q 2822 3125 2822 3475 
Q 2822 3834 2567 4026 
Q 2313 4219 1838 4219 
Q 1578 4219 1281 4162 
Q 984 4106 628 3988 
L 628 4550 
Q 988 4650 1302 4700 
Q 1616 4750 1894 4750 
Q 2613 4750 3031 4423 
Q 3450 4097 3450 3541 
Q 3450 3153 3228 2886 
Q 3006 2619 2597 2516 
z
" id="DejaVuSans-33" transform="scale(0.015625)"/>
       </defs>
       <use xlink:href="#DejaVuSans-33"/>
      </g>
     </g>
    </g>
    <g id="xtick_5">
     <g id="line2d_5">
      <g>
       <use style="stroke:#000000;stroke-width:0.8;" x="323.927814" xlink:href="#me9c533831f" y="246.616"/>
      </g>
     </g>
     <g id="text_5">
      <!-- 4 -->
      <g transform="translate(320.746564 261.214438)scale(0.1 -0.1)">
       <defs>
        <path d="M 2419 4116 
L 825 1625 
L 2419 1625 
L 2419 4116 
z
M 2253 4666 
L 3047 4666 
L 3047 1625 
L 3713 1625 
L 3713 1100 
L 3047 1100 
L 3047 0 
L 2419 0 
L 2419 1100 
L 313 1100 
L 313 1709 
L 2253 4666 
z
" id="DejaVuSans-34" transform="scale(0.015625)"/>
       </defs>
       <use xlink:href="#DejaVuSans-34"/>
      </g>
     </g>
    </g>
    <g id="text_6">
     <!-- X -->
     <g transform="translate(197.856649 274.892562)scale(0.1 -0.1)">
      <defs>
       <path d="M 403 4666 
L 1081 4666 
L 2241 2931 
L 3406 4666 
L 4084 4666 
L 2584 2425 
L 4184 0 
L 3506 0 
L 2194 1984 
L 872 0 
L 191 0 
L 1856 2491 
L 403 4666 
z
" id="DejaVuSans-58" transform="scale(0.015625)"/>
      </defs>
      <use xlink:href="#DejaVuSans-58"/>
     </g>
    </g>
   </g>
   <g id="matplotlib.axis_2">
    <g id="ytick_1">
     <g id="line2d_6">
      <defs>
       <path d="M 0 0 
L -3.5 0 
" id="mdc2bfc2f0e" style="stroke:#000000;stroke-width:0.8;"/>
      </defs>
      <g>
       <use style="stroke:#000000;stroke-width:0.8;" x="46.388" xlink:href="#mdc2bfc2f0e" y="211.61679"/>
      </g>
     </g>
     <g id="text_7">
      <!-- −1 -->
      <g transform="translate(24.645812 215.416009)scale(0.1 -0.1)">
       <defs>
        <path d="M 678 2272 
L 4684 2272 
L 4684 1741 
L 678 1741 
L 678 2272 
z
" id="DejaVuSans-2212" transform="scale(0.015625)"/>
       </defs>
       <use xlink:href="#DejaVuSans-2212"/>
       <use x="83.789062" xlink:href="#DejaVuSans-31"/>
      </g>
     </g>
    </g>
    <g id="ytick_2">
     <g id="line2d_7">
      <g>
       <use style="stroke:#000000;stroke-width:0.8;" x="46.388" xlink:href="#mdc2bfc2f0e" y="164.272475"/>
      </g>
     </g>
     <g id="text_8">
      <!-- 0 -->
      <g transform="translate(33.0255 168.071693)scale(0.1 -0.1)">
       <use xlink:href="#DejaVuSans-30"/>
      </g>
     </g>
    </g>
    <g id="ytick_3">
     <g id="line2d_8">
      <g>
       <use style="stroke:#000000;stroke-width:0.8;" x="46.388" xlink:href="#mdc2bfc2f0e" y="116.928159"/>
      </g>
     </g>
     <g id="text_9">
      <!-- 1 -->
      <g transform="translate(33.0255 120.727378)scale(0.1 -0.1)">
       <use xlink:href="#DejaVuSans-31"/>
      </g>
     </g>
    </g>
    <g id="ytick_4">
     <g id="line2d_9">
      <g>
       <use style="stroke:#000000;stroke-width:0.8;" x="46.388" xlink:href="#mdc2bfc2f0e" y="69.583844"/>
      </g>
     </g>
     <g id="text_10">
      <!-- 2 -->
      <g transform="translate(33.0255 73.383063)scale(0.1 -0.1)">
       <use xlink:href="#DejaVuSans-32"/>
      </g>
     </g>
    </g>
    <g id="ytick_5">
     <g id="line2d_10">
      <g>
       <use style="stroke:#000000;stroke-width:0.8;" x="46.388" xlink:href="#mdc2bfc2f0e" y="22.239529"/>
      </g>
     </g>
     <g id="text_11">
      <!-- 3 -->
      <g transform="translate(33.0255 26.038747)scale(0.1 -0.1)">
       <use xlink:href="#DejaVuSans-33"/>
      </g>
     </g>
    </g>
    <g id="text_12">
     <!-- Y -->
     <g transform="translate(18.566125 131.761906)rotate(-90)scale(0.1 -0.1)">
      <defs>
       <path d="M -13 4666 
L 666 4666 
L 1959 2747 
L 3244 4666 
L 3922 4666 
L 2272 2222 
L 2272 0 
L 1638 0 
L 1638 2222 
L -13 4666 
z
" id="DejaVuSans-59" transform="scale(0.015625)"/>
      </defs>
      <use xlink:href="#DejaVuSans-59"/>
     </g>
    </g>
   </g>
   <g id="line2d_11">
    <defs>
     <path d="M 0 1.5 
C 0.397805 1.5 0.77937 1.341951 1.06066 1.06066 
C 1.341951 0.77937 1.5 0.397805 1.5 0 
C 1.5 -0.397805 1.341951 -0.77937 1.06066 -1.06066 
C 0.77937 -1.341951 0.397805 -1.5 0 -1.5 
C -0.397805 -1.5 -0.77937 -1.341951 -1.06066 -1.06066 
C -1.341951 -0.77937 -1.5 -0.397805 -1.5 0 
C -1.5 0.397805 -1.341951 0.77937 -1.06066 1.06066 
C -0.77937 1.341951 -0.397805 1.5 0 1.5 
z
" id="m635c031143"/>
    </defs>
    <g clip-path="url(#p972c38df48)">
     <use style="fill:#1f77b4;fill-opacity:0.5;" x="265.169308" xlink:href="#m635c031143" y="141.032484"/>
     <use style="fill:#1f77b4;fill-opacity:0.5;" x="122.39194" xlink:href="#m635c031143" y="27.317575"/>
     <use style="fill:#1f77b4;fill-opacity:0.5;" x="277.480477" xlink:href="#m635c031143" y="193.672334"/>
     <use style="fill:#1f77b4;fill-opacity:0.5;" x="314.874518" xlink:href="#m635c031143" y="185.755071"/>
     <use style="fill:#1f77b4;fill-opacity:0.5;" x="316.685641" xlink:href="#m635c031143" y="153.977375"/>
     <use style="fill:#1f77b4;fill-opacity:0.5;" x="179.461534" xlink:href="#m635c031143" y="139.921927"/>
     <use style="fill:#1f77b4;fill-opacity:0.5;" x="220.588498" xlink:href="#m635c031143" y="98.121041"/>
     <use style="fill:#1f77b4;fill-opacity:0.5;" x="264.594167" xlink:href="#m635c031143" y="235.897091"/>
     <use style="fill:#1f77b4;fill-opacity:0.5;" x="229.197751" xlink:href="#m635c031143" y="153.100825"/>
     <use style="fill:#1f77b4;fill-opacity:0.5;" x="250.450663" xlink:href="#m635c031143" y="112.133611"/>
     <use style="fill:#1f77b4;fill-opacity:0.5;" x="68.865163" xlink:href="#m635c031143" y="131.9489"/>
     <use style="fill:#1f77b4;fill-opacity:0.5;" x="138.49143" xlink:href="#m635c031143" y="110.378876"/>
     <use style="fill:#1f77b4;fill-opacity:0.5;" x="75.070416" xlink:href="#m635c031143" y="132.178883"/>
     <use style="fill:#1f77b4;fill-opacity:0.5;" x="286.145643" xlink:href="#m635c031143" y="181.795367"/>
     <use style="fill:#1f77b4;fill-opacity:0.5;" x="158.158313" xlink:href="#m635c031143" y="76.703834"/>
     <use style="fill:#1f77b4;fill-opacity:0.5;" x="239.304062" xlink:href="#m635c031143" y="120.793896"/>
     <use style="fill:#1f77b4;fill-opacity:0.5;" x="127.345029" xlink:href="#m635c031143" y="210.682891"/>
     <use style="fill:#1f77b4;fill-opacity:0.5;" x="151.478111" xlink:href="#m635c031143" y="164.385581"/>
     <use style="fill:#1f77b4;fill-opacity:0.5;" x="62.092199" xlink:href="#m635c031143" y="127.932203"/>
     <use style="fill:#1f77b4;fill-opacity:0.5;" x="154.320269" xlink:href="#m635c031143" y="130.61186"/>
     <use style="fill:#1f77b4;fill-opacity:0.5;" x="310.472203" xlink:href="#m635c031143" y="142.81799"/>
     <use style="fill:#1f77b4;fill-opacity:0.5;" x="117.200039" xlink:href="#m635c031143" y="132.678466"/>
     <use style="fill:#1f77b4;fill-opacity:0.5;" x="144.026868" xlink:href="#m635c031143" y="182.474361"/>
     <use style="fill:#1f77b4;fill-opacity:0.5;" x="302.193112" xlink:href="#m635c031143" y="189.380463"/>
     <use style="fill:#1f77b4;fill-opacity:0.5;" x="68.037075" xlink:href="#m635c031143" y="52.998846"/>
     <use style="fill:#1f77b4;fill-opacity:0.5;" x="76.807563" xlink:href="#m635c031143" y="21.518909"/>
     <use style="fill:#1f77b4;fill-opacity:0.5;" x="226.08287" xlink:href="#m635c031143" y="119.651991"/>
     <use style="fill:#1f77b4;fill-opacity:0.5;" x="290.573725" xlink:href="#m635c031143" y="137.539304"/>
     <use style="fill:#1f77b4;fill-opacity:0.5;" x="61.907956" xlink:href="#m635c031143" y="99.906349"/>
     <use style="fill:#1f77b4;fill-opacity:0.5;" x="256.942189" xlink:href="#m635c031143" y="141.166796"/>
     <use style="fill:#1f77b4;fill-opacity:0.5;" x="274.457312" xlink:href="#m635c031143" y="189.041326"/>
     <use style="fill:#1f77b4;fill-opacity:0.5;" x="79.618092" xlink:href="#m635c031143" y="139.718359"/>
     <use style="fill:#1f77b4;fill-opacity:0.5;" x="233.12084" xlink:href="#m635c031143" y="208.026171"/>
     <use style="fill:#1f77b4;fill-opacity:0.5;" x="194.214216" xlink:href="#m635c031143" y="152.789264"/>
     <use style="fill:#1f77b4;fill-opacity:0.5;" x="186.448703" xlink:href="#m635c031143" y="142.802725"/>
     <use style="fill:#1f77b4;fill-opacity:0.5;" x="312.185011" xlink:href="#m635c031143" y="120.604722"/>
     <use style="fill:#1f77b4;fill-opacity:0.5;" x="59.607362" xlink:href="#m635c031143" y="126.744989"/>
     <use style="fill:#1f77b4;fill-opacity:0.5;" x="124.886489" xlink:href="#m635c031143" y="134.725833"/>
     <use style="fill:#1f77b4;fill-opacity:0.5;" x="247.86411" xlink:href="#m635c031143" y="86.633291"/>
     <use style="fill:#1f77b4;fill-opacity:0.5;" x="145.398888" xlink:href="#m635c031143" y="67.041774"/>
     <use style="fill:#1f77b4;fill-opacity:0.5;" x="132.820865" xlink:href="#m635c031143" y="208.22387"/>
     <use style="fill:#1f77b4;fill-opacity:0.5;" x="243.42685" xlink:href="#m635c031143" y="153.603908"/>
     <use style="fill:#1f77b4;fill-opacity:0.5;" x="302.399116" xlink:href="#m635c031143" y="184.968836"/>
     <use style="fill:#1f77b4;fill-opacity:0.5;" x="124.224887" xlink:href="#m635c031143" y="90.987342"/>
     <use style="fill:#1f77b4;fill-opacity:0.5;" x="180.687089" xlink:href="#m635c031143" y="204.711288"/>
     <use style="fill:#1f77b4;fill-opacity:0.5;" x="126.476126" xlink:href="#m635c031143" y="142.226217"/>
     <use style="fill:#1f77b4;fill-opacity:0.5;" x="159.870935" xlink:href="#m635c031143" y="198.407711"/>
     <use style="fill:#1f77b4;fill-opacity:0.5;" x="219.398081" xlink:href="#m635c031143" y="90.308264"/>
     <use style="fill:#1f77b4;fill-opacity:0.5;" x="263.762141" xlink:href="#m635c031143" y="179.179215"/>
     <use style="fill:#1f77b4;fill-opacity:0.5;" x="77.556381" xlink:href="#m635c031143" y="137.281342"/>
    </g>
   </g>
   <g id="line2d_12">
    <path clip-path="url(#p972c38df48)" d="M 59.604182 116.928159 
L 125.28781 116.928159 
L 125.817516 164.272475 
L 191.501144 164.272475 
L 192.030851 116.928159 
L 257.714479 116.928159 
L 258.244186 164.272475 
L 323.927814 164.272475 
L 323.927814 164.272475 
" style="fill:none;stroke:#1f77b4;stroke-linecap:square;stroke-width:1.5;"/>
   </g>
   <g id="line2d_13">
    <path clip-path="url(#p972c38df48)" d="M 59.604182 126.744989 
L 60.663595 126.744989 
L 61.193302 99.906349 
L 61.723008 99.906349 
L 62.252715 127.932203 
L 64.901248 127.932203 
L 65.430955 52.998846 
L 68.079488 52.998846 
L 68.609195 131.9489 
L 71.787435 131.9489 
L 72.317142 132.178883 
L 75.495382 132.178883 
L 76.025089 21.518909 
L 77.084502 21.518909 
L 77.614209 137.281342 
L 78.143915 137.281342 
L 78.673622 139.718359 
L 98.272769 139.718359 
L 98.802476 132.678466 
L 119.461036 132.678466 
L 119.990743 27.317575 
L 123.168983 27.317575 
L 123.69869 90.987342 
L 124.228396 90.987342 
L 124.758103 134.725833 
L 125.28781 134.725833 
L 125.817516 142.226217 
L 126.87693 142.226217 
L 127.406636 210.682891 
L 130.05517 210.682891 
L 130.584876 208.22387 
L 135.352237 208.22387 
L 135.881943 110.378876 
L 141.17901 110.378876 
L 141.708717 182.474361 
L 144.35725 182.474361 
L 144.886957 67.041774 
L 148.065197 67.041774 
L 148.594904 164.385581 
L 152.832557 164.385581 
L 153.362264 130.61186 
L 156.010797 130.61186 
L 156.540504 76.703834 
L 158.65933 76.703834 
L 159.189037 198.407711 
L 169.253464 198.407711 
L 169.783171 139.921927 
L 179.847598 139.921927 
L 180.377304 204.711288 
L 183.555544 204.711288 
L 184.085251 142.802725 
L 189.912024 142.802725 
L 190.441731 152.789264 
L 206.332931 152.789264 
L 206.862638 90.308264 
L 219.575598 90.308264 
L 220.105305 98.121041 
L 223.283545 98.121041 
L 223.813252 119.651991 
L 227.521199 119.651991 
L 228.050905 153.100825 
L 230.699439 153.100825 
L 231.229145 208.026171 
L 235.996505 208.026171 
L 236.526212 120.793896 
L 241.293572 120.793896 
L 241.823279 153.603908 
L 245.531226 153.603908 
L 246.060932 86.633291 
L 248.709466 86.633291 
L 249.239172 112.133611 
L 253.476826 112.133611 
L 254.006532 141.166796 
L 259.833306 141.166796 
L 260.363013 179.179215 
L 264.070959 179.179215 
L 264.600666 235.897091 
L 265.130373 141.032484 
L 269.368026 141.032484 
L 269.897733 189.041326 
L 275.724506 189.041326 
L 276.254213 193.672334 
L 281.55128 193.672334 
L 282.080986 181.795367 
L 287.90776 181.795367 
L 288.437467 137.539304 
L 296.383067 137.539304 
L 296.912773 189.380463 
L 302.20984 189.380463 
L 302.739547 184.968836 
L 305.917787 184.968836 
L 306.447494 142.81799 
L 311.214854 142.81799 
L 311.74456 120.604722 
L 313.33368 120.604722 
L 313.863387 185.755071 
L 315.452507 185.755071 
L 315.982214 153.977375 
L 323.927814 153.977375 
L 323.927814 153.977375 
" style="fill:none;stroke:#cc3399;stroke-dasharray:1.5,2.475;stroke-dashoffset:0;stroke-width:1.5;"/>
   </g>
   <g id="line2d_14">
    <path clip-path="url(#p972c38df48)" d="M 59.604182 121.171063 
L 60.663595 121.171063 
L 61.193302 103.278636 
L 61.723008 103.278636 
L 62.252715 123.17975 
L 64.901248 123.17975 
L 65.430955 63.719949 
L 68.079488 63.719949 
L 68.609195 128.619227 
L 71.787435 128.619227 
L 72.317142 128.772549 
L 75.495382 128.772549 
L 76.025089 32.328175 
L 77.084502 32.328175 
L 77.614209 134.91092 
L 78.143915 134.91092 
L 78.673622 136.535598 
L 98.272769 136.535598 
L 98.802476 131.357221 
L 119.461036 131.357221 
L 119.990743 41.9595 
L 123.168983 41.9595 
L 123.69869 84.406011 
L 124.228396 84.406011 
L 124.758103 141.86917 
L 125.28781 141.86917 
L 125.817516 146.869426 
L 126.87693 146.869426 
L 127.406636 201.970857 
L 130.05517 201.970857 
L 130.584876 200.33151 
L 135.352237 200.33151 
L 135.881943 117.344323 
L 141.17901 117.344323 
L 141.708717 165.40798 
L 144.35725 165.40798 
L 144.886957 81.837519 
L 148.065197 81.837519 
L 148.594904 155.732612 
L 152.832557 155.732612 
L 153.362264 133.216798 
L 156.010797 133.216798 
L 156.540504 84.186712 
L 158.65933 84.186712 
L 159.189037 188.745052 
L 169.253464 188.745052 
L 169.783171 149.754529 
L 179.847598 149.754529 
L 180.377304 195.909642 
L 183.555544 195.909642 
L 184.085251 142.107783 
L 189.912024 142.107783 
L 190.441731 148.765475 
L 206.332931 148.765475 
L 206.862638 98.887844 
L 219.575598 98.887844 
L 220.105305 104.096362 
L 223.283545 104.096362 
L 223.813252 120.570107 
L 227.521199 120.570107 
L 228.050905 156.254793 
L 230.699439 156.254793 
L 231.229145 192.87169 
L 235.996505 192.87169 
L 236.526212 128.934894 
L 241.293572 128.934894 
L 241.823279 150.808236 
L 245.531226 150.808236 
L 246.060932 95.651573 
L 248.709466 95.651573 
L 249.239172 112.651786 
L 253.476826 112.651786 
L 254.006532 135.489189 
L 259.833306 135.489189 
L 260.363013 185.348473 
L 264.070959 185.348473 
L 264.600666 223.16039 
L 265.130373 144.160794 
L 269.368026 144.160794 
L 269.897733 186.095925 
L 275.724506 186.095925 
L 276.254213 189.183263 
L 281.55128 189.183263 
L 282.080986 180.468497 
L 287.90776 180.468497 
L 288.437467 145.397149 
L 296.383067 145.397149 
L 296.912773 184.0942 
L 302.20984 184.0942 
L 302.739547 181.153116 
L 305.917787 181.153116 
L 306.447494 143.876296 
L 311.214854 143.876296 
L 311.74456 129.067451 
L 313.33368 129.067451 
L 313.863387 177.588331 
L 315.452507 177.588331 
L 315.982214 156.403201 
L 323.927814 156.403201 
L 323.927814 156.403201 
" style="fill:none;stroke:#5ab4ac;stroke-dasharray:1.5,2.475;stroke-dashoffset:0;stroke-width:1.5;"/>
   </g>
   <g id="patch_3">
    <path d="M 46.388 246.616 
L 46.388 10.8 
" style="fill:none;stroke:#000000;stroke-linecap:square;stroke-linejoin:miter;stroke-width:0.8;"/>
   </g>
   <g id="patch_4">
    <path d="M 46.388 246.616 
L 356.175297 246.616 
" style="fill:none;stroke:#000000;stroke-linecap:square;stroke-linejoin:miter;stroke-width:0.8;"/>
   </g>
   <g id="text_13">
    <!-- Groundtruth -->
    <g style="fill:#1f77b4;" transform="translate(329.214287 164.272475)scale(0.15 -0.15)">
     <defs>
      <path d="M 3809 666 
L 3809 1919 
L 2778 1919 
L 2778 2438 
L 4434 2438 
L 4434 434 
Q 4069 175 3628 42 
Q 3188 -91 2688 -91 
Q 1594 -91 976 548 
Q 359 1188 359 2328 
Q 359 3472 976 4111 
Q 1594 4750 2688 4750 
Q 3144 4750 3555 4637 
Q 3966 4525 4313 4306 
L 4313 3634 
Q 3963 3931 3569 4081 
Q 3175 4231 2741 4231 
Q 1884 4231 1454 3753 
Q 1025 3275 1025 2328 
Q 1025 1384 1454 906 
Q 1884 428 2741 428 
Q 3075 428 3337 486 
Q 3600 544 3809 666 
z
" id="DejaVuSans-47" transform="scale(0.015625)"/>
      <path d="M 2631 2963 
Q 2534 3019 2420 3045 
Q 2306 3072 2169 3072 
Q 1681 3072 1420 2755 
Q 1159 2438 1159 1844 
L 1159 0 
L 581 0 
L 581 3500 
L 1159 3500 
L 1159 2956 
Q 1341 3275 1631 3429 
Q 1922 3584 2338 3584 
Q 2397 3584 2469 3576 
Q 2541 3569 2628 3553 
L 2631 2963 
z
" id="DejaVuSans-72" transform="scale(0.015625)"/>
      <path d="M 1959 3097 
Q 1497 3097 1228 2736 
Q 959 2375 959 1747 
Q 959 1119 1226 758 
Q 1494 397 1959 397 
Q 2419 397 2687 759 
Q 2956 1122 2956 1747 
Q 2956 2369 2687 2733 
Q 2419 3097 1959 3097 
z
M 1959 3584 
Q 2709 3584 3137 3096 
Q 3566 2609 3566 1747 
Q 3566 888 3137 398 
Q 2709 -91 1959 -91 
Q 1206 -91 779 398 
Q 353 888 353 1747 
Q 353 2609 779 3096 
Q 1206 3584 1959 3584 
z
" id="DejaVuSans-6f" transform="scale(0.015625)"/>
      <path d="M 544 1381 
L 544 3500 
L 1119 3500 
L 1119 1403 
Q 1119 906 1312 657 
Q 1506 409 1894 409 
Q 2359 409 2629 706 
Q 2900 1003 2900 1516 
L 2900 3500 
L 3475 3500 
L 3475 0 
L 2900 0 
L 2900 538 
Q 2691 219 2414 64 
Q 2138 -91 1772 -91 
Q 1169 -91 856 284 
Q 544 659 544 1381 
z
M 1991 3584 
L 1991 3584 
z
" id="DejaVuSans-75" transform="scale(0.015625)"/>
      <path d="M 3513 2113 
L 3513 0 
L 2938 0 
L 2938 2094 
Q 2938 2591 2744 2837 
Q 2550 3084 2163 3084 
Q 1697 3084 1428 2787 
Q 1159 2491 1159 1978 
L 1159 0 
L 581 0 
L 581 3500 
L 1159 3500 
L 1159 2956 
Q 1366 3272 1645 3428 
Q 1925 3584 2291 3584 
Q 2894 3584 3203 3211 
Q 3513 2838 3513 2113 
z
" id="DejaVuSans-6e" transform="scale(0.015625)"/>
      <path d="M 2906 2969 
L 2906 4863 
L 3481 4863 
L 3481 0 
L 2906 0 
L 2906 525 
Q 2725 213 2448 61 
Q 2172 -91 1784 -91 
Q 1150 -91 751 415 
Q 353 922 353 1747 
Q 353 2572 751 3078 
Q 1150 3584 1784 3584 
Q 2172 3584 2448 3432 
Q 2725 3281 2906 2969 
z
M 947 1747 
Q 947 1113 1208 752 
Q 1469 391 1925 391 
Q 2381 391 2643 752 
Q 2906 1113 2906 1747 
Q 2906 2381 2643 2742 
Q 2381 3103 1925 3103 
Q 1469 3103 1208 2742 
Q 947 2381 947 1747 
z
" id="DejaVuSans-64" transform="scale(0.015625)"/>
      <path d="M 1172 4494 
L 1172 3500 
L 2356 3500 
L 2356 3053 
L 1172 3053 
L 1172 1153 
Q 1172 725 1289 603 
Q 1406 481 1766 481 
L 2356 481 
L 2356 0 
L 1766 0 
Q 1100 0 847 248 
Q 594 497 594 1153 
L 594 3053 
L 172 3053 
L 172 3500 
L 594 3500 
L 594 4494 
L 1172 4494 
z
" id="DejaVuSans-74" transform="scale(0.015625)"/>
      <path d="M 3513 2113 
L 3513 0 
L 2938 0 
L 2938 2094 
Q 2938 2591 2744 2837 
Q 2550 3084 2163 3084 
Q 1697 3084 1428 2787 
Q 1159 2491 1159 1978 
L 1159 0 
L 581 0 
L 581 4863 
L 1159 4863 
L 1159 2956 
Q 1366 3272 1645 3428 
Q 1925 3584 2291 3584 
Q 2894 3584 3203 3211 
Q 3513 2838 3513 2113 
z
" id="DejaVuSans-68" transform="scale(0.015625)"/>
     </defs>
     <use xlink:href="#DejaVuSans-47"/>
     <use x="77.490234" xlink:href="#DejaVuSans-72"/>
     <use x="116.353516" xlink:href="#DejaVuSans-6f"/>
     <use x="177.535156" xlink:href="#DejaVuSans-75"/>
     <use x="240.914062" xlink:href="#DejaVuSans-6e"/>
     <use x="304.292969" xlink:href="#DejaVuSans-64"/>
     <use x="367.769531" xlink:href="#DejaVuSans-74"/>
     <use x="406.978516" xlink:href="#DejaVuSans-72"/>
     <use x="448.091797" xlink:href="#DejaVuSans-75"/>
     <use x="511.470703" xlink:href="#DejaVuSans-74"/>
     <use x="550.679688" xlink:href="#DejaVuSans-68"/>
    </g>
   </g>
   <g id="text_14">
    <!-- CART -->
    <g style="fill:#cc3399;" transform="translate(329.214287 153.977375)scale(0.15 -0.15)">
     <defs>
      <path d="M 4122 4306 
L 4122 3641 
Q 3803 3938 3442 4084 
Q 3081 4231 2675 4231 
Q 1875 4231 1450 3742 
Q 1025 3253 1025 2328 
Q 1025 1406 1450 917 
Q 1875 428 2675 428 
Q 3081 428 3442 575 
Q 3803 722 4122 1019 
L 4122 359 
Q 3791 134 3420 21 
Q 3050 -91 2638 -91 
Q 1578 -91 968 557 
Q 359 1206 359 2328 
Q 359 3453 968 4101 
Q 1578 4750 2638 4750 
Q 3056 4750 3426 4639 
Q 3797 4528 4122 4306 
z
" id="DejaVuSans-43" transform="scale(0.015625)"/>
      <path d="M 2188 4044 
L 1331 1722 
L 3047 1722 
L 2188 4044 
z
M 1831 4666 
L 2547 4666 
L 4325 0 
L 3669 0 
L 3244 1197 
L 1141 1197 
L 716 0 
L 50 0 
L 1831 4666 
z
" id="DejaVuSans-41" transform="scale(0.015625)"/>
      <path d="M 2841 2188 
Q 3044 2119 3236 1894 
Q 3428 1669 3622 1275 
L 4263 0 
L 3584 0 
L 2988 1197 
Q 2756 1666 2539 1819 
Q 2322 1972 1947 1972 
L 1259 1972 
L 1259 0 
L 628 0 
L 628 4666 
L 2053 4666 
Q 2853 4666 3247 4331 
Q 3641 3997 3641 3322 
Q 3641 2881 3436 2590 
Q 3231 2300 2841 2188 
z
M 1259 4147 
L 1259 2491 
L 2053 2491 
Q 2509 2491 2742 2702 
Q 2975 2913 2975 3322 
Q 2975 3731 2742 3939 
Q 2509 4147 2053 4147 
L 1259 4147 
z
" id="DejaVuSans-52" transform="scale(0.015625)"/>
      <path d="M -19 4666 
L 3928 4666 
L 3928 4134 
L 2272 4134 
L 2272 0 
L 1638 0 
L 1638 4134 
L -19 4134 
L -19 4666 
z
" id="DejaVuSans-54" transform="scale(0.015625)"/>
     </defs>
     <use xlink:href="#DejaVuSans-43"/>
     <use x="69.824219" xlink:href="#DejaVuSans-41"/>
     <use x="138.232422" xlink:href="#DejaVuSans-52"/>
     <use x="200.464844" xlink:href="#DejaVuSans-54"/>
    </g>
   </g>
   <g id="text_15">
    <!-- Shrunk -->
    <g style="fill:#5ab4ac;" transform="translate(329.214287 156.403201)scale(0.15 -0.15)">
     <defs>
      <path d="M 3425 4513 
L 3425 3897 
Q 3066 4069 2747 4153 
Q 2428 4238 2131 4238 
Q 1616 4238 1336 4038 
Q 1056 3838 1056 3469 
Q 1056 3159 1242 3001 
Q 1428 2844 1947 2747 
L 2328 2669 
Q 3034 2534 3370 2195 
Q 3706 1856 3706 1288 
Q 3706 609 3251 259 
Q 2797 -91 1919 -91 
Q 1588 -91 1214 -16 
Q 841 59 441 206 
L 441 856 
Q 825 641 1194 531 
Q 1563 422 1919 422 
Q 2459 422 2753 634 
Q 3047 847 3047 1241 
Q 3047 1584 2836 1778 
Q 2625 1972 2144 2069 
L 1759 2144 
Q 1053 2284 737 2584 
Q 422 2884 422 3419 
Q 422 4038 858 4394 
Q 1294 4750 2059 4750 
Q 2388 4750 2728 4690 
Q 3069 4631 3425 4513 
z
" id="DejaVuSans-53" transform="scale(0.015625)"/>
      <path d="M 581 4863 
L 1159 4863 
L 1159 1991 
L 2875 3500 
L 3609 3500 
L 1753 1863 
L 3688 0 
L 2938 0 
L 1159 1709 
L 1159 0 
L 581 0 
L 581 4863 
z
" id="DejaVuSans-6b" transform="scale(0.015625)"/>
     </defs>
     <use xlink:href="#DejaVuSans-53"/>
     <use x="63.476562" xlink:href="#DejaVuSans-68"/>
     <use x="126.855469" xlink:href="#DejaVuSans-72"/>
     <use x="167.96875" xlink:href="#DejaVuSans-75"/>
     <use x="231.347656" xlink:href="#DejaVuSans-6e"/>
     <use x="294.726562" xlink:href="#DejaVuSans-6b"/>
    </g>
   </g>
  </g>
 </g>
 <defs>
  <clipPath id="p972c38df48">
   <rect height="235.816" width="309.787297" x="46.388" y="10.8"/>
  </clipPath>
 </defs>
</svg>
