<?xml version="1.0" encoding="utf-8" standalone="no"?>
<!DOCTYPE svg PUBLIC "-//W3C//DTD SVG 1.1//EN"
  "http://www.w3.org/Graphics/SVG/1.1/DTD/svg11.dtd">
<svg height="288pt" version="1.1" viewBox="0 0 432 288" width="432pt" xmlns="http://www.w3.org/2000/svg" xmlns:xlink="http://www.w3.org/1999/xlink">
 <metadata>
  <rdf:RDF xmlns:cc="http://creativecommons.org/ns#" xmlns:dc="http://purl.org/dc/elements/1.1/" xmlns:rdf="http://www.w3.org/1999/02/22-rdf-syntax-ns#">
   <cc:Work>
    <dc:type rdf:resource="http://purl.org/dc/dcmitype/StillImage"/>
    <dc:date>2021-12-12T18:50:11.428448</dc:date>
    <dc:format>image/svg+xml</dc:format>
    <dc:creator>
     <cc:Agent>
      <dc:title>Matplotlib v3.4.3, https://matplotlib.org/</dc:title>
     </cc:Agent>
    </dc:creator>
   </cc:Work>
  </rdf:RDF>
 </metadata>
 <defs>
  <style type="text/css">*{stroke-linecap:butt;stroke-linejoin:round;}</style>
 </defs>
 <g id="figure_1">
  <g id="patch_1">
   <path d="M 0 288 
L 432 288 
L 432 0 
L 0 0 
z
" style="fill:none;"/>
  </g>
  <g id="axes_1">
   <g id="patch_2">
    <path d="M 46.388 246.616 
L 355.985842 246.616 
L 355.985842 10.8 
L 46.388 10.8 
z
" style="fill:#ffffff;"/>
   </g>
   <g id="matplotlib.axis_1">
    <g id="xtick_1">
     <g id="line2d_1">
      <defs>
       <path d="M 0 0 
L 0 3.5 
" id="mbc973f4bac" style="stroke:#000000;stroke-width:0.8;"/>
      </defs>
      <g>
       <use style="stroke:#000000;stroke-width:0.8;" x="59.596099" xlink:href="#mbc973f4bac" y="246.616"/>
      </g>
     </g>
     <g id="text_1">
      <!-- 0 -->
      <g transform="translate(56.414849 261.214438)scale(0.1 -0.1)">
       <defs>
        <path d="M 2034 4250 
Q 1547 4250 1301 3770 
Q 1056 3291 1056 2328 
Q 1056 1369 1301 889 
Q 1547 409 2034 409 
Q 2525 409 2770 889 
Q 3016 1369 3016 2328 
Q 3016 3291 2770 3770 
Q 2525 4250 2034 4250 
z
M 2034 4750 
Q 2819 4750 3233 4129 
Q 3647 3509 3647 2328 
Q 3647 1150 3233 529 
Q 2819 -91 2034 -91 
Q 1250 -91 836 529 
Q 422 1150 422 2328 
Q 422 3509 836 4129 
Q 1250 4750 2034 4750 
z
" id="DejaVuSans-30" transform="scale(0.015625)"/>
       </defs>
       <use xlink:href="#DejaVuSans-30"/>
      </g>
     </g>
    </g>
    <g id="xtick_2">
     <g id="line2d_2">
      <g>
       <use style="stroke:#000000;stroke-width:0.8;" x="125.636594" xlink:href="#mbc973f4bac" y="246.616"/>
      </g>
     </g>
     <g id="text_2">
      <!-- 1 -->
      <g transform="translate(122.455344 261.214438)scale(0.1 -0.1)">
       <defs>
        <path d="M 794 531 
L 1825 531 
L 1825 4091 
L 703 3866 
L 703 4441 
L 1819 4666 
L 2450 4666 
L 2450 531 
L 3481 531 
L 3481 0 
L 794 0 
L 794 531 
z
" id="DejaVuSans-31" transform="scale(0.015625)"/>
       </defs>
       <use xlink:href="#DejaVuSans-31"/>
      </g>
     </g>
    </g>
    <g id="xtick_3">
     <g id="line2d_3">
      <g>
       <use style="stroke:#000000;stroke-width:0.8;" x="191.67709" xlink:href="#mbc973f4bac" y="246.616"/>
      </g>
     </g>
     <g id="text_3">
      <!-- 2 -->
      <g transform="translate(188.49584 261.214438)scale(0.1 -0.1)">
       <defs>
        <path d="M 1228 531 
L 3431 531 
L 3431 0 
L 469 0 
L 469 531 
Q 828 903 1448 1529 
Q 2069 2156 2228 2338 
Q 2531 2678 2651 2914 
Q 2772 3150 2772 3378 
Q 2772 3750 2511 3984 
Q 2250 4219 1831 4219 
Q 1534 4219 1204 4116 
Q 875 4013 500 3803 
L 500 4441 
Q 881 4594 1212 4672 
Q 1544 4750 1819 4750 
Q 2544 4750 2975 4387 
Q 3406 4025 3406 3419 
Q 3406 3131 3298 2873 
Q 3191 2616 2906 2266 
Q 2828 2175 2409 1742 
Q 1991 1309 1228 531 
z
" id="DejaVuSans-32" transform="scale(0.015625)"/>
       </defs>
       <use xlink:href="#DejaVuSans-32"/>
      </g>
     </g>
    </g>
    <g id="xtick_4">
     <g id="line2d_4">
      <g>
       <use style="stroke:#000000;stroke-width:0.8;" x="257.717585" xlink:href="#mbc973f4bac" y="246.616"/>
      </g>
     </g>
     <g id="text_4">
      <!-- 3 -->
      <g transform="translate(254.536335 261.214438)scale(0.1 -0.1)">
       <defs>
        <path d="M 2597 2516 
Q 3050 2419 3304 2112 
Q 3559 1806 3559 1356 
Q 3559 666 3084 287 
Q 2609 -91 1734 -91 
Q 1441 -91 1130 -33 
Q 819 25 488 141 
L 488 750 
Q 750 597 1062 519 
Q 1375 441 1716 441 
Q 2309 441 2620 675 
Q 2931 909 2931 1356 
Q 2931 1769 2642 2001 
Q 2353 2234 1838 2234 
L 1294 2234 
L 1294 2753 
L 1863 2753 
Q 2328 2753 2575 2939 
Q 2822 3125 2822 3475 
Q 2822 3834 2567 4026 
Q 2313 4219 1838 4219 
Q 1578 4219 1281 4162 
Q 984 4106 628 3988 
L 628 4550 
Q 988 4650 1302 4700 
Q 1616 4750 1894 4750 
Q 2613 4750 3031 4423 
Q 3450 4097 3450 3541 
Q 3450 3153 3228 2886 
Q 3006 2619 2597 2516 
z
" id="DejaVuSans-33" transform="scale(0.015625)"/>
       </defs>
       <use xlink:href="#DejaVuSans-33"/>
      </g>
     </g>
    </g>
    <g id="xtick_5">
     <g id="line2d_5">
      <g>
       <use style="stroke:#000000;stroke-width:0.8;" x="323.75808" xlink:href="#mbc973f4bac" y="246.616"/>
      </g>
     </g>
     <g id="text_5">
      <!-- 4 -->
      <g transform="translate(320.57683 261.214438)scale(0.1 -0.1)">
       <defs>
        <path d="M 2419 4116 
L 825 1625 
L 2419 1625 
L 2419 4116 
z
M 2253 4666 
L 3047 4666 
L 3047 1625 
L 3713 1625 
L 3713 1100 
L 3047 1100 
L 3047 0 
L 2419 0 
L 2419 1100 
L 313 1100 
L 313 1709 
L 2253 4666 
z
" id="DejaVuSans-34" transform="scale(0.015625)"/>
       </defs>
       <use xlink:href="#DejaVuSans-34"/>
      </g>
     </g>
    </g>
    <g id="text_6">
     <!-- X -->
     <g transform="translate(197.761921 274.892562)scale(0.1 -0.1)">
      <defs>
       <path d="M 403 4666 
L 1081 4666 
L 2241 2931 
L 3406 4666 
L 4084 4666 
L 2584 2425 
L 4184 0 
L 3506 0 
L 2194 1984 
L 872 0 
L 191 0 
L 1856 2491 
L 403 4666 
z
" id="DejaVuSans-58" transform="scale(0.015625)"/>
      </defs>
      <use xlink:href="#DejaVuSans-58"/>
     </g>
    </g>
   </g>
   <g id="matplotlib.axis_2">
    <g id="ytick_1">
     <g id="line2d_6">
      <defs>
       <path d="M 0 0 
L -3.5 0 
" id="m1162cbc90a" style="stroke:#000000;stroke-width:0.8;"/>
      </defs>
      <g>
       <use style="stroke:#000000;stroke-width:0.8;" x="46.388" xlink:href="#m1162cbc90a" y="211.61679"/>
      </g>
     </g>
     <g id="text_7">
      <!-- −1 -->
      <g transform="translate(24.645812 215.416009)scale(0.1 -0.1)">
       <defs>
        <path d="M 678 2272 
L 4684 2272 
L 4684 1741 
L 678 1741 
L 678 2272 
z
" id="DejaVuSans-2212" transform="scale(0.015625)"/>
       </defs>
       <use xlink:href="#DejaVuSans-2212"/>
       <use x="83.789062" xlink:href="#DejaVuSans-31"/>
      </g>
     </g>
    </g>
    <g id="ytick_2">
     <g id="line2d_7">
      <g>
       <use style="stroke:#000000;stroke-width:0.8;" x="46.388" xlink:href="#m1162cbc90a" y="164.272475"/>
      </g>
     </g>
     <g id="text_8">
      <!-- 0 -->
      <g transform="translate(33.0255 168.071693)scale(0.1 -0.1)">
       <use xlink:href="#DejaVuSans-30"/>
      </g>
     </g>
    </g>
    <g id="ytick_3">
     <g id="line2d_8">
      <g>
       <use style="stroke:#000000;stroke-width:0.8;" x="46.388" xlink:href="#m1162cbc90a" y="116.928159"/>
      </g>
     </g>
     <g id="text_9">
      <!-- 1 -->
      <g transform="translate(33.0255 120.727378)scale(0.1 -0.1)">
       <use xlink:href="#DejaVuSans-31"/>
      </g>
     </g>
    </g>
    <g id="ytick_4">
     <g id="line2d_9">
      <g>
       <use style="stroke:#000000;stroke-width:0.8;" x="46.388" xlink:href="#m1162cbc90a" y="69.583844"/>
      </g>
     </g>
     <g id="text_10">
      <!-- 2 -->
      <g transform="translate(33.0255 73.383063)scale(0.1 -0.1)">
       <use xlink:href="#DejaVuSans-32"/>
      </g>
     </g>
    </g>
    <g id="ytick_5">
     <g id="line2d_10">
      <g>
       <use style="stroke:#000000;stroke-width:0.8;" x="46.388" xlink:href="#m1162cbc90a" y="22.239529"/>
      </g>
     </g>
     <g id="text_11">
      <!-- 3 -->
      <g transform="translate(33.0255 26.038747)scale(0.1 -0.1)">
       <use xlink:href="#DejaVuSans-33"/>
      </g>
     </g>
    </g>
    <g id="text_12">
     <!-- Y -->
     <g transform="translate(18.566125 131.761906)rotate(-90)scale(0.1 -0.1)">
      <defs>
       <path d="M -13 4666 
L 666 4666 
L 1959 2747 
L 3244 4666 
L 3922 4666 
L 2272 2222 
L 2272 0 
L 1638 0 
L 1638 2222 
L -13 4666 
z
" id="DejaVuSans-59" transform="scale(0.015625)"/>
      </defs>
      <use xlink:href="#DejaVuSans-59"/>
     </g>
    </g>
   </g>
   <g id="line2d_11">
    <defs>
     <path d="M 0 1.5 
C 0.397805 1.5 0.77937 1.341951 1.06066 1.06066 
C 1.341951 0.77937 1.5 0.397805 1.5 0 
C 1.5 -0.397805 1.341951 -0.77937 1.06066 -1.06066 
C 0.77937 -1.341951 0.397805 -1.5 0 -1.5 
C -0.397805 -1.5 -0.77937 -1.341951 -1.06066 -1.06066 
C -1.341951 -0.77937 -1.5 -0.397805 -1.5 0 
C -1.5 0.397805 -1.341951 0.77937 -1.06066 1.06066 
C -0.77937 1.341951 -0.397805 1.5 0 1.5 
z
" id="m4e501d05fe"/>
    </defs>
    <g clip-path="url(#p3f2d8162d0)">
     <use style="fill:#1f77b4;fill-opacity:0.5;" x="265.035509" xlink:href="#m4e501d05fe" y="141.032484"/>
     <use style="fill:#1f77b4;fill-opacity:0.5;" x="122.345458" xlink:href="#m4e501d05fe" y="27.317575"/>
     <use style="fill:#1f77b4;fill-opacity:0.5;" x="277.339149" xlink:href="#m4e501d05fe" y="193.672334"/>
     <use style="fill:#1f77b4;fill-opacity:0.5;" x="314.710321" xlink:href="#m4e501d05fe" y="185.755071"/>
     <use style="fill:#1f77b4;fill-opacity:0.5;" x="316.520336" xlink:href="#m4e501d05fe" y="153.977375"/>
     <use style="fill:#1f77b4;fill-opacity:0.5;" x="179.380151" xlink:href="#m4e501d05fe" y="139.921927"/>
     <use style="fill:#1f77b4;fill-opacity:0.5;" x="220.481963" xlink:href="#m4e501d05fe" y="98.121041"/>
     <use style="fill:#1f77b4;fill-opacity:0.5;" x="264.46072" xlink:href="#m4e501d05fe" y="235.897091"/>
     <use style="fill:#1f77b4;fill-opacity:0.5;" x="229.085952" xlink:href="#m4e501d05fe" y="153.100825"/>
     <use style="fill:#1f77b4;fill-opacity:0.5;" x="250.325865" xlink:href="#m4e501d05fe" y="112.133611"/>
     <use style="fill:#1f77b4;fill-opacity:0.5;" x="68.851417" xlink:href="#m4e501d05fe" y="131.9489"/>
     <use style="fill:#1f77b4;fill-opacity:0.5;" x="138.435103" xlink:href="#m4e501d05fe" y="110.378876"/>
     <use style="fill:#1f77b4;fill-opacity:0.5;" x="75.052875" xlink:href="#m4e501d05fe" y="132.178883"/>
     <use style="fill:#1f77b4;fill-opacity:0.5;" x="285.999016" xlink:href="#m4e501d05fe" y="181.795367"/>
     <use style="fill:#1f77b4;fill-opacity:0.5;" x="158.089958" xlink:href="#m4e501d05fe" y="76.703834"/>
     <use style="fill:#1f77b4;fill-opacity:0.5;" x="239.186081" xlink:href="#m4e501d05fe" y="120.793896"/>
     <use style="fill:#1f77b4;fill-opacity:0.5;" x="127.295518" xlink:href="#m4e501d05fe" y="210.682891"/>
     <use style="fill:#1f77b4;fill-opacity:0.5;" x="151.413842" xlink:href="#m4e501d05fe" y="164.385581"/>
     <use style="fill:#1f77b4;fill-opacity:0.5;" x="62.082595" xlink:href="#m4e501d05fe" y="127.932203"/>
     <use style="fill:#1f77b4;fill-opacity:0.5;" x="154.254261" xlink:href="#m4e501d05fe" y="130.61186"/>
     <use style="fill:#1f77b4;fill-opacity:0.5;" x="310.310699" xlink:href="#m4e501d05fe" y="142.81799"/>
     <use style="fill:#1f77b4;fill-opacity:0.5;" x="117.156733" xlink:href="#m4e501d05fe" y="132.678466"/>
     <use style="fill:#1f77b4;fill-opacity:0.5;" x="143.967155" xlink:href="#m4e501d05fe" y="182.474361"/>
     <use style="fill:#1f77b4;fill-opacity:0.5;" x="302.036671" xlink:href="#m4e501d05fe" y="189.380463"/>
     <use style="fill:#1f77b4;fill-opacity:0.5;" x="68.023835" xlink:href="#m4e501d05fe" y="52.998846"/>
     <use style="fill:#1f77b4;fill-opacity:0.5;" x="76.788959" xlink:href="#m4e501d05fe" y="21.518909"/>
     <use style="fill:#1f77b4;fill-opacity:0.5;" x="225.972975" xlink:href="#m4e501d05fe" y="119.651991"/>
     <use style="fill:#1f77b4;fill-opacity:0.5;" x="290.42439" xlink:href="#m4e501d05fe" y="137.539304"/>
     <use style="fill:#1f77b4;fill-opacity:0.5;" x="61.898464" xlink:href="#m4e501d05fe" y="99.906349"/>
     <use style="fill:#1f77b4;fill-opacity:0.5;" x="256.813421" xlink:href="#m4e501d05fe" y="141.166796"/>
     <use style="fill:#1f77b4;fill-opacity:0.5;" x="274.317833" xlink:href="#m4e501d05fe" y="189.041326"/>
     <use style="fill:#1f77b4;fill-opacity:0.5;" x="79.59777" xlink:href="#m4e501d05fe" y="139.718359"/>
     <use style="fill:#1f77b4;fill-opacity:0.5;" x="233.006641" xlink:href="#m4e501d05fe" y="208.026171"/>
     <use style="fill:#1f77b4;fill-opacity:0.5;" x="194.123811" xlink:href="#m4e501d05fe" y="152.789264"/>
     <use style="fill:#1f77b4;fill-opacity:0.5;" x="186.363047" xlink:href="#m4e501d05fe" y="142.802725"/>
     <use style="fill:#1f77b4;fill-opacity:0.5;" x="312.022459" xlink:href="#m4e501d05fe" y="120.604722"/>
     <use style="fill:#1f77b4;fill-opacity:0.5;" x="59.599278" xlink:href="#m4e501d05fe" y="126.744989"/>
     <use style="fill:#1f77b4;fill-opacity:0.5;" x="124.838482" xlink:href="#m4e501d05fe" y="134.725833"/>
     <use style="fill:#1f77b4;fill-opacity:0.5;" x="247.740894" xlink:href="#m4e501d05fe" y="86.633291"/>
     <use style="fill:#1f77b4;fill-opacity:0.5;" x="145.338336" xlink:href="#m4e501d05fe" y="67.041774"/>
     <use style="fill:#1f77b4;fill-opacity:0.5;" x="132.768005" xlink:href="#m4e501d05fe" y="208.22387"/>
     <use style="fill:#1f77b4;fill-opacity:0.5;" x="243.306348" xlink:href="#m4e501d05fe" y="153.603908"/>
     <use style="fill:#1f77b4;fill-opacity:0.5;" x="302.242549" xlink:href="#m4e501d05fe" y="184.968836"/>
     <use style="fill:#1f77b4;fill-opacity:0.5;" x="124.177285" xlink:href="#m4e501d05fe" y="90.987342"/>
     <use style="fill:#1f77b4;fill-opacity:0.5;" x="180.604956" xlink:href="#m4e501d05fe" y="204.711288"/>
     <use style="fill:#1f77b4;fill-opacity:0.5;" x="126.427147" xlink:href="#m4e501d05fe" y="142.226217"/>
     <use style="fill:#1f77b4;fill-opacity:0.5;" x="159.801533" xlink:href="#m4e501d05fe" y="198.407711"/>
     <use style="fill:#1f77b4;fill-opacity:0.5;" x="219.292274" xlink:href="#m4e501d05fe" y="90.308264"/>
     <use style="fill:#1f77b4;fill-opacity:0.5;" x="263.629203" xlink:href="#m4e501d05fe" y="179.179215"/>
     <use style="fill:#1f77b4;fill-opacity:0.5;" x="77.53732" xlink:href="#m4e501d05fe" y="137.281342"/>
    </g>
   </g>
   <g id="line2d_12">
    <path clip-path="url(#p3f2d8162d0)" d="M 59.596099 116.928159 
L 125.239557 116.928159 
L 125.76894 164.272475 
L 191.412398 164.272475 
L 191.941781 116.928159 
L 257.585239 116.928159 
L 258.114622 164.272475 
L 323.75808 164.272475 
L 323.75808 164.272475 
" style="fill:none;stroke:#1f77b4;stroke-linecap:square;stroke-width:1.5;"/>
   </g>
   <g id="line2d_13">
    <path clip-path="url(#p3f2d8162d0)" d="M 59.596099 126.744989 
L 60.654865 126.744989 
L 61.184247 99.906349 
L 61.71363 99.906349 
L 62.243013 127.932203 
L 64.889926 127.932203 
L 65.419309 52.998846 
L 68.066223 52.998846 
L 68.595605 131.9489 
L 71.771902 131.9489 
L 72.301285 132.178883 
L 75.477581 132.178883 
L 76.006964 21.518909 
L 77.065729 21.518909 
L 77.595112 137.281342 
L 78.124495 137.281342 
L 78.653877 139.718359 
L 98.241038 139.718359 
L 98.770421 132.678466 
L 119.416347 132.678466 
L 119.94573 27.317575 
L 123.122026 27.317575 
L 123.651409 90.987342 
L 124.180792 90.987342 
L 124.710175 134.725833 
L 125.239557 134.725833 
L 125.76894 142.226217 
L 126.827706 142.226217 
L 127.357088 210.682891 
L 130.004002 210.682891 
L 130.533385 208.22387 
L 135.297829 208.22387 
L 135.827212 110.378876 
L 141.121039 110.378876 
L 141.650422 182.474361 
L 144.297336 182.474361 
L 144.826718 67.041774 
L 148.003015 67.041774 
L 148.532397 164.385581 
L 152.767459 164.385581 
L 153.296842 130.61186 
L 155.943756 130.61186 
L 156.473138 76.703834 
L 158.590669 76.703834 
L 159.120052 198.407711 
L 169.178324 198.407711 
L 169.707707 139.921927 
L 179.765978 139.921927 
L 180.295361 204.711288 
L 183.471657 204.711288 
L 184.00104 142.802725 
L 189.82425 142.802725 
L 190.353633 152.789264 
L 206.235115 152.789264 
L 206.764498 90.308264 
L 219.469683 90.308264 
L 219.999066 98.121041 
L 223.175362 98.121041 
L 223.704745 119.651991 
L 227.410424 119.651991 
L 227.939807 153.100825 
L 230.58672 153.100825 
L 231.116103 208.026171 
L 235.880548 208.026171 
L 236.40993 120.793896 
L 241.174375 120.793896 
L 241.703758 153.603908 
L 245.409437 153.603908 
L 245.938819 86.633291 
L 248.585733 86.633291 
L 249.115116 112.133611 
L 253.350178 112.133611 
L 253.87956 141.166796 
L 259.70277 141.166796 
L 260.232153 179.179215 
L 263.937832 179.179215 
L 264.467215 235.897091 
L 264.996598 141.032484 
L 269.231659 141.032484 
L 269.761042 189.041326 
L 275.584252 189.041326 
L 276.113635 193.672334 
L 281.407462 193.672334 
L 281.936845 181.795367 
L 287.760055 181.795367 
L 288.289438 137.539304 
L 296.230179 137.539304 
L 296.759561 189.380463 
L 302.053389 189.380463 
L 302.582771 184.968836 
L 305.759068 184.968836 
L 306.28845 142.81799 
L 311.052895 142.81799 
L 311.582278 120.604722 
L 313.170426 120.604722 
L 313.699809 185.755071 
L 315.287957 185.755071 
L 315.81734 153.977375 
L 323.75808 153.977375 
L 323.75808 153.977375 
" style="fill:none;stroke:#cc3399;stroke-dasharray:1.5,2.475;stroke-dashoffset:0;stroke-width:1.5;"/>
   </g>
   <g id="line2d_14">
    <path clip-path="url(#p3f2d8162d0)" d="M 59.596099 114.499685 
L 60.654865 114.499685 
L 61.184247 110.026579 
L 61.71363 110.026579 
L 62.243013 115.63387 
L 64.889926 115.63387 
L 65.419309 94.759378 
L 68.066223 94.759378 
L 68.595605 120.023823 
L 75.477581 120.062154 
L 76.006964 75.263885 
L 77.065729 75.263885 
L 77.595112 126.189385 
L 78.124495 126.189385 
L 78.653877 126.595555 
L 98.241038 126.595555 
L 98.770421 125.049073 
L 119.416347 125.049073 
L 119.94573 79.610925 
L 123.122026 79.610925 
L 123.651409 90.222553 
L 124.180792 90.222553 
L 124.710175 154.181315 
L 125.239557 154.181315 
L 125.76894 155.431379 
L 126.827706 155.431379 
L 127.357088 175.29051 
L 130.004002 175.29051 
L 130.533385 174.880673 
L 135.297829 174.880673 
L 135.827212 128.727138 
L 141.121039 128.727138 
L 141.650422 140.743052 
L 144.297336 140.743052 
L 144.826718 116.415516 
L 148.003015 116.415516 
L 148.532397 140.620951 
L 152.767459 140.620951 
L 153.296842 134.991997 
L 155.943756 134.991997 
L 156.473138 111.946735 
L 158.590669 111.946735 
L 159.120052 165.862659 
L 169.178324 165.862659 
L 169.707707 156.115029 
L 179.765978 156.115029 
L 180.295361 169.191875 
L 183.471657 169.191875 
L 184.00104 140.248771 
L 189.82425 140.248771 
L 190.353633 141.913195 
L 206.235115 141.913195 
L 206.764498 123.439123 
L 219.469683 123.439123 
L 219.999066 124.741253 
L 223.175362 124.741253 
L 223.704745 129.960343 
L 227.410424 129.960343 
L 227.939807 151.747782 
L 230.58672 151.747782 
L 231.116103 160.902007 
L 235.880548 160.902007 
L 236.40993 141.200842 
L 241.174375 141.200842 
L 241.703758 146.669178 
L 245.409437 146.669178 
L 245.938819 117.115468 
L 248.585733 117.115468 
L 249.115116 121.365521 
L 253.350178 121.365521 
L 253.87956 128.882805 
L 259.70277 128.882805 
L 260.232153 181.219588 
L 263.937832 181.219588 
L 264.467215 190.672568 
L 264.996598 153.054103 
L 269.231659 153.054103 
L 269.761042 172.490686 
L 275.584252 172.490686 
L 276.113635 173.262521 
L 281.407462 173.262521 
L 281.936845 170.670112 
L 287.760055 170.670112 
L 288.289438 157.927346 
L 296.230179 157.927346 
L 296.759561 169.749292 
L 302.053389 169.749292 
L 302.582771 169.014021 
L 305.759068 169.014021 
L 306.28845 150.880242 
L 311.052895 150.880242 
L 311.582278 147.178031 
L 313.170426 147.178031 
L 313.699809 162.578668 
L 315.287957 162.578668 
L 315.81734 157.282386 
L 323.75808 157.282386 
L 323.75808 157.282386 
" style="fill:none;stroke:#5ab4ac;stroke-dasharray:1.5,2.475;stroke-dashoffset:0;stroke-width:1.5;"/>
   </g>
   <g id="patch_3">
    <path d="M 46.388 246.616 
L 46.388 10.8 
" style="fill:none;stroke:#000000;stroke-linecap:square;stroke-linejoin:miter;stroke-width:0.8;"/>
   </g>
   <g id="patch_4">
    <path d="M 46.388 246.616 
L 355.985842 246.616 
" style="fill:none;stroke:#000000;stroke-linecap:square;stroke-linejoin:miter;stroke-width:0.8;"/>
   </g>
   <g id="text_13">
    <!-- Groundtruth -->
    <g style="fill:#1f77b4;" transform="translate(329.04132 164.272475)scale(0.15 -0.15)">
     <defs>
      <path d="M 3809 666 
L 3809 1919 
L 2778 1919 
L 2778 2438 
L 4434 2438 
L 4434 434 
Q 4069 175 3628 42 
Q 3188 -91 2688 -91 
Q 1594 -91 976 548 
Q 359 1188 359 2328 
Q 359 3472 976 4111 
Q 1594 4750 2688 4750 
Q 3144 4750 3555 4637 
Q 3966 4525 4313 4306 
L 4313 3634 
Q 3963 3931 3569 4081 
Q 3175 4231 2741 4231 
Q 1884 4231 1454 3753 
Q 1025 3275 1025 2328 
Q 1025 1384 1454 906 
Q 1884 428 2741 428 
Q 3075 428 3337 486 
Q 3600 544 3809 666 
z
" id="DejaVuSans-47" transform="scale(0.015625)"/>
      <path d="M 2631 2963 
Q 2534 3019 2420 3045 
Q 2306 3072 2169 3072 
Q 1681 3072 1420 2755 
Q 1159 2438 1159 1844 
L 1159 0 
L 581 0 
L 581 3500 
L 1159 3500 
L 1159 2956 
Q 1341 3275 1631 3429 
Q 1922 3584 2338 3584 
Q 2397 3584 2469 3576 
Q 2541 3569 2628 3553 
L 2631 2963 
z
" id="DejaVuSans-72" transform="scale(0.015625)"/>
      <path d="M 1959 3097 
Q 1497 3097 1228 2736 
Q 959 2375 959 1747 
Q 959 1119 1226 758 
Q 1494 397 1959 397 
Q 2419 397 2687 759 
Q 2956 1122 2956 1747 
Q 2956 2369 2687 2733 
Q 2419 3097 1959 3097 
z
M 1959 3584 
Q 2709 3584 3137 3096 
Q 3566 2609 3566 1747 
Q 3566 888 3137 398 
Q 2709 -91 1959 -91 
Q 1206 -91 779 398 
Q 353 888 353 1747 
Q 353 2609 779 3096 
Q 1206 3584 1959 3584 
z
" id="DejaVuSans-6f" transform="scale(0.015625)"/>
      <path d="M 544 1381 
L 544 3500 
L 1119 3500 
L 1119 1403 
Q 1119 906 1312 657 
Q 1506 409 1894 409 
Q 2359 409 2629 706 
Q 2900 1003 2900 1516 
L 2900 3500 
L 3475 3500 
L 3475 0 
L 2900 0 
L 2900 538 
Q 2691 219 2414 64 
Q 2138 -91 1772 -91 
Q 1169 -91 856 284 
Q 544 659 544 1381 
z
M 1991 3584 
L 1991 3584 
z
" id="DejaVuSans-75" transform="scale(0.015625)"/>
      <path d="M 3513 2113 
L 3513 0 
L 2938 0 
L 2938 2094 
Q 2938 2591 2744 2837 
Q 2550 3084 2163 3084 
Q 1697 3084 1428 2787 
Q 1159 2491 1159 1978 
L 1159 0 
L 581 0 
L 581 3500 
L 1159 3500 
L 1159 2956 
Q 1366 3272 1645 3428 
Q 1925 3584 2291 3584 
Q 2894 3584 3203 3211 
Q 3513 2838 3513 2113 
z
" id="DejaVuSans-6e" transform="scale(0.015625)"/>
      <path d="M 2906 2969 
L 2906 4863 
L 3481 4863 
L 3481 0 
L 2906 0 
L 2906 525 
Q 2725 213 2448 61 
Q 2172 -91 1784 -91 
Q 1150 -91 751 415 
Q 353 922 353 1747 
Q 353 2572 751 3078 
Q 1150 3584 1784 3584 
Q 2172 3584 2448 3432 
Q 2725 3281 2906 2969 
z
M 947 1747 
Q 947 1113 1208 752 
Q 1469 391 1925 391 
Q 2381 391 2643 752 
Q 2906 1113 2906 1747 
Q 2906 2381 2643 2742 
Q 2381 3103 1925 3103 
Q 1469 3103 1208 2742 
Q 947 2381 947 1747 
z
" id="DejaVuSans-64" transform="scale(0.015625)"/>
      <path d="M 1172 4494 
L 1172 3500 
L 2356 3500 
L 2356 3053 
L 1172 3053 
L 1172 1153 
Q 1172 725 1289 603 
Q 1406 481 1766 481 
L 2356 481 
L 2356 0 
L 1766 0 
Q 1100 0 847 248 
Q 594 497 594 1153 
L 594 3053 
L 172 3053 
L 172 3500 
L 594 3500 
L 594 4494 
L 1172 4494 
z
" id="DejaVuSans-74" transform="scale(0.015625)"/>
      <path d="M 3513 2113 
L 3513 0 
L 2938 0 
L 2938 2094 
Q 2938 2591 2744 2837 
Q 2550 3084 2163 3084 
Q 1697 3084 1428 2787 
Q 1159 2491 1159 1978 
L 1159 0 
L 581 0 
L 581 4863 
L 1159 4863 
L 1159 2956 
Q 1366 3272 1645 3428 
Q 1925 3584 2291 3584 
Q 2894 3584 3203 3211 
Q 3513 2838 3513 2113 
z
" id="DejaVuSans-68" transform="scale(0.015625)"/>
     </defs>
     <use xlink:href="#DejaVuSans-47"/>
     <use x="77.490234" xlink:href="#DejaVuSans-72"/>
     <use x="116.353516" xlink:href="#DejaVuSans-6f"/>
     <use x="177.535156" xlink:href="#DejaVuSans-75"/>
     <use x="240.914062" xlink:href="#DejaVuSans-6e"/>
     <use x="304.292969" xlink:href="#DejaVuSans-64"/>
     <use x="367.769531" xlink:href="#DejaVuSans-74"/>
     <use x="406.978516" xlink:href="#DejaVuSans-72"/>
     <use x="448.091797" xlink:href="#DejaVuSans-75"/>
     <use x="511.470703" xlink:href="#DejaVuSans-74"/>
     <use x="550.679688" xlink:href="#DejaVuSans-68"/>
    </g>
   </g>
   <g id="text_14">
    <!-- CART -->
    <g style="fill:#cc3399;" transform="translate(329.04132 153.977375)scale(0.15 -0.15)">
     <defs>
      <path d="M 4122 4306 
L 4122 3641 
Q 3803 3938 3442 4084 
Q 3081 4231 2675 4231 
Q 1875 4231 1450 3742 
Q 1025 3253 1025 2328 
Q 1025 1406 1450 917 
Q 1875 428 2675 428 
Q 3081 428 3442 575 
Q 3803 722 4122 1019 
L 4122 359 
Q 3791 134 3420 21 
Q 3050 -91 2638 -91 
Q 1578 -91 968 557 
Q 359 1206 359 2328 
Q 359 3453 968 4101 
Q 1578 4750 2638 4750 
Q 3056 4750 3426 4639 
Q 3797 4528 4122 4306 
z
" id="DejaVuSans-43" transform="scale(0.015625)"/>
      <path d="M 2188 4044 
L 1331 1722 
L 3047 1722 
L 2188 4044 
z
M 1831 4666 
L 2547 4666 
L 4325 0 
L 3669 0 
L 3244 1197 
L 1141 1197 
L 716 0 
L 50 0 
L 1831 4666 
z
" id="DejaVuSans-41" transform="scale(0.015625)"/>
      <path d="M 2841 2188 
Q 3044 2119 3236 1894 
Q 3428 1669 3622 1275 
L 4263 0 
L 3584 0 
L 2988 1197 
Q 2756 1666 2539 1819 
Q 2322 1972 1947 1972 
L 1259 1972 
L 1259 0 
L 628 0 
L 628 4666 
L 2053 4666 
Q 2853 4666 3247 4331 
Q 3641 3997 3641 3322 
Q 3641 2881 3436 2590 
Q 3231 2300 2841 2188 
z
M 1259 4147 
L 1259 2491 
L 2053 2491 
Q 2509 2491 2742 2702 
Q 2975 2913 2975 3322 
Q 2975 3731 2742 3939 
Q 2509 4147 2053 4147 
L 1259 4147 
z
" id="DejaVuSans-52" transform="scale(0.015625)"/>
      <path d="M -19 4666 
L 3928 4666 
L 3928 4134 
L 2272 4134 
L 2272 0 
L 1638 0 
L 1638 4134 
L -19 4134 
L -19 4666 
z
" id="DejaVuSans-54" transform="scale(0.015625)"/>
     </defs>
     <use xlink:href="#DejaVuSans-43"/>
     <use x="69.824219" xlink:href="#DejaVuSans-41"/>
     <use x="138.232422" xlink:href="#DejaVuSans-52"/>
     <use x="200.464844" xlink:href="#DejaVuSans-54"/>
    </g>
   </g>
   <g id="text_15">
    <!-- Shrunk -->
    <g style="fill:#5ab4ac;" transform="translate(329.04132 157.282386)scale(0.15 -0.15)">
     <defs>
      <path d="M 3425 4513 
L 3425 3897 
Q 3066 4069 2747 4153 
Q 2428 4238 2131 4238 
Q 1616 4238 1336 4038 
Q 1056 3838 1056 3469 
Q 1056 3159 1242 3001 
Q 1428 2844 1947 2747 
L 2328 2669 
Q 3034 2534 3370 2195 
Q 3706 1856 3706 1288 
Q 3706 609 3251 259 
Q 2797 -91 1919 -91 
Q 1588 -91 1214 -16 
Q 841 59 441 206 
L 441 856 
Q 825 641 1194 531 
Q 1563 422 1919 422 
Q 2459 422 2753 634 
Q 3047 847 3047 1241 
Q 3047 1584 2836 1778 
Q 2625 1972 2144 2069 
L 1759 2144 
Q 1053 2284 737 2584 
Q 422 2884 422 3419 
Q 422 4038 858 4394 
Q 1294 4750 2059 4750 
Q 2388 4750 2728 4690 
Q 3069 4631 3425 4513 
z
" id="DejaVuSans-53" transform="scale(0.015625)"/>
      <path d="M 581 4863 
L 1159 4863 
L 1159 1991 
L 2875 3500 
L 3609 3500 
L 1753 1863 
L 3688 0 
L 2938 0 
L 1159 1709 
L 1159 0 
L 581 0 
L 581 4863 
z
" id="DejaVuSans-6b" transform="scale(0.015625)"/>
     </defs>
     <use xlink:href="#DejaVuSans-53"/>
     <use x="63.476562" xlink:href="#DejaVuSans-68"/>
     <use x="126.855469" xlink:href="#DejaVuSans-72"/>
     <use x="167.96875" xlink:href="#DejaVuSans-75"/>
     <use x="231.347656" xlink:href="#DejaVuSans-6e"/>
     <use x="294.726562" xlink:href="#DejaVuSans-6b"/>
    </g>
   </g>
  </g>
 </g>
 <defs>
  <clipPath id="p3f2d8162d0">
   <rect height="235.816" width="309.597842" x="46.388" y="10.8"/>
  </clipPath>
 </defs>
</svg>
