<?xml version="1.0" encoding="utf-8" standalone="no"?>
<!DOCTYPE svg PUBLIC "-//W3C//DTD SVG 1.1//EN"
  "http://www.w3.org/Graphics/SVG/1.1/DTD/svg11.dtd">
<svg height="288pt" version="1.1" viewBox="0 0 432 288" width="432pt" xmlns="http://www.w3.org/2000/svg" xmlns:xlink="http://www.w3.org/1999/xlink">
 <metadata>
  <rdf:RDF xmlns:cc="http://creativecommons.org/ns#" xmlns:dc="http://purl.org/dc/elements/1.1/" xmlns:rdf="http://www.w3.org/1999/02/22-rdf-syntax-ns#">
   <cc:Work>
    <dc:type rdf:resource="http://purl.org/dc/dcmitype/StillImage"/>
    <dc:date>2021-12-12T19:16:18.601672</dc:date>
    <dc:format>image/svg+xml</dc:format>
    <dc:creator>
     <cc:Agent>
      <dc:title>Matplotlib v3.4.3, https://matplotlib.org/</dc:title>
     </cc:Agent>
    </dc:creator>
   </cc:Work>
  </rdf:RDF>
 </metadata>
 <defs>
  <style type="text/css">*{stroke-linecap:butt;stroke-linejoin:round;}</style>
 </defs>
 <g id="figure_1">
  <g id="patch_1">
   <path d="M 0 288 
L 432 288 
L 432 0 
L 0 0 
z
" style="fill:none;"/>
  </g>
  <g id="axes_1">
   <g id="patch_2">
    <path d="M 46.388 246.616 
L 358.177884 246.616 
L 358.177884 10.8 
L 46.388 10.8 
z
" style="fill:#ffffff;"/>
   </g>
   <g id="matplotlib.axis_1">
    <g id="xtick_1">
     <g id="line2d_1">
      <defs>
       <path d="M 0 0 
L 0 3.5 
" id="ma298099bb9" style="stroke:#000000;stroke-width:0.8;"/>
      </defs>
      <g>
       <use style="stroke:#000000;stroke-width:0.8;" x="59.689616" xlink:href="#ma298099bb9" y="246.616"/>
      </g>
     </g>
     <g id="text_1">
      <!-- 0 -->
      <g transform="translate(56.508366 261.214438)scale(0.1 -0.1)">
       <defs>
        <path d="M 2034 4250 
Q 1547 4250 1301 3770 
Q 1056 3291 1056 2328 
Q 1056 1369 1301 889 
Q 1547 409 2034 409 
Q 2525 409 2770 889 
Q 3016 1369 3016 2328 
Q 3016 3291 2770 3770 
Q 2525 4250 2034 4250 
z
M 2034 4750 
Q 2819 4750 3233 4129 
Q 3647 3509 3647 2328 
Q 3647 1150 3233 529 
Q 2819 -91 2034 -91 
Q 1250 -91 836 529 
Q 422 1150 422 2328 
Q 422 3509 836 4129 
Q 1250 4750 2034 4750 
z
" id="DejaVuSans-30" transform="scale(0.015625)"/>
       </defs>
       <use xlink:href="#DejaVuSans-30"/>
      </g>
     </g>
    </g>
    <g id="xtick_2">
     <g id="line2d_2">
      <g>
       <use style="stroke:#000000;stroke-width:0.8;" x="126.197697" xlink:href="#ma298099bb9" y="246.616"/>
      </g>
     </g>
     <g id="text_2">
      <!-- 1 -->
      <g transform="translate(123.016447 261.214438)scale(0.1 -0.1)">
       <defs>
        <path d="M 794 531 
L 1825 531 
L 1825 4091 
L 703 3866 
L 703 4441 
L 1819 4666 
L 2450 4666 
L 2450 531 
L 3481 531 
L 3481 0 
L 794 0 
L 794 531 
z
" id="DejaVuSans-31" transform="scale(0.015625)"/>
       </defs>
       <use xlink:href="#DejaVuSans-31"/>
      </g>
     </g>
    </g>
    <g id="xtick_3">
     <g id="line2d_3">
      <g>
       <use style="stroke:#000000;stroke-width:0.8;" x="192.705778" xlink:href="#ma298099bb9" y="246.616"/>
      </g>
     </g>
     <g id="text_3">
      <!-- 2 -->
      <g transform="translate(189.524528 261.214438)scale(0.1 -0.1)">
       <defs>
        <path d="M 1228 531 
L 3431 531 
L 3431 0 
L 469 0 
L 469 531 
Q 828 903 1448 1529 
Q 2069 2156 2228 2338 
Q 2531 2678 2651 2914 
Q 2772 3150 2772 3378 
Q 2772 3750 2511 3984 
Q 2250 4219 1831 4219 
Q 1534 4219 1204 4116 
Q 875 4013 500 3803 
L 500 4441 
Q 881 4594 1212 4672 
Q 1544 4750 1819 4750 
Q 2544 4750 2975 4387 
Q 3406 4025 3406 3419 
Q 3406 3131 3298 2873 
Q 3191 2616 2906 2266 
Q 2828 2175 2409 1742 
Q 1991 1309 1228 531 
z
" id="DejaVuSans-32" transform="scale(0.015625)"/>
       </defs>
       <use xlink:href="#DejaVuSans-32"/>
      </g>
     </g>
    </g>
    <g id="xtick_4">
     <g id="line2d_4">
      <g>
       <use style="stroke:#000000;stroke-width:0.8;" x="259.213859" xlink:href="#ma298099bb9" y="246.616"/>
      </g>
     </g>
     <g id="text_4">
      <!-- 3 -->
      <g transform="translate(256.032609 261.214438)scale(0.1 -0.1)">
       <defs>
        <path d="M 2597 2516 
Q 3050 2419 3304 2112 
Q 3559 1806 3559 1356 
Q 3559 666 3084 287 
Q 2609 -91 1734 -91 
Q 1441 -91 1130 -33 
Q 819 25 488 141 
L 488 750 
Q 750 597 1062 519 
Q 1375 441 1716 441 
Q 2309 441 2620 675 
Q 2931 909 2931 1356 
Q 2931 1769 2642 2001 
Q 2353 2234 1838 2234 
L 1294 2234 
L 1294 2753 
L 1863 2753 
Q 2328 2753 2575 2939 
Q 2822 3125 2822 3475 
Q 2822 3834 2567 4026 
Q 2313 4219 1838 4219 
Q 1578 4219 1281 4162 
Q 984 4106 628 3988 
L 628 4550 
Q 988 4650 1302 4700 
Q 1616 4750 1894 4750 
Q 2613 4750 3031 4423 
Q 3450 4097 3450 3541 
Q 3450 3153 3228 2886 
Q 3006 2619 2597 2516 
z
" id="DejaVuSans-33" transform="scale(0.015625)"/>
       </defs>
       <use xlink:href="#DejaVuSans-33"/>
      </g>
     </g>
    </g>
    <g id="xtick_5">
     <g id="line2d_5">
      <g>
       <use style="stroke:#000000;stroke-width:0.8;" x="325.72194" xlink:href="#ma298099bb9" y="246.616"/>
      </g>
     </g>
     <g id="text_5">
      <!-- 4 -->
      <g transform="translate(322.54069 261.214438)scale(0.1 -0.1)">
       <defs>
        <path d="M 2419 4116 
L 825 1625 
L 2419 1625 
L 2419 4116 
z
M 2253 4666 
L 3047 4666 
L 3047 1625 
L 3713 1625 
L 3713 1100 
L 3047 1100 
L 3047 0 
L 2419 0 
L 2419 1100 
L 313 1100 
L 313 1709 
L 2253 4666 
z
" id="DejaVuSans-34" transform="scale(0.015625)"/>
       </defs>
       <use xlink:href="#DejaVuSans-34"/>
      </g>
     </g>
    </g>
    <g id="text_6">
     <!-- X -->
     <g transform="translate(198.857942 274.892562)scale(0.1 -0.1)">
      <defs>
       <path d="M 403 4666 
L 1081 4666 
L 2241 2931 
L 3406 4666 
L 4084 4666 
L 2584 2425 
L 4184 0 
L 3506 0 
L 2194 1984 
L 872 0 
L 191 0 
L 1856 2491 
L 403 4666 
z
" id="DejaVuSans-58" transform="scale(0.015625)"/>
      </defs>
      <use xlink:href="#DejaVuSans-58"/>
     </g>
    </g>
   </g>
   <g id="matplotlib.axis_2">
    <g id="ytick_1">
     <g id="line2d_6">
      <defs>
       <path d="M 0 0 
L -3.5 0 
" id="m4c44422745" style="stroke:#000000;stroke-width:0.8;"/>
      </defs>
      <g>
       <use style="stroke:#000000;stroke-width:0.8;" x="46.388" xlink:href="#m4c44422745" y="233.499194"/>
      </g>
     </g>
     <g id="text_7">
      <!-- −2 -->
      <g transform="translate(24.645812 237.298413)scale(0.1 -0.1)">
       <defs>
        <path d="M 678 2272 
L 4684 2272 
L 4684 1741 
L 678 1741 
L 678 2272 
z
" id="DejaVuSans-2212" transform="scale(0.015625)"/>
       </defs>
       <use xlink:href="#DejaVuSans-2212"/>
       <use x="83.789062" xlink:href="#DejaVuSans-32"/>
      </g>
     </g>
    </g>
    <g id="ytick_2">
     <g id="line2d_7">
      <g>
       <use style="stroke:#000000;stroke-width:0.8;" x="46.388" xlink:href="#m4c44422745" y="206.41623"/>
      </g>
     </g>
     <g id="text_8">
      <!-- −1 -->
      <g transform="translate(24.645812 210.215449)scale(0.1 -0.1)">
       <use xlink:href="#DejaVuSans-2212"/>
       <use x="83.789062" xlink:href="#DejaVuSans-31"/>
      </g>
     </g>
    </g>
    <g id="ytick_3">
     <g id="line2d_8">
      <g>
       <use style="stroke:#000000;stroke-width:0.8;" x="46.388" xlink:href="#m4c44422745" y="179.333266"/>
      </g>
     </g>
     <g id="text_9">
      <!-- 0 -->
      <g transform="translate(33.0255 183.132484)scale(0.1 -0.1)">
       <use xlink:href="#DejaVuSans-30"/>
      </g>
     </g>
    </g>
    <g id="ytick_4">
     <g id="line2d_9">
      <g>
       <use style="stroke:#000000;stroke-width:0.8;" x="46.388" xlink:href="#m4c44422745" y="152.250301"/>
      </g>
     </g>
     <g id="text_10">
      <!-- 1 -->
      <g transform="translate(33.0255 156.04952)scale(0.1 -0.1)">
       <use xlink:href="#DejaVuSans-31"/>
      </g>
     </g>
    </g>
    <g id="ytick_5">
     <g id="line2d_10">
      <g>
       <use style="stroke:#000000;stroke-width:0.8;" x="46.388" xlink:href="#m4c44422745" y="125.167337"/>
      </g>
     </g>
     <g id="text_11">
      <!-- 2 -->
      <g transform="translate(33.0255 128.966556)scale(0.1 -0.1)">
       <use xlink:href="#DejaVuSans-32"/>
      </g>
     </g>
    </g>
    <g id="ytick_6">
     <g id="line2d_11">
      <g>
       <use style="stroke:#000000;stroke-width:0.8;" x="46.388" xlink:href="#m4c44422745" y="98.084373"/>
      </g>
     </g>
     <g id="text_12">
      <!-- 3 -->
      <g transform="translate(33.0255 101.883591)scale(0.1 -0.1)">
       <use xlink:href="#DejaVuSans-33"/>
      </g>
     </g>
    </g>
    <g id="ytick_7">
     <g id="line2d_12">
      <g>
       <use style="stroke:#000000;stroke-width:0.8;" x="46.388" xlink:href="#m4c44422745" y="71.001408"/>
      </g>
     </g>
     <g id="text_13">
      <!-- 4 -->
      <g transform="translate(33.0255 74.800627)scale(0.1 -0.1)">
       <use xlink:href="#DejaVuSans-34"/>
      </g>
     </g>
    </g>
    <g id="ytick_8">
     <g id="line2d_13">
      <g>
       <use style="stroke:#000000;stroke-width:0.8;" x="46.388" xlink:href="#m4c44422745" y="43.918444"/>
      </g>
     </g>
     <g id="text_14">
      <!-- 5 -->
      <g transform="translate(33.0255 47.717663)scale(0.1 -0.1)">
       <defs>
        <path d="M 691 4666 
L 3169 4666 
L 3169 4134 
L 1269 4134 
L 1269 2991 
Q 1406 3038 1543 3061 
Q 1681 3084 1819 3084 
Q 2600 3084 3056 2656 
Q 3513 2228 3513 1497 
Q 3513 744 3044 326 
Q 2575 -91 1722 -91 
Q 1428 -91 1123 -41 
Q 819 9 494 109 
L 494 744 
Q 775 591 1075 516 
Q 1375 441 1709 441 
Q 2250 441 2565 725 
Q 2881 1009 2881 1497 
Q 2881 1984 2565 2268 
Q 2250 2553 1709 2553 
Q 1456 2553 1204 2497 
Q 953 2441 691 2322 
L 691 4666 
z
" id="DejaVuSans-35" transform="scale(0.015625)"/>
       </defs>
       <use xlink:href="#DejaVuSans-35"/>
      </g>
     </g>
    </g>
    <g id="ytick_9">
     <g id="line2d_14">
      <g>
       <use style="stroke:#000000;stroke-width:0.8;" x="46.388" xlink:href="#m4c44422745" y="16.83548"/>
      </g>
     </g>
     <g id="text_15">
      <!-- 6 -->
      <g transform="translate(33.0255 20.634698)scale(0.1 -0.1)">
       <defs>
        <path d="M 2113 2584 
Q 1688 2584 1439 2293 
Q 1191 2003 1191 1497 
Q 1191 994 1439 701 
Q 1688 409 2113 409 
Q 2538 409 2786 701 
Q 3034 994 3034 1497 
Q 3034 2003 2786 2293 
Q 2538 2584 2113 2584 
z
M 3366 4563 
L 3366 3988 
Q 3128 4100 2886 4159 
Q 2644 4219 2406 4219 
Q 1781 4219 1451 3797 
Q 1122 3375 1075 2522 
Q 1259 2794 1537 2939 
Q 1816 3084 2150 3084 
Q 2853 3084 3261 2657 
Q 3669 2231 3669 1497 
Q 3669 778 3244 343 
Q 2819 -91 2113 -91 
Q 1303 -91 875 529 
Q 447 1150 447 2328 
Q 447 3434 972 4092 
Q 1497 4750 2381 4750 
Q 2619 4750 2861 4703 
Q 3103 4656 3366 4563 
z
" id="DejaVuSans-36" transform="scale(0.015625)"/>
       </defs>
       <use xlink:href="#DejaVuSans-36"/>
      </g>
     </g>
    </g>
    <g id="text_16">
     <!-- Y -->
     <g transform="translate(18.566125 131.761906)rotate(-90)scale(0.1 -0.1)">
      <defs>
       <path d="M -13 4666 
L 666 4666 
L 1959 2747 
L 3244 4666 
L 3922 4666 
L 2272 2222 
L 2272 0 
L 1638 0 
L 1638 2222 
L -13 4666 
z
" id="DejaVuSans-59" transform="scale(0.015625)"/>
      </defs>
      <use xlink:href="#DejaVuSans-59"/>
     </g>
    </g>
   </g>
   <g id="line2d_15">
    <defs>
     <path d="M 0 2 
C 0.530406 2 1.03916 1.789267 1.414214 1.414214 
C 1.789267 1.03916 2 0.530406 2 0 
C 2 -0.530406 1.789267 -1.03916 1.414214 -1.414214 
C 1.03916 -1.789267 0.530406 -2 0 -2 
C -0.530406 -2 -1.03916 -1.789267 -1.414214 -1.414214 
C -1.789267 -1.03916 -2 -0.530406 -2 0 
C -2 0.530406 -1.789267 1.03916 -1.414214 1.414214 
C -1.03916 1.789267 -0.530406 2 0 2 
z
" id="m5a9d7431a0"/>
    </defs>
    <g clip-path="url(#p7dbf5328f3)">
     <use style="fill-opacity:0.5;" x="266.583596" xlink:href="#m5a9d7431a0" y="68.01325"/>
     <use style="fill-opacity:0.5;" x="122.883259" xlink:href="#m5a9d7431a0" y="144.415564"/>
     <use style="fill-opacity:0.5;" x="278.97435" xlink:href="#m5a9d7431a0" y="99.495531"/>
     <use style="fill-opacity:0.5;" x="316.61012" xlink:href="#m5a9d7431a0" y="51.858117"/>
     <use style="fill-opacity:0.5;" x="318.432951" xlink:href="#m5a9d7431a0" y="53.876711"/>
     <use style="fill-opacity:0.5;" x="180.321773" xlink:href="#m5a9d7431a0" y="139.743384"/>
     <use style="fill-opacity:0.5;" x="221.714598" xlink:href="#m5a9d7431a0" y="118.513755"/>
     <use style="fill-opacity:0.5;" x="266.004737" xlink:href="#m5a9d7431a0" y="77.111916"/>
     <use style="fill-opacity:0.5;" x="230.379506" xlink:href="#m5a9d7431a0" y="131.484"/>
     <use style="fill-opacity:0.5;" x="251.769804" xlink:href="#m5a9d7431a0" y="123.992465"/>
     <use style="fill-opacity:0.5;" x="69.010464" xlink:href="#m5a9d7431a0" y="143.788946"/>
     <use style="fill-opacity:0.5;" x="139.086823" xlink:href="#m5a9d7431a0" y="115.881643"/>
     <use style="fill-opacity:0.5;" x="75.25583" xlink:href="#m5a9d7431a0" y="178.243311"/>
     <use style="fill-opacity:0.5;" x="287.695531" xlink:href="#m5a9d7431a0" y="44.057001"/>
     <use style="fill-opacity:0.5;" x="158.88084" xlink:href="#m5a9d7431a0" y="115.706681"/>
     <use style="fill-opacity:0.5;" x="240.551147" xlink:href="#m5a9d7431a0" y="94.58641"/>
     <use style="fill-opacity:0.5;" x="127.868367" xlink:href="#m5a9d7431a0" y="165.355236"/>
     <use style="fill-opacity:0.5;" x="152.157455" xlink:href="#m5a9d7431a0" y="120.774158"/>
     <use style="fill-opacity:0.5;" x="62.193717" xlink:href="#m5a9d7431a0" y="192.771629"/>
     <use style="fill-opacity:0.5;" x="155.017985" xlink:href="#m5a9d7431a0" y="142.441288"/>
     <use style="fill-opacity:0.5;" x="312.179347" xlink:href="#m5a9d7431a0" y="93.285488"/>
     <use style="fill-opacity:0.5;" x="117.657796" xlink:href="#m5a9d7431a0" y="122.887199"/>
     <use style="fill-opacity:0.5;" x="144.658044" xlink:href="#m5a9d7431a0" y="140.924766"/>
     <use style="fill-opacity:0.5;" x="303.846737" xlink:href="#m5a9d7431a0" y="79.370539"/>
     <use style="fill-opacity:0.5;" x="68.177023" xlink:href="#m5a9d7431a0" y="157.479072"/>
     <use style="fill-opacity:0.5;" x="77.004207" xlink:href="#m5a9d7431a0" y="104.853877"/>
     <use style="fill-opacity:0.5;" x="227.244489" xlink:href="#m5a9d7431a0" y="82.597039"/>
     <use style="fill-opacity:0.5;" x="292.152237" xlink:href="#m5a9d7431a0" y="126.219315"/>
     <use style="fill-opacity:0.5;" x="62.008283" xlink:href="#m5a9d7431a0" y="177.978092"/>
     <use style="fill-opacity:0.5;" x="258.303294" xlink:href="#m5a9d7431a0" y="95.285039"/>
     <use style="fill-opacity:0.5;" x="275.931642" xlink:href="#m5a9d7431a0" y="106.380425"/>
     <use style="fill-opacity:0.5;" x="79.832904" xlink:href="#m5a9d7431a0" y="197.050826"/>
     <use style="fill-opacity:0.5;" x="234.327955" xlink:href="#m5a9d7431a0" y="61.712025"/>
     <use style="fill-opacity:0.5;" x="195.169823" xlink:href="#m5a9d7431a0" y="103.097505"/>
     <use style="fill-opacity:0.5;" x="187.35411" xlink:href="#m5a9d7431a0" y="101.716697"/>
     <use style="fill-opacity:0.5;" x="313.903227" xlink:href="#m5a9d7431a0" y="65.182782"/>
     <use style="fill-opacity:0.5;" x="59.692818" xlink:href="#m5a9d7431a0" y="155.975576"/>
     <use style="fill-opacity:0.5;" x="125.393934" xlink:href="#m5a9d7431a0" y="138.406573"/>
     <use style="fill-opacity:0.5;" x="249.166531" xlink:href="#m5a9d7431a0" y="96.716678"/>
     <use style="fill-opacity:0.5;" x="146.038933" xlink:href="#m5a9d7431a0" y="148.640341"/>
     <use style="fill-opacity:0.5;" x="133.379601" xlink:href="#m5a9d7431a0" y="175.397445"/>
     <use style="fill-opacity:0.5;" x="244.700586" xlink:href="#m5a9d7431a0" y="122.989494"/>
     <use style="fill-opacity:0.5;" x="304.054073" xlink:href="#m5a9d7431a0" y="80.655429"/>
     <use style="fill-opacity:0.5;" x="124.728055" xlink:href="#m5a9d7431a0" y="176.721378"/>
     <use style="fill-opacity:0.5;" x="181.555251" xlink:href="#m5a9d7431a0" y="120.141983"/>
     <use style="fill-opacity:0.5;" x="126.993848" xlink:href="#m5a9d7431a0" y="176.064976"/>
     <use style="fill-opacity:0.5;" x="160.604533" xlink:href="#m5a9d7431a0" y="116.817578"/>
     <use style="fill-opacity:0.5;" x="220.516486" xlink:href="#m5a9d7431a0" y="151.535603"/>
     <use style="fill-opacity:0.5;" x="265.167333" xlink:href="#m5a9d7431a0" y="86.714475"/>
     <use style="fill-opacity:0.5;" x="77.757866" xlink:href="#m5a9d7431a0" y="137.322748"/>
     <use style="fill-opacity:0.5;" x="242.210424" xlink:href="#m5a9d7431a0" y="81.521705"/>
     <use style="fill-opacity:0.5;" x="205.544524" xlink:href="#m5a9d7431a0" y="134.048346"/>
     <use style="fill-opacity:0.5;" x="96.398367" xlink:href="#m5a9d7431a0" y="128.624504"/>
     <use style="fill-opacity:0.5;" x="85.961165" xlink:href="#m5a9d7431a0" y="167.53381"/>
     <use style="fill-opacity:0.5;" x="125.016276" xlink:href="#m5a9d7431a0" y="142.844707"/>
     <use style="fill-opacity:0.5;" x="100.069775" xlink:href="#m5a9d7431a0" y="164.114244"/>
     <use style="fill-opacity:0.5;" x="306.03408" xlink:href="#m5a9d7431a0" y="126.102781"/>
     <use style="fill-opacity:0.5;" x="240.619534" xlink:href="#m5a9d7431a0" y="90.205575"/>
     <use style="fill-opacity:0.5;" x="122.914572" xlink:href="#m5a9d7431a0" y="141.806793"/>
     <use style="fill-opacity:0.5;" x="211.031482" xlink:href="#m5a9d7431a0" y="97.151758"/>
     <use style="fill-opacity:0.5;" x="207.771735" xlink:href="#m5a9d7431a0" y="145.406705"/>
     <use style="fill-opacity:0.5;" x="79.040065" xlink:href="#m5a9d7431a0" y="149.654834"/>
     <use style="fill-opacity:0.5;" x="283.079223" xlink:href="#m5a9d7431a0" y="105.824281"/>
     <use style="fill-opacity:0.5;" x="167.517703" xlink:href="#m5a9d7431a0" y="167.11794"/>
     <use style="fill-opacity:0.5;" x="98.229982" xlink:href="#m5a9d7431a0" y="191.42383"/>
     <use style="fill-opacity:0.5;" x="110.480523" xlink:href="#m5a9d7431a0" y="153.07643"/>
     <use style="fill-opacity:0.5;" x="190.215752" xlink:href="#m5a9d7431a0" y="137.132513"/>
     <use style="fill-opacity:0.5;" x="249.111115" xlink:href="#m5a9d7431a0" y="60.44162"/>
     <use style="fill-opacity:0.5;" x="321.715083" xlink:href="#m5a9d7431a0" y="50.962542"/>
     <use style="fill-opacity:0.5;" x="292.411102" xlink:href="#m5a9d7431a0" y="53.49349"/>
     <use style="fill-opacity:0.5;" x="192.450835" xlink:href="#m5a9d7431a0" y="129.665325"/>
     <use style="fill-opacity:0.5;" x="88.096546" xlink:href="#m5a9d7431a0" y="196.872921"/>
     <use style="fill-opacity:0.5;" x="302.633742" xlink:href="#m5a9d7431a0" y="123.746372"/>
     <use style="fill-opacity:0.5;" x="156.769057" xlink:href="#m5a9d7431a0" y="145.815196"/>
     <use style="fill-opacity:0.5;" x="119.969316" xlink:href="#m5a9d7431a0" y="120.254241"/>
     <use style="fill-opacity:0.5;" x="291.784692" xlink:href="#m5a9d7431a0" y="50.784774"/>
     <use style="fill-opacity:0.5;" x="95.965345" xlink:href="#m5a9d7431a0" y="209.236274"/>
     <use style="fill-opacity:0.5;" x="122.57438" xlink:href="#m5a9d7431a0" y="146.265181"/>
     <use style="fill-opacity:0.5;" x="218.085061" xlink:href="#m5a9d7431a0" y="95.643615"/>
     <use style="fill-opacity:0.5;" x="209.711259" xlink:href="#m5a9d7431a0" y="144.850421"/>
     <use style="fill-opacity:0.5;" x="314.797252" xlink:href="#m5a9d7431a0" y="74.977571"/>
     <use style="fill-opacity:0.5;" x="180.265929" xlink:href="#m5a9d7431a0" y="149.734322"/>
     <use style="fill-opacity:0.5;" x="93.996633" xlink:href="#m5a9d7431a0" y="161.125144"/>
     <use style="fill-opacity:0.5;" x="262.025203" xlink:href="#m5a9d7431a0" y="91.407731"/>
     <use style="fill-opacity:0.5;" x="113.330798" xlink:href="#m5a9d7431a0" y="166.256059"/>
     <use style="fill-opacity:0.5;" x="106.43944" xlink:href="#m5a9d7431a0" y="163.314764"/>
     <use style="fill-opacity:0.5;" x="175.977137" xlink:href="#m5a9d7431a0" y="150.341093"/>
     <use style="fill-opacity:0.5;" x="150.209988" xlink:href="#m5a9d7431a0" y="139.476296"/>
     <use style="fill-opacity:0.5;" x="317.010209" xlink:href="#m5a9d7431a0" y="161.496923"/>
     <use style="fill-opacity:0.5;" x="97.739176" xlink:href="#m5a9d7431a0" y="150.899663"/>
     <use style="fill-opacity:0.5;" x="284.369486" xlink:href="#m5a9d7431a0" y="59.755724"/>
     <use style="fill-opacity:0.5;" x="237.773287" xlink:href="#m5a9d7431a0" y="142.536725"/>
     <use style="fill-opacity:0.5;" x="88.768255" xlink:href="#m5a9d7431a0" y="172.752151"/>
     <use style="fill-opacity:0.5;" x="83.167911" xlink:href="#m5a9d7431a0" y="153.85354"/>
     <use style="fill-opacity:0.5;" x="316.799759" xlink:href="#m5a9d7431a0" y="93.777394"/>
     <use style="fill-opacity:0.5;" x="111.379028" xlink:href="#m5a9d7431a0" y="176.867542"/>
     <use style="fill-opacity:0.5;" x="81.47768" xlink:href="#m5a9d7431a0" y="172.203483"/>
     <use style="fill-opacity:0.5;" x="131.354653" xlink:href="#m5a9d7431a0" y="130.143745"/>
     <use style="fill-opacity:0.5;" x="232.645349" xlink:href="#m5a9d7431a0" y="146.346903"/>
     <use style="fill-opacity:0.5;" x="205.150038" xlink:href="#m5a9d7431a0" y="113.801928"/>
     <use style="fill-opacity:0.5;" x="245.040946" xlink:href="#m5a9d7431a0" y="89.448267"/>
     <use style="fill-opacity:0.5;" x="315.904836" xlink:href="#m5a9d7431a0" y="112.112588"/>
     <use style="fill-opacity:0.5;" x="133.57252" xlink:href="#m5a9d7431a0" y="145.21999"/>
     <use style="fill-opacity:0.5;" x="121.841807" xlink:href="#m5a9d7431a0" y="114.861486"/>
     <use style="fill-opacity:0.5;" x="284.665718" xlink:href="#m5a9d7431a0" y="87.859178"/>
     <use style="fill-opacity:0.5;" x="119.337381" xlink:href="#m5a9d7431a0" y="159.365348"/>
     <use style="fill-opacity:0.5;" x="242.96096" xlink:href="#m5a9d7431a0" y="65.796175"/>
     <use style="fill-opacity:0.5;" x="100.524151" xlink:href="#m5a9d7431a0" y="178.399709"/>
     <use style="fill-opacity:0.5;" x="113.853302" xlink:href="#m5a9d7431a0" y="161.675395"/>
     <use style="fill-opacity:0.5;" x="77.673107" xlink:href="#m5a9d7431a0" y="135.742499"/>
     <use style="fill-opacity:0.5;" x="259.077038" xlink:href="#m5a9d7431a0" y="50.40056"/>
     <use style="fill-opacity:0.5;" x="107.596556" xlink:href="#m5a9d7431a0" y="188.914221"/>
     <use style="fill-opacity:0.5;" x="92.746982" xlink:href="#m5a9d7431a0" y="171.061826"/>
     <use style="fill-opacity:0.5;" x="119.495618" xlink:href="#m5a9d7431a0" y="141.875957"/>
     <use style="fill-opacity:0.5;" x="134.034891" xlink:href="#m5a9d7431a0" y="114.524706"/>
     <use style="fill-opacity:0.5;" x="68.68729" xlink:href="#m5a9d7431a0" y="163.184193"/>
     <use style="fill-opacity:0.5;" x="127.368023" xlink:href="#m5a9d7431a0" y="167.906661"/>
     <use style="fill-opacity:0.5;" x="237.626588" xlink:href="#m5a9d7431a0" y="85.320285"/>
     <use style="fill-opacity:0.5;" x="261.852655" xlink:href="#m5a9d7431a0" y="157.487511"/>
     <use style="fill-opacity:0.5;" x="119.816756" xlink:href="#m5a9d7431a0" y="151.002198"/>
     <use style="fill-opacity:0.5;" x="222.461385" xlink:href="#m5a9d7431a0" y="92.953608"/>
     <use style="fill-opacity:0.5;" x="302.379223" xlink:href="#m5a9d7431a0" y="50.405749"/>
     <use style="fill-opacity:0.5;" x="203.77555" xlink:href="#m5a9d7431a0" y="108.478551"/>
     <use style="fill-opacity:0.5;" x="159.171098" xlink:href="#m5a9d7431a0" y="177.562482"/>
     <use style="fill-opacity:0.5;" x="63.201409" xlink:href="#m5a9d7431a0" y="152.376446"/>
     <use style="fill-opacity:0.5;" x="280.31493" xlink:href="#m5a9d7431a0" y="103.985096"/>
     <use style="fill-opacity:0.5;" x="276.921377" xlink:href="#m5a9d7431a0" y="103.30383"/>
     <use style="fill-opacity:0.5;" x="80.897744" xlink:href="#m5a9d7431a0" y="139.510225"/>
     <use style="fill-opacity:0.5;" x="105.360795" xlink:href="#m5a9d7431a0" y="214.289695"/>
     <use style="fill-opacity:0.5;" x="282.664351" xlink:href="#m5a9d7431a0" y="27.90578"/>
     <use style="fill-opacity:0.5;" x="209.774486" xlink:href="#m5a9d7431a0" y="93.839765"/>
     <use style="fill-opacity:0.5;" x="152.742991" xlink:href="#m5a9d7431a0" y="117.363077"/>
     <use style="fill-opacity:0.5;" x="98.265091" xlink:href="#m5a9d7431a0" y="167.749468"/>
     <use style="fill-opacity:0.5;" x="85.898875" xlink:href="#m5a9d7431a0" y="149.577126"/>
     <use style="fill-opacity:0.5;" x="208.715981" xlink:href="#m5a9d7431a0" y="102.047132"/>
     <use style="fill-opacity:0.5;" x="248.590095" xlink:href="#m5a9d7431a0" y="95.91972"/>
     <use style="fill-opacity:0.5;" x="312.652047" xlink:href="#m5a9d7431a0" y="117.273664"/>
     <use style="fill-opacity:0.5;" x="258.695451" xlink:href="#m5a9d7431a0" y="86.251743"/>
     <use style="fill-opacity:0.5;" x="158.719088" xlink:href="#m5a9d7431a0" y="132.149201"/>
     <use style="fill-opacity:0.5;" x="261.469097" xlink:href="#m5a9d7431a0" y="71.686708"/>
     <use style="fill-opacity:0.5;" x="78.597468" xlink:href="#m5a9d7431a0" y="160.331956"/>
     <use style="fill-opacity:0.5;" x="225.120585" xlink:href="#m5a9d7431a0" y="104.667157"/>
     <use style="fill-opacity:0.5;" x="251.422845" xlink:href="#m5a9d7431a0" y="96.68751"/>
     <use style="fill-opacity:0.5;" x="70.81206" xlink:href="#m5a9d7431a0" y="215.129245"/>
     <use style="fill-opacity:0.5;" x="164.836716" xlink:href="#m5a9d7431a0" y="186.762106"/>
     <use style="fill-opacity:0.5;" x="102.610958" xlink:href="#m5a9d7431a0" y="164.842971"/>
     <use style="fill-opacity:0.5;" x="133.136641" xlink:href="#m5a9d7431a0" y="168.507458"/>
     <use style="fill-opacity:0.5;" x="119.946822" xlink:href="#m5a9d7431a0" y="142.464365"/>
     <use style="fill-opacity:0.5;" x="140.74539" xlink:href="#m5a9d7431a0" y="179.385703"/>
     <use style="fill-opacity:0.5;" x="95.932099" xlink:href="#m5a9d7431a0" y="179.877985"/>
     <use style="fill-opacity:0.5;" x="244.382573" xlink:href="#m5a9d7431a0" y="84.998181"/>
     <use style="fill-opacity:0.5;" x="73.753735" xlink:href="#m5a9d7431a0" y="173.469568"/>
     <use style="fill-opacity:0.5;" x="214.370999" xlink:href="#m5a9d7431a0" y="139.995422"/>
     <use style="fill-opacity:0.5;" x="107.503108" xlink:href="#m5a9d7431a0" y="144.804366"/>
     <use style="fill-opacity:0.5;" x="194.485894" xlink:href="#m5a9d7431a0" y="117.200954"/>
     <use style="fill-opacity:0.5;" x="134.582727" xlink:href="#m5a9d7431a0" y="176.783661"/>
     <use style="fill-opacity:0.5;" x="158.142028" xlink:href="#m5a9d7431a0" y="156.464294"/>
     <use style="fill-opacity:0.5;" x="193.910616" xlink:href="#m5a9d7431a0" y="119.266101"/>
     <use style="fill-opacity:0.5;" x="92.233673" xlink:href="#m5a9d7431a0" y="171.403152"/>
     <use style="fill-opacity:0.5;" x="94.450517" xlink:href="#m5a9d7431a0" y="172.352201"/>
     <use style="fill-opacity:0.5;" x="284.331103" xlink:href="#m5a9d7431a0" y="102.377339"/>
     <use style="fill-opacity:0.5;" x="164.027107" xlink:href="#m5a9d7431a0" y="209.805992"/>
     <use style="fill-opacity:0.5;" x="104.798717" xlink:href="#m5a9d7431a0" y="147.928135"/>
     <use style="fill-opacity:0.5;" x="272.829146" xlink:href="#m5a9d7431a0" y="84.196035"/>
     <use style="fill-opacity:0.5;" x="301.813251" xlink:href="#m5a9d7431a0" y="84.462014"/>
     <use style="fill-opacity:0.5;" x="280.384041" xlink:href="#m5a9d7431a0" y="138.222837"/>
     <use style="fill-opacity:0.5;" x="249.650244" xlink:href="#m5a9d7431a0" y="113.353263"/>
     <use style="fill-opacity:0.5;" x="86.124624" xlink:href="#m5a9d7431a0" y="169.341361"/>
     <use style="fill-opacity:0.5;" x="302.657269" xlink:href="#m5a9d7431a0" y="86.671834"/>
     <use style="fill-opacity:0.5;" x="213.450805" xlink:href="#m5a9d7431a0" y="119.876886"/>
     <use style="fill-opacity:0.5;" x="299.191987" xlink:href="#m5a9d7431a0" y="142.363719"/>
     <use style="fill-opacity:0.5;" x="209.617499" xlink:href="#m5a9d7431a0" y="102.48242"/>
     <use style="fill-opacity:0.5;" x="62.308822" xlink:href="#m5a9d7431a0" y="163.57299"/>
     <use style="fill-opacity:0.5;" x="324.189425" xlink:href="#m5a9d7431a0" y="54.667002"/>
     <use style="fill-opacity:0.5;" x="94.91172" xlink:href="#m5a9d7431a0" y="130.943671"/>
     <use style="fill-opacity:0.5;" x="243.95325" xlink:href="#m5a9d7431a0" y="99.356537"/>
     <use style="fill-opacity:0.5;" x="148.621097" xlink:href="#m5a9d7431a0" y="107.596694"/>
     <use style="fill-opacity:0.5;" x="107.629641" xlink:href="#m5a9d7431a0" y="193.796797"/>
     <use style="fill-opacity:0.5;" x="97.09314" xlink:href="#m5a9d7431a0" y="146.902024"/>
     <use style="fill-opacity:0.5;" x="237.73106" xlink:href="#m5a9d7431a0" y="114.114478"/>
     <use style="fill-opacity:0.5;" x="140.524675" xlink:href="#m5a9d7431a0" y="109.546207"/>
     <use style="fill-opacity:0.5;" x="222.941558" xlink:href="#m5a9d7431a0" y="127.009429"/>
     <use style="fill-opacity:0.5;" x="308.589295" xlink:href="#m5a9d7431a0" y="93.340572"/>
     <use style="fill-opacity:0.5;" x="113.668876" xlink:href="#m5a9d7431a0" y="175.898346"/>
     <use style="fill-opacity:0.5;" x="91.509781" xlink:href="#m5a9d7431a0" y="154.44891"/>
     <use style="fill-opacity:0.5;" x="164.02501" xlink:href="#m5a9d7431a0" y="159.55505"/>
     <use style="fill-opacity:0.5;" x="244.459501" xlink:href="#m5a9d7431a0" y="82.42951"/>
     <use style="fill-opacity:0.5;" x="311.081392" xlink:href="#m5a9d7431a0" y="58.573176"/>
     <use style="fill-opacity:0.5;" x="103.154641" xlink:href="#m5a9d7431a0" y="161.667335"/>
     <use style="fill-opacity:0.5;" x="181.722183" xlink:href="#m5a9d7431a0" y="127.436973"/>
     <use style="fill-opacity:0.5;" x="133.876335" xlink:href="#m5a9d7431a0" y="167.733443"/>
     <use style="fill-opacity:0.5;" x="114.119849" xlink:href="#m5a9d7431a0" y="107.425977"/>
     <use style="fill-opacity:0.5;" x="141.716967" xlink:href="#m5a9d7431a0" y="125.425833"/>
     <use style="fill-opacity:0.5;" x="271.347479" xlink:href="#m5a9d7431a0" y="125.875125"/>
     <use style="fill-opacity:0.5;" x="84.389662" xlink:href="#m5a9d7431a0" y="143.854918"/>
     <use style="fill-opacity:0.5;" x="290.876808" xlink:href="#m5a9d7431a0" y="116.246532"/>
     <use style="fill-opacity:0.5;" x="281.484857" xlink:href="#m5a9d7431a0" y="82.764035"/>
     <use style="fill-opacity:0.5;" x="241.06874" xlink:href="#m5a9d7431a0" y="90.665479"/>
     <use style="fill-opacity:0.5;" x="138.385771" xlink:href="#m5a9d7431a0" y="158.326624"/>
     <use style="fill-opacity:0.5;" x="103.882852" xlink:href="#m5a9d7431a0" y="179.436958"/>
     <use style="fill-opacity:0.5;" x="304.157704" xlink:href="#m5a9d7431a0" y="72.70209"/>
     <use style="fill-opacity:0.5;" x="78.691011" xlink:href="#m5a9d7431a0" y="158.895508"/>
     <use style="fill-opacity:0.5;" x="185.91346" xlink:href="#m5a9d7431a0" y="124.90998"/>
     <use style="fill-opacity:0.5;" x="155.522286" xlink:href="#m5a9d7431a0" y="132.644722"/>
     <use style="fill-opacity:0.5;" x="102.183247" xlink:href="#m5a9d7431a0" y="201.831363"/>
     <use style="fill-opacity:0.5;" x="317.186495" xlink:href="#m5a9d7431a0" y="78.441269"/>
     <use style="fill-opacity:0.5;" x="117.937787" xlink:href="#m5a9d7431a0" y="184.960714"/>
     <use style="fill-opacity:0.5;" x="249.046212" xlink:href="#m5a9d7431a0" y="102.228818"/>
     <use style="fill-opacity:0.5;" x="293.552113" xlink:href="#m5a9d7431a0" y="115.320615"/>
     <use style="fill-opacity:0.5;" x="237.639647" xlink:href="#m5a9d7431a0" y="131.608509"/>
     <use style="fill-opacity:0.5;" x="97.870721" xlink:href="#m5a9d7431a0" y="192.294783"/>
     <use style="fill-opacity:0.5;" x="270.623449" xlink:href="#m5a9d7431a0" y="108.567068"/>
     <use style="fill-opacity:0.5;" x="117.02296" xlink:href="#m5a9d7431a0" y="167.884816"/>
     <use style="fill-opacity:0.5;" x="314.003225" xlink:href="#m5a9d7431a0" y="83.499894"/>
     <use style="fill-opacity:0.5;" x="81.732525" xlink:href="#m5a9d7431a0" y="159.200435"/>
     <use style="fill-opacity:0.5;" x="230.22434" xlink:href="#m5a9d7431a0" y="139.990226"/>
     <use style="fill-opacity:0.5;" x="222.886147" xlink:href="#m5a9d7431a0" y="74.568546"/>
     <use style="fill-opacity:0.5;" x="187.404237" xlink:href="#m5a9d7431a0" y="142.120664"/>
     <use style="fill-opacity:0.5;" x="103.63632" xlink:href="#m5a9d7431a0" y="187.325367"/>
     <use style="fill-opacity:0.5;" x="126.725813" xlink:href="#m5a9d7431a0" y="149.317327"/>
     <use style="fill-opacity:0.5;" x="254.004237" xlink:href="#m5a9d7431a0" y="116.93465"/>
     <use style="fill-opacity:0.5;" x="314.734987" xlink:href="#m5a9d7431a0" y="93.85986"/>
     <use style="fill-opacity:0.5;" x="305.982899" xlink:href="#m5a9d7431a0" y="79.436025"/>
     <use style="fill-opacity:0.5;" x="255.861825" xlink:href="#m5a9d7431a0" y="139.020036"/>
     <use style="fill-opacity:0.5;" x="121.856545" xlink:href="#m5a9d7431a0" y="132.428354"/>
     <use style="fill-opacity:0.5;" x="263.072067" xlink:href="#m5a9d7431a0" y="139.074242"/>
     <use style="fill-opacity:0.5;" x="138.784277" xlink:href="#m5a9d7431a0" y="171.234539"/>
     <use style="fill-opacity:0.5;" x="134.539924" xlink:href="#m5a9d7431a0" y="125.64828"/>
     <use style="fill-opacity:0.5;" x="263.843222" xlink:href="#m5a9d7431a0" y="71.516494"/>
     <use style="fill-opacity:0.5;" x="242.131285" xlink:href="#m5a9d7431a0" y="101.214088"/>
     <use style="fill-opacity:0.5;" x="132.341437" xlink:href="#m5a9d7431a0" y="193.511424"/>
     <use style="fill-opacity:0.5;" x="103.194701" xlink:href="#m5a9d7431a0" y="177.535853"/>
     <use style="fill-opacity:0.5;" x="87.068696" xlink:href="#m5a9d7431a0" y="189.99439"/>
     <use style="fill-opacity:0.5;" x="189.88093" xlink:href="#m5a9d7431a0" y="149.180651"/>
     <use style="fill-opacity:0.5;" x="281.317066" xlink:href="#m5a9d7431a0" y="103.331147"/>
     <use style="fill-opacity:0.5;" x="145.686341" xlink:href="#m5a9d7431a0" y="139.727762"/>
     <use style="fill-opacity:0.5;" x="218.228937" xlink:href="#m5a9d7431a0" y="97.184754"/>
     <use style="fill-opacity:0.5;" x="108.012095" xlink:href="#m5a9d7431a0" y="158.734055"/>
     <use style="fill-opacity:0.5;" x="145.2827" xlink:href="#m5a9d7431a0" y="173.049601"/>
     <use style="fill-opacity:0.5;" x="244.665541" xlink:href="#m5a9d7431a0" y="108.401071"/>
     <use style="fill-opacity:0.5;" x="193.121526" xlink:href="#m5a9d7431a0" y="123.530574"/>
     <use style="fill-opacity:0.5;" x="291.308309" xlink:href="#m5a9d7431a0" y="66.58058"/>
     <use style="fill-opacity:0.5;" x="280.007105" xlink:href="#m5a9d7431a0" y="111.173225"/>
     <use style="fill-opacity:0.5;" x="138.901736" xlink:href="#m5a9d7431a0" y="164.761268"/>
     <use style="fill-opacity:0.5;" x="67.429586" xlink:href="#m5a9d7431a0" y="198.505163"/>
     <use style="fill-opacity:0.5;" x="230.796363" xlink:href="#m5a9d7431a0" y="144.651193"/>
     <use style="fill-opacity:0.5;" x="290.921966" xlink:href="#m5a9d7431a0" y="79.729716"/>
     <use style="fill-opacity:0.5;" x="285.960073" xlink:href="#m5a9d7431a0" y="106.901379"/>
     <use style="fill-opacity:0.5;" x="63.623366" xlink:href="#m5a9d7431a0" y="157.796757"/>
     <use style="fill-opacity:0.5;" x="99.988436" xlink:href="#m5a9d7431a0" y="144.88536"/>
     <use style="fill-opacity:0.5;" x="108.201128" xlink:href="#m5a9d7431a0" y="163.548901"/>
     <use style="fill-opacity:0.5;" x="134.689907" xlink:href="#m5a9d7431a0" y="146.666485"/>
     <use style="fill-opacity:0.5;" x="144.137644" xlink:href="#m5a9d7431a0" y="159.542858"/>
     <use style="fill-opacity:0.5;" x="81.413267" xlink:href="#m5a9d7431a0" y="169.019036"/>
     <use style="fill-opacity:0.5;" x="157.102282" xlink:href="#m5a9d7431a0" y="140.632828"/>
     <use style="fill-opacity:0.5;" x="300.175846" xlink:href="#m5a9d7431a0" y="54.214706"/>
     <use style="fill-opacity:0.5;" x="92.337522" xlink:href="#m5a9d7431a0" y="182.116132"/>
     <use style="fill-opacity:0.5;" x="267.827129" xlink:href="#m5a9d7431a0" y="69.09024"/>
     <use style="fill-opacity:0.5;" x="74.814314" xlink:href="#m5a9d7431a0" y="158.77364"/>
     <use style="fill-opacity:0.5;" x="76.516528" xlink:href="#m5a9d7431a0" y="165.992546"/>
     <use style="fill-opacity:0.5;" x="173.804389" xlink:href="#m5a9d7431a0" y="167.246838"/>
     <use style="fill-opacity:0.5;" x="316.825674" xlink:href="#m5a9d7431a0" y="104.425825"/>
     <use style="fill-opacity:0.5;" x="117.352369" xlink:href="#m5a9d7431a0" y="159.213656"/>
     <use style="fill-opacity:0.5;" x="311.907667" xlink:href="#m5a9d7431a0" y="75.985871"/>
     <use style="fill-opacity:0.5;" x="71.149392" xlink:href="#m5a9d7431a0" y="210.962586"/>
     <use style="fill-opacity:0.5;" x="295.971809" xlink:href="#m5a9d7431a0" y="39.433985"/>
     <use style="fill-opacity:0.5;" x="210.083326" xlink:href="#m5a9d7431a0" y="116.168798"/>
     <use style="fill-opacity:0.5;" x="278.432516" xlink:href="#m5a9d7431a0" y="95.984045"/>
     <use style="fill-opacity:0.5;" x="187.86795" xlink:href="#m5a9d7431a0" y="115.022473"/>
     <use style="fill-opacity:0.5;" x="126.573356" xlink:href="#m5a9d7431a0" y="174.861562"/>
     <use style="fill-opacity:0.5;" x="284.24861" xlink:href="#m5a9d7431a0" y="146.093575"/>
     <use style="fill-opacity:0.5;" x="150.394949" xlink:href="#m5a9d7431a0" y="147.799427"/>
     <use style="fill-opacity:0.5;" x="253.988227" xlink:href="#m5a9d7431a0" y="121.487319"/>
     <use style="fill-opacity:0.5;" x="313.783405" xlink:href="#m5a9d7431a0" y="77.198664"/>
     <use style="fill-opacity:0.5;" x="303.092503" xlink:href="#m5a9d7431a0" y="77.081905"/>
     <use style="fill-opacity:0.5;" x="195.26081" xlink:href="#m5a9d7431a0" y="168.343791"/>
     <use style="fill-opacity:0.5;" x="123.64617" xlink:href="#m5a9d7431a0" y="175.979757"/>
     <use style="fill-opacity:0.5;" x="270.204123" xlink:href="#m5a9d7431a0" y="71.1046"/>
     <use style="fill-opacity:0.5;" x="71.802772" xlink:href="#m5a9d7431a0" y="136.888168"/>
     <use style="fill-opacity:0.5;" x="299.110397" xlink:href="#m5a9d7431a0" y="84.835099"/>
     <use style="fill-opacity:0.5;" x="210.187203" xlink:href="#m5a9d7431a0" y="115.461684"/>
     <use style="fill-opacity:0.5;" x="63.988442" xlink:href="#m5a9d7431a0" y="168.914379"/>
     <use style="fill-opacity:0.5;" x="198.002321" xlink:href="#m5a9d7431a0" y="115.662068"/>
     <use style="fill-opacity:0.5;" x="191.044197" xlink:href="#m5a9d7431a0" y="55.120437"/>
     <use style="fill-opacity:0.5;" x="116.328422" xlink:href="#m5a9d7431a0" y="110.67514"/>
     <use style="fill-opacity:0.5;" x="224.128742" xlink:href="#m5a9d7431a0" y="129.013525"/>
     <use style="fill-opacity:0.5;" x="60.108127" xlink:href="#m5a9d7431a0" y="187.002332"/>
     <use style="fill-opacity:0.5;" x="121.92533" xlink:href="#m5a9d7431a0" y="122.298213"/>
     <use style="fill-opacity:0.5;" x="199.87839" xlink:href="#m5a9d7431a0" y="106.01656"/>
     <use style="fill-opacity:0.5;" x="112.66807" xlink:href="#m5a9d7431a0" y="131.498418"/>
     <use style="fill-opacity:0.5;" x="124.522366" xlink:href="#m5a9d7431a0" y="134.185287"/>
     <use style="fill-opacity:0.5;" x="175.786984" xlink:href="#m5a9d7431a0" y="154.067767"/>
     <use style="fill-opacity:0.5;" x="74.492242" xlink:href="#m5a9d7431a0" y="206.118387"/>
     <use style="fill-opacity:0.5;" x="115.077115" xlink:href="#m5a9d7431a0" y="195.547164"/>
     <use style="fill-opacity:0.5;" x="79.280537" xlink:href="#m5a9d7431a0" y="189.240693"/>
     <use style="fill-opacity:0.5;" x="272.096675" xlink:href="#m5a9d7431a0" y="80.799197"/>
     <use style="fill-opacity:0.5;" x="193.368691" xlink:href="#m5a9d7431a0" y="138.460015"/>
     <use style="fill-opacity:0.5;" x="129.268546" xlink:href="#m5a9d7431a0" y="95.638363"/>
     <use style="fill-opacity:0.5;" x="271.658521" xlink:href="#m5a9d7431a0" y="135.279853"/>
     <use style="fill-opacity:0.5;" x="100.945587" xlink:href="#m5a9d7431a0" y="168.837215"/>
     <use style="fill-opacity:0.5;" x="290.067682" xlink:href="#m5a9d7431a0" y="56.590244"/>
     <use style="fill-opacity:0.5;" x="182.336697" xlink:href="#m5a9d7431a0" y="77.914584"/>
     <use style="fill-opacity:0.5;" x="209.132008" xlink:href="#m5a9d7431a0" y="143.437237"/>
     <use style="fill-opacity:0.5;" x="142.757216" xlink:href="#m5a9d7431a0" y="136.873283"/>
     <use style="fill-opacity:0.5;" x="124.356692" xlink:href="#m5a9d7431a0" y="133.466342"/>
     <use style="fill-opacity:0.5;" x="133.296644" xlink:href="#m5a9d7431a0" y="202.164554"/>
     <use style="fill-opacity:0.5;" x="155.440888" xlink:href="#m5a9d7431a0" y="118.29652"/>
     <use style="fill-opacity:0.5;" x="211.320682" xlink:href="#m5a9d7431a0" y="112.585629"/>
     <use style="fill-opacity:0.5;" x="67.869248" xlink:href="#m5a9d7431a0" y="186.736958"/>
     <use style="fill-opacity:0.5;" x="162.312813" xlink:href="#m5a9d7431a0" y="110.897743"/>
     <use style="fill-opacity:0.5;" x="150.461748" xlink:href="#m5a9d7431a0" y="139.810297"/>
     <use style="fill-opacity:0.5;" x="227.247336" xlink:href="#m5a9d7431a0" y="130.948368"/>
     <use style="fill-opacity:0.5;" x="290.764967" xlink:href="#m5a9d7431a0" y="48.418194"/>
     <use style="fill-opacity:0.5;" x="265.236682" xlink:href="#m5a9d7431a0" y="112.302266"/>
     <use style="fill-opacity:0.5;" x="323.426342" xlink:href="#m5a9d7431a0" y="36.889325"/>
     <use style="fill-opacity:0.5;" x="170.341095" xlink:href="#m5a9d7431a0" y="198.317509"/>
     <use style="fill-opacity:0.5;" x="116.792323" xlink:href="#m5a9d7431a0" y="131.125089"/>
     <use style="fill-opacity:0.5;" x="304.941248" xlink:href="#m5a9d7431a0" y="87.395644"/>
     <use style="fill-opacity:0.5;" x="276.36964" xlink:href="#m5a9d7431a0" y="82.950601"/>
     <use style="fill-opacity:0.5;" x="302.816022" xlink:href="#m5a9d7431a0" y="74.981306"/>
     <use style="fill-opacity:0.5;" x="115.742714" xlink:href="#m5a9d7431a0" y="128.372469"/>
     <use style="fill-opacity:0.5;" x="184.512403" xlink:href="#m5a9d7431a0" y="150.651006"/>
     <use style="fill-opacity:0.5;" x="145.755562" xlink:href="#m5a9d7431a0" y="148.75001"/>
     <use style="fill-opacity:0.5;" x="179.743528" xlink:href="#m5a9d7431a0" y="138.511227"/>
     <use style="fill-opacity:0.5;" x="253.208193" xlink:href="#m5a9d7431a0" y="86.816317"/>
     <use style="fill-opacity:0.5;" x="252.531777" xlink:href="#m5a9d7431a0" y="100.359552"/>
     <use style="fill-opacity:0.5;" x="229.223976" xlink:href="#m5a9d7431a0" y="102.019908"/>
     <use style="fill-opacity:0.5;" x="149.928185" xlink:href="#m5a9d7431a0" y="131.810936"/>
     <use style="fill-opacity:0.5;" x="119.324227" xlink:href="#m5a9d7431a0" y="199.727199"/>
     <use style="fill-opacity:0.5;" x="184.115798" xlink:href="#m5a9d7431a0" y="134.069974"/>
     <use style="fill-opacity:0.5;" x="258.873807" xlink:href="#m5a9d7431a0" y="94.541005"/>
     <use style="fill-opacity:0.5;" x="108.486394" xlink:href="#m5a9d7431a0" y="152.755189"/>
     <use style="fill-opacity:0.5;" x="66.11668" xlink:href="#m5a9d7431a0" y="108.917833"/>
     <use style="fill-opacity:0.5;" x="87.630856" xlink:href="#m5a9d7431a0" y="145.257723"/>
     <use style="fill-opacity:0.5;" x="93.995864" xlink:href="#m5a9d7431a0" y="129.171709"/>
     <use style="fill-opacity:0.5;" x="183.263163" xlink:href="#m5a9d7431a0" y="139.694993"/>
     <use style="fill-opacity:0.5;" x="154.478352" xlink:href="#m5a9d7431a0" y="117.396055"/>
     <use style="fill-opacity:0.5;" x="304.295597" xlink:href="#m5a9d7431a0" y="29.629069"/>
     <use style="fill-opacity:0.5;" x="115.06106" xlink:href="#m5a9d7431a0" y="167.429874"/>
     <use style="fill-opacity:0.5;" x="160.982288" xlink:href="#m5a9d7431a0" y="153.54631"/>
     <use style="fill-opacity:0.5;" x="65.382089" xlink:href="#m5a9d7431a0" y="216.373982"/>
     <use style="fill-opacity:0.5;" x="75.610111" xlink:href="#m5a9d7431a0" y="206.692468"/>
     <use style="fill-opacity:0.5;" x="282.564666" xlink:href="#m5a9d7431a0" y="41.901206"/>
     <use style="fill-opacity:0.5;" x="246.489369" xlink:href="#m5a9d7431a0" y="141.900449"/>
     <use style="fill-opacity:0.5;" x="84.502098" xlink:href="#m5a9d7431a0" y="170.610727"/>
     <use style="fill-opacity:0.5;" x="270.212347" xlink:href="#m5a9d7431a0" y="71.303701"/>
     <use style="fill-opacity:0.5;" x="165.140718" xlink:href="#m5a9d7431a0" y="130.252734"/>
     <use style="fill-opacity:0.5;" x="98.342723" xlink:href="#m5a9d7431a0" y="155.146523"/>
     <use style="fill-opacity:0.5;" x="321.712108" xlink:href="#m5a9d7431a0" y="73.50071"/>
     <use style="fill-opacity:0.5;" x="91.347061" xlink:href="#m5a9d7431a0" y="137.93114"/>
     <use style="fill-opacity:0.5;" x="97.201307" xlink:href="#m5a9d7431a0" y="200.979714"/>
     <use style="fill-opacity:0.5;" x="286.859786" xlink:href="#m5a9d7431a0" y="95.539333"/>
     <use style="fill-opacity:0.5;" x="253.238891" xlink:href="#m5a9d7431a0" y="100.771363"/>
     <use style="fill-opacity:0.5;" x="78.080251" xlink:href="#m5a9d7431a0" y="221.513052"/>
     <use style="fill-opacity:0.5;" x="225.010091" xlink:href="#m5a9d7431a0" y="130.565991"/>
     <use style="fill-opacity:0.5;" x="174.878932" xlink:href="#m5a9d7431a0" y="136.516043"/>
     <use style="fill-opacity:0.5;" x="295.761631" xlink:href="#m5a9d7431a0" y="41.271789"/>
     <use style="fill-opacity:0.5;" x="224.10023" xlink:href="#m5a9d7431a0" y="128.424758"/>
     <use style="fill-opacity:0.5;" x="235.486564" xlink:href="#m5a9d7431a0" y="74.8884"/>
     <use style="fill-opacity:0.5;" x="185.90865" xlink:href="#m5a9d7431a0" y="146.16039"/>
     <use style="fill-opacity:0.5;" x="61.052125" xlink:href="#m5a9d7431a0" y="132.58459"/>
     <use style="fill-opacity:0.5;" x="161.936015" xlink:href="#m5a9d7431a0" y="147.84824"/>
     <use style="fill-opacity:0.5;" x="138.5271" xlink:href="#m5a9d7431a0" y="117.912867"/>
     <use style="fill-opacity:0.5;" x="205.885711" xlink:href="#m5a9d7431a0" y="39.46545"/>
     <use style="fill-opacity:0.5;" x="187.511286" xlink:href="#m5a9d7431a0" y="99.597349"/>
     <use style="fill-opacity:0.5;" x="296.300143" xlink:href="#m5a9d7431a0" y="42.583032"/>
     <use style="fill-opacity:0.5;" x="98.941092" xlink:href="#m5a9d7431a0" y="191.167795"/>
     <use style="fill-opacity:0.5;" x="78.317531" xlink:href="#m5a9d7431a0" y="155.2946"/>
     <use style="fill-opacity:0.5;" x="187.161789" xlink:href="#m5a9d7431a0" y="106.629248"/>
     <use style="fill-opacity:0.5;" x="92.881707" xlink:href="#m5a9d7431a0" y="170.018526"/>
     <use style="fill-opacity:0.5;" x="251.521374" xlink:href="#m5a9d7431a0" y="92.899316"/>
     <use style="fill-opacity:0.5;" x="117.038451" xlink:href="#m5a9d7431a0" y="184.949414"/>
     <use style="fill-opacity:0.5;" x="124.323597" xlink:href="#m5a9d7431a0" y="165.024888"/>
     <use style="fill-opacity:0.5;" x="222.570232" xlink:href="#m5a9d7431a0" y="145.863179"/>
     <use style="fill-opacity:0.5;" x="269.524439" xlink:href="#m5a9d7431a0" y="134.565357"/>
     <use style="fill-opacity:0.5;" x="241.070873" xlink:href="#m5a9d7431a0" y="85.168923"/>
     <use style="fill-opacity:0.5;" x="201.190895" xlink:href="#m5a9d7431a0" y="143.316354"/>
     <use style="fill-opacity:0.5;" x="176.47039" xlink:href="#m5a9d7431a0" y="122.686129"/>
     <use style="fill-opacity:0.5;" x="322.843545" xlink:href="#m5a9d7431a0" y="21.518909"/>
     <use style="fill-opacity:0.5;" x="225.383114" xlink:href="#m5a9d7431a0" y="81.773488"/>
     <use style="fill-opacity:0.5;" x="304.091291" xlink:href="#m5a9d7431a0" y="96.458845"/>
     <use style="fill-opacity:0.5;" x="99.427443" xlink:href="#m5a9d7431a0" y="169.711007"/>
     <use style="fill-opacity:0.5;" x="271.203778" xlink:href="#m5a9d7431a0" y="110.528059"/>
     <use style="fill-opacity:0.5;" x="255.783388" xlink:href="#m5a9d7431a0" y="99.071091"/>
     <use style="fill-opacity:0.5;" x="100.665167" xlink:href="#m5a9d7431a0" y="115.847821"/>
     <use style="fill-opacity:0.5;" x="305.61087" xlink:href="#m5a9d7431a0" y="34.717054"/>
     <use style="fill-opacity:0.5;" x="324.16079" xlink:href="#m5a9d7431a0" y="85.240859"/>
     <use style="fill-opacity:0.5;" x="117.355028" xlink:href="#m5a9d7431a0" y="192.556725"/>
     <use style="fill-opacity:0.5;" x="111.577207" xlink:href="#m5a9d7431a0" y="129.232598"/>
     <use style="fill-opacity:0.5;" x="72.453907" xlink:href="#m5a9d7431a0" y="235.897091"/>
     <use style="fill-opacity:0.5;" x="189.9796" xlink:href="#m5a9d7431a0" y="110.2576"/>
     <use style="fill-opacity:0.5;" x="272.576433" xlink:href="#m5a9d7431a0" y="154.149139"/>
     <use style="fill-opacity:0.5;" x="234.616417" xlink:href="#m5a9d7431a0" y="96.50346"/>
     <use style="fill-opacity:0.5;" x="94.803938" xlink:href="#m5a9d7431a0" y="158.831962"/>
     <use style="fill-opacity:0.5;" x="310.968793" xlink:href="#m5a9d7431a0" y="88.398818"/>
     <use style="fill-opacity:0.5;" x="150.276315" xlink:href="#m5a9d7431a0" y="172.582501"/>
     <use style="fill-opacity:0.5;" x="186.917637" xlink:href="#m5a9d7431a0" y="112.517754"/>
     <use style="fill-opacity:0.5;" x="160.3147" xlink:href="#m5a9d7431a0" y="125.988141"/>
     <use style="fill-opacity:0.5;" x="196.131728" xlink:href="#m5a9d7431a0" y="119.537613"/>
     <use style="fill-opacity:0.5;" x="216.401362" xlink:href="#m5a9d7431a0" y="51.448731"/>
    </g>
   </g>
   <g id="line2d_16">
    <path clip-path="url(#p7dbf5328f3)" d="M 59.689616 179.333266 
L 325.72194 71.001408 
L 325.72194 71.001408 
" style="fill:none;stroke:#000000;stroke-linecap:square;stroke-width:3;"/>
   </g>
   <g id="line2d_17">
    <path clip-path="url(#p7dbf5328f3)" d="M 59.689616 155.975576 
L 60.222747 187.002332 
L 60.755878 132.58459 
L 61.289009 132.58459 
L 61.82214 177.978092 
L 62.355271 163.57299 
L 62.888402 152.376446 
L 63.421533 157.796757 
L 63.954663 168.914379 
L 64.487794 168.914379 
L 65.020925 216.373982 
L 65.554056 216.373982 
L 66.087187 108.917833 
L 66.620318 108.917833 
L 67.153449 198.505163 
L 67.68658 186.736958 
L 68.219711 157.479072 
L 68.752842 163.184193 
L 69.285973 143.788946 
L 69.819104 143.788946 
L 70.352234 215.129245 
L 70.885365 215.129245 
L 71.418496 210.962586 
L 71.951627 136.888168 
L 72.484758 235.897091 
L 73.017889 235.897091 
L 73.55102 173.469568 
L 74.084151 173.469568 
L 74.617282 206.118387 
L 75.150413 178.243311 
L 75.683544 206.692468 
L 76.216674 165.992546 
L 76.749805 165.992546 
L 77.282936 104.853877 
L 77.816067 137.322748 
L 78.349198 155.2946 
L 78.882329 149.654834 
L 79.41546 189.240693 
L 79.948591 197.050826 
L 80.481722 139.510225 
L 81.014853 139.510225 
L 81.547984 172.203483 
L 82.081114 159.200435 
L 82.614245 153.85354 
L 83.680507 153.85354 
L 84.213638 143.854918 
L 84.746769 170.610727 
L 85.2799 149.577126 
L 85.813031 149.577126 
L 86.879293 189.99439 
L 87.412424 145.257723 
L 87.945554 196.872921 
L 88.478685 172.752151 
L 89.544947 172.752151 
L 90.078078 137.93114 
L 91.14434 137.93114 
L 92.210602 171.403152 
L 92.743733 171.061826 
L 93.276864 170.018526 
L 93.809994 129.171709 
L 94.343125 172.352201 
L 94.876256 130.943671 
L 95.409387 130.943671 
L 95.942518 179.877985 
L 96.475649 128.624504 
L 97.00878 146.902024 
L 97.541911 150.899663 
L 98.075042 191.42383 
L 98.608173 155.146523 
L 99.141304 191.167795 
L 99.674434 169.711007 
L 100.207565 164.114244 
L 100.740696 115.847821 
L 101.273827 168.837215 
L 101.806958 201.831363 
L 102.340089 201.831363 
L 102.87322 164.842971 
L 103.406351 177.535853 
L 103.939482 179.436958 
L 104.472613 147.928135 
L 105.005744 147.928135 
L 105.538874 214.289695 
L 106.072005 163.314764 
L 106.605136 163.314764 
L 107.138267 144.804366 
L 107.671398 193.796797 
L 108.204529 163.548901 
L 108.73766 152.755189 
L 109.270791 152.755189 
L 109.803922 153.07643 
L 110.870184 153.07643 
L 111.403315 176.867542 
L 111.936445 129.232598 
L 112.469576 131.498418 
L 113.002707 166.256059 
L 113.535838 175.898346 
L 114.068969 107.425977 
L 114.6021 167.429874 
L 115.135231 195.547164 
L 115.668362 128.372469 
L 116.201493 110.67514 
L 116.734624 131.125089 
L 117.800885 184.960714 
L 118.334016 184.960714 
L 118.867147 199.727199 
L 119.400278 159.365348 
L 119.933409 142.464365 
L 120.46654 120.254241 
L 120.999671 114.861486 
L 121.532802 114.861486 
L 122.065933 122.298213 
L 122.599064 146.265181 
L 123.132195 141.806793 
L 123.665325 175.979757 
L 124.198456 165.024888 
L 124.731587 176.721378 
L 125.264718 138.406573 
L 125.797849 138.406573 
L 126.33098 174.861562 
L 126.864111 176.064976 
L 127.397242 167.906661 
L 127.930373 165.355236 
L 128.463504 165.355236 
L 128.996635 95.638363 
L 130.062896 95.638363 
L 130.596027 130.143745 
L 131.662289 130.143745 
L 132.19542 193.511424 
L 132.728551 193.511424 
L 133.261682 202.164554 
L 133.794813 167.733443 
L 134.327944 125.64828 
L 134.861075 146.666485 
L 136.460467 146.666485 
L 136.993598 158.326624 
L 138.05986 158.326624 
L 138.592991 117.912867 
L 139.126122 115.881643 
L 139.659253 115.881643 
L 140.192384 109.546207 
L 140.725515 179.385703 
L 141.258645 125.425833 
L 141.791776 125.425833 
L 142.324907 136.873283 
L 143.391169 136.873283 
L 143.9243 159.542858 
L 144.457431 140.924766 
L 144.990562 173.049601 
L 145.523693 139.727762 
L 146.056824 148.640341 
L 147.123085 148.640341 
L 147.656216 107.596694 
L 149.255609 107.596694 
L 149.78874 131.810936 
L 150.321871 172.582501 
L 150.855002 139.810297 
L 151.388133 120.774158 
L 151.921264 120.774158 
L 152.454395 117.363077 
L 154.586918 117.396055 
L 155.120049 142.441288 
L 155.65318 132.644722 
L 156.186311 145.815196 
L 156.719442 145.815196 
L 157.252573 140.632828 
L 157.785704 156.464294 
L 158.318835 156.464294 
L 158.851966 115.706681 
L 159.385096 177.562482 
L 159.918227 125.988141 
L 160.451358 125.988141 
L 160.984489 153.54631 
L 161.51762 147.84824 
L 162.050751 147.84824 
L 162.583882 110.897743 
L 163.117013 110.897743 
L 164.183275 209.805992 
L 164.716406 186.762106 
L 165.249536 130.252734 
L 166.315798 130.252734 
L 166.848929 167.11794 
L 168.448322 167.11794 
L 168.981453 198.317509 
L 171.647107 198.317509 
L 172.180238 167.246838 
L 174.312762 167.246838 
L 174.845893 136.516043 
L 175.379024 154.067767 
L 175.912155 150.341093 
L 176.445286 122.686129 
L 178.044678 122.686129 
L 178.577809 138.511227 
L 179.644071 138.511227 
L 180.177202 149.734322 
L 180.710333 139.743384 
L 181.243464 120.141983 
L 181.776595 127.436973 
L 182.309726 77.914584 
L 182.842856 139.694993 
L 183.375987 139.694993 
L 183.909118 134.069974 
L 184.442249 150.651006 
L 184.97538 150.651006 
L 185.508511 146.16039 
L 186.041642 124.90998 
L 186.574773 112.517754 
L 187.641035 99.597349 
L 188.174166 115.022473 
L 188.707296 115.022473 
L 189.240427 149.180651 
L 189.773558 149.180651 
L 190.306689 137.132513 
L 190.83982 55.120437 
L 191.372951 55.120437 
L 191.906082 129.665325 
L 192.439213 129.665325 
L 192.972344 123.530574 
L 193.505475 138.460015 
L 194.038606 119.266101 
L 194.571736 117.200954 
L 195.104867 103.097505 
L 195.637998 168.343791 
L 196.171129 119.537613 
L 196.70426 119.537613 
L 197.237391 115.662068 
L 198.836784 115.662068 
L 199.369915 106.01656 
L 200.436177 106.01656 
L 200.969307 143.316354 
L 202.035569 143.316354 
L 202.5687 108.478551 
L 204.168093 108.478551 
L 204.701224 113.801928 
L 205.234355 113.801928 
L 205.767486 39.46545 
L 206.300617 39.46545 
L 206.833747 145.406705 
L 207.900009 145.406705 
L 208.43314 102.047132 
L 208.966271 143.437237 
L 209.499402 102.48242 
L 210.032533 116.168798 
L 210.565664 115.461684 
L 211.098795 97.151758 
L 211.631926 112.585629 
L 212.165057 112.585629 
L 212.698187 119.876886 
L 213.764449 119.876886 
L 214.29758 139.995422 
L 215.363842 139.995422 
L 215.896973 51.448731 
L 216.963235 51.448731 
L 217.496366 95.643615 
L 218.029497 95.643615 
L 218.562627 97.184754 
L 219.095758 97.184754 
L 219.628889 151.535603 
L 220.695151 151.535603 
L 221.228282 118.513755 
L 221.761413 118.513755 
L 222.294544 92.953608 
L 222.827675 74.568546 
L 223.360806 127.009429 
L 223.893937 128.424758 
L 224.427067 129.013525 
L 224.960198 130.565991 
L 225.493329 81.773488 
L 226.02646 81.773488 
L 226.559591 82.597039 
L 227.092722 82.597039 
L 227.625853 130.948368 
L 228.158984 130.948368 
L 228.692115 102.019908 
L 229.225246 102.019908 
L 229.758377 139.990226 
L 230.291507 139.990226 
L 230.824638 144.651193 
L 231.357769 144.651193 
L 231.8909 146.346903 
L 232.957162 146.346903 
L 233.490293 61.712025 
L 234.023424 61.712025 
L 234.556555 96.50346 
L 235.089686 74.8884 
L 236.155947 74.8884 
L 236.689078 85.320285 
L 237.222209 85.320285 
L 237.75534 142.536725 
L 238.821602 142.536725 
L 239.354733 94.58641 
L 240.420995 94.58641 
L 240.954126 90.665479 
L 241.487257 85.168923 
L 242.020388 101.214088 
L 243.086649 65.796175 
L 243.61978 99.356537 
L 244.152911 99.356537 
L 244.686042 122.989494 
L 245.219173 89.448267 
L 245.752304 89.448267 
L 246.285435 141.900449 
L 247.351697 141.900449 
L 247.884828 95.91972 
L 248.417958 95.91972 
L 248.951089 102.228818 
L 249.48422 113.353263 
L 250.017351 113.353263 
L 250.550482 96.68751 
L 251.083613 96.68751 
L 251.616744 92.899316 
L 252.149875 123.992465 
L 252.683006 100.359552 
L 253.216137 86.816317 
L 253.749268 121.487319 
L 254.282398 116.93465 
L 254.815529 116.93465 
L 255.34866 99.071091 
L 255.881791 139.020036 
L 256.948053 139.020036 
L 257.481184 95.285039 
L 258.014315 95.285039 
L 258.547446 86.251743 
L 259.080577 50.40056 
L 260.146838 50.40056 
L 260.679969 71.686708 
L 261.2131 71.686708 
L 261.746231 157.487511 
L 262.279362 91.407731 
L 262.812493 139.074242 
L 263.345624 139.074242 
L 263.878755 71.516494 
L 264.411886 71.516494 
L 264.945017 86.714475 
L 265.478148 112.302266 
L 266.011278 77.111916 
L 266.544409 68.01325 
L 267.07754 68.01325 
L 267.610671 69.09024 
L 268.143802 69.09024 
L 268.676933 134.565357 
L 269.743195 134.565357 
L 270.276326 71.303701 
L 270.809457 108.567068 
L 271.342588 125.875125 
L 271.875718 135.279853 
L 272.408849 154.149139 
L 272.94198 84.196035 
L 274.008242 84.196035 
L 274.541373 106.380425 
L 276.140766 106.380425 
L 276.673897 103.30383 
L 277.207028 103.30383 
L 277.740158 95.984045 
L 278.273289 95.984045 
L 278.80642 99.495531 
L 279.339551 99.495531 
L 279.872682 111.173225 
L 280.405813 138.222837 
L 280.938944 103.331147 
L 281.472075 82.764035 
L 282.005206 82.764035 
L 282.538337 41.901206 
L 283.071468 105.824281 
L 283.604599 105.824281 
L 284.137729 146.093575 
L 284.67086 87.859178 
L 285.203991 87.859178 
L 285.737122 106.901379 
L 286.270253 106.901379 
L 286.803384 95.539333 
L 287.336515 44.057001 
L 288.402777 44.057001 
L 288.935908 56.590244 
L 290.002169 56.590244 
L 290.5353 48.418194 
L 291.068431 79.729716 
L 291.601562 50.784774 
L 292.134693 126.219315 
L 292.667824 53.49349 
L 293.200955 115.320615 
L 294.267217 115.320615 
L 294.800348 41.271789 
L 295.866609 41.271789 
L 296.39974 42.583032 
L 297.466002 42.583032 
L 297.999133 84.835099 
L 299.065395 84.835099 
L 299.598526 142.363719 
L 300.131657 54.214706 
L 300.664788 54.214706 
L 301.197919 84.462014 
L 301.731049 84.462014 
L 302.26418 50.405749 
L 302.797311 74.981306 
L 303.863573 79.370539 
L 304.396704 29.629069 
L 304.929835 87.395644 
L 305.462966 34.717054 
L 306.529228 126.102781 
L 307.062359 126.102781 
L 307.595489 93.340572 
L 309.728013 93.340572 
L 310.261144 88.398818 
L 310.794275 88.398818 
L 311.327406 58.573176 
L 312.393668 93.285488 
L 312.926799 117.273664 
L 313.459929 77.198664 
L 313.99306 83.499894 
L 314.526191 93.85986 
L 315.059322 74.977571 
L 315.592453 112.112588 
L 316.125584 112.112588 
L 316.658715 51.858117 
L 317.191846 78.441269 
L 317.724977 78.441269 
L 318.258108 53.876711 
L 319.8575 53.876711 
L 320.390631 73.50071 
L 321.456893 73.50071 
L 321.990024 50.962542 
L 322.523155 21.518909 
L 323.056286 21.518909 
L 323.589417 36.889325 
L 324.122548 85.240859 
L 324.655679 54.667002 
L 325.72194 54.667002 
L 325.72194 54.667002 
" style="fill:none;stroke:#1f77b4;stroke-linecap:square;stroke-opacity:0.5;stroke-width:4;"/>
   </g>
   <g id="line2d_18">
    <path clip-path="url(#p7dbf5328f3)" d="M 59.689616 163.503137 
L 60.222747 164.696474 
L 60.755878 161.897671 
L 61.289009 161.897671 
L 61.82214 166.429774 
L 62.355271 164.183352 
L 62.888402 163.598753 
L 63.421533 163.807227 
L 63.954663 164.67785 
L 64.487794 164.67785 
L 65.020925 172.910204 
L 65.554056 172.910204 
L 66.087187 154.159085 
L 66.620318 154.159085 
L 67.153449 168.346239 
L 67.68658 167.893616 
L 68.219711 165.618404 
L 68.752842 165.837832 
L 69.285973 159.098465 
L 69.819104 159.098465 
L 70.352234 176.277907 
L 70.885365 176.277907 
L 71.418496 176.117651 
L 71.951627 166.015717 
L 72.484758 177.505879 
L 73.017889 177.505879 
L 73.55102 171.675875 
L 74.084151 171.675875 
L 74.617282 172.931598 
L 75.150413 171.101449 
L 75.683544 174.019134 
L 76.216674 146.089452 
L 76.749805 146.089452 
L 77.282936 141.92962 
L 77.816067 143.753146 
L 78.349198 157.501176 
L 78.882329 157.033111 
L 79.41546 169.091309 
L 79.948591 169.391699 
L 80.481722 155.963778 
L 81.014853 155.963778 
L 81.547984 160.150699 
L 82.081114 158.282399 
L 82.614245 158.07675 
L 83.680507 158.07675 
L 84.213638 157.462287 
L 84.746769 159.05324 
L 85.2799 158.244256 
L 85.813031 158.244256 
L 86.346162 162.262837 
L 86.879293 163.448272 
L 87.412424 160.385514 
L 87.945554 164.334279 
L 88.478685 163.406557 
L 89.544947 163.406557 
L 90.078078 158.625866 
L 91.14434 158.625866 
L 91.677471 159.261165 
L 92.210602 161.909977 
L 92.743733 161.675359 
L 93.276864 161.635232 
L 93.809994 153.996093 
L 94.343125 157.907827 
L 94.876256 155.086485 
L 95.409387 155.086485 
L 95.942518 159.11638 
L 96.475649 149.004978 
L 97.00878 149.70796 
L 97.541911 160.390141 
L 98.075042 166.930318 
L 98.608173 162.616909 
L 99.141304 164.678674 
L 99.674434 163.853413 
L 100.207565 162.170599 
L 100.740696 157.185872 
L 101.273827 159.223926 
L 101.806958 168.64447 
L 102.340089 168.64447 
L 102.87322 164.749429 
L 103.406351 166.120288 
L 103.939482 166.299455 
L 104.472613 157.772013 
L 105.005744 157.772013 
L 105.538874 170.411646 
L 106.072005 168.451072 
L 106.605136 168.451072 
L 107.138267 156.162784 
L 107.671398 170.887041 
L 108.204529 160.534023 
L 108.73766 159.825944 
L 110.870184 159.838299 
L 111.403315 161.940312 
L 111.936445 147.358227 
L 112.469576 147.445374 
L 113.002707 150.809924 
L 113.535838 151.180781 
L 114.068969 144.577976 
L 114.6021 153.085751 
L 115.135231 154.167186 
L 115.668362 144.421009 
L 116.201493 143.740342 
L 116.734624 144.737352 
L 117.267755 154.484363 
L 117.800885 157.09504 
L 118.334016 157.09504 
L 118.867147 157.662982 
L 119.400278 155.512297 
L 119.933409 144.304353 
L 120.46654 141.335417 
L 120.999671 141.128003 
L 121.532802 141.128003 
L 122.065933 141.763227 
L 122.599064 147.231196 
L 123.132195 146.995613 
L 123.665325 149.734154 
L 124.198456 149.312813 
L 124.731587 148.538064 
L 125.264718 146.40956 
L 125.797849 146.40956 
L 126.33098 156.796145 
L 126.864111 156.603684 
L 127.397242 156.118748 
L 128.463504 156.020616 
L 128.996635 130.68378 
L 130.062896 130.68378 
L 130.596027 132.01091 
L 131.662289 132.01091 
L 132.19542 162.411411 
L 132.728551 162.411411 
L 133.261682 163.128024 
L 133.794813 159.483317 
L 134.327944 135.383854 
L 134.861075 144.999357 
L 136.460467 144.999357 
L 136.993598 145.447824 
L 138.05986 145.447824 
L 138.592991 143.266023 
L 139.126122 135.265157 
L 139.659253 135.265157 
L 140.192384 135.021486 
L 140.725515 151.295573 
L 141.258645 140.095039 
L 141.791776 140.095039 
L 142.324907 140.535325 
L 143.391169 140.535325 
L 143.9243 145.777898 
L 144.457431 145.061817 
L 144.990562 146.711317 
L 145.523693 142.56279 
L 146.056824 143.068271 
L 147.123085 143.068271 
L 147.656216 139.763016 
L 149.255609 139.763016 
L 149.78874 141.203167 
L 150.321871 145.601026 
L 150.855002 143.818466 
L 151.388133 134.742562 
L 151.921264 134.742562 
L 152.454395 134.549781 
L 154.586918 134.551049 
L 155.120049 139.327232 
L 155.65318 138.642555 
L 156.186311 140.375512 
L 156.719442 140.375512 
L 157.252573 140.17619 
L 157.785704 141.025301 
L 158.318835 141.025301 
L 158.851966 136.450598 
L 159.385096 145.596747 
L 159.918227 136.684362 
L 160.451358 136.684362 
L 160.984489 142.262473 
L 161.51762 142.043317 
L 162.050751 142.043317 
L 162.583882 133.592839 
L 163.117013 133.592839 
L 163.650144 154.306318 
L 164.183275 156.941677 
L 164.716406 156.055373 
L 165.249536 150.727558 
L 166.315798 150.727558 
L 166.848929 153.640754 
L 168.448322 153.640754 
L 168.981453 155.124921 
L 171.647107 155.124921 
L 172.180238 153.929896 
L 174.312762 153.929896 
L 174.845893 147.342483 
L 175.379024 148.302172 
L 175.912155 148.158838 
L 176.445286 145.681806 
L 178.044678 145.681806 
L 178.577809 146.926567 
L 179.644071 146.926567 
L 180.177202 147.471208 
L 180.710333 147.086941 
L 181.243464 132.89804 
L 181.776595 133.178616 
L 182.309726 130.441636 
L 182.842856 136.04755 
L 183.375987 136.04755 
L 183.909118 135.831203 
L 184.442249 136.879306 
L 184.97538 136.879306 
L 185.508511 136.70659 
L 186.041642 116.118148 
L 186.574773 115.103014 
L 187.107904 114.72514 
L 187.641035 114.120656 
L 188.174166 114.71393 
L 188.707296 114.71393 
L 189.240427 119.204028 
L 189.773558 119.204028 
L 190.306689 118.278272 
L 190.83982 104.512255 
L 191.372951 104.512255 
L 191.906082 119.492001 
L 192.439213 119.492001 
L 192.972344 119.256049 
L 193.505475 120.045463 
L 194.038606 118.062732 
L 194.571736 117.983303 
L 195.104867 117.166262 
L 195.637998 124.374933 
L 196.171129 117.465717 
L 196.70426 117.465717 
L 197.237391 117.316658 
L 198.836784 117.316658 
L 199.369915 116.73553 
L 200.436177 116.73553 
L 200.969307 119.363569 
L 202.035569 119.363569 
L 202.5687 116.547327 
L 204.168093 116.547327 
L 204.701224 116.752072 
L 205.234355 116.752072 
L 205.767486 85.566189 
L 206.300617 85.566189 
L 206.833747 120.132581 
L 207.900009 120.132581 
L 208.43314 116.79055 
L 208.966271 118.76188 
L 209.499402 117.186695 
L 210.032533 111.715175 
L 210.565664 111.687979 
L 211.098795 110.593916 
L 211.631926 111.187527 
L 212.165057 111.187527 
L 212.698187 112.16296 
L 213.764449 112.16296 
L 214.29758 114.925034 
L 215.363842 114.925034 
L 215.896973 104.62505 
L 216.963235 104.62505 
L 217.496366 107.140627 
L 219.095758 107.199902 
L 219.628889 119.629943 
L 220.695151 119.629943 
L 221.228282 113.696098 
L 221.761413 113.696098 
L 222.294544 112.713016 
L 222.827675 110.662337 
L 223.360806 115.893621 
L 224.960198 116.137158 
L 225.493329 108.981726 
L 227.092722 109.013401 
L 227.625853 112.414877 
L 228.158984 112.414877 
L 228.692115 111.302243 
L 229.225246 111.302243 
L 229.758377 128.221668 
L 230.291507 128.221668 
L 230.824638 128.748583 
L 232.957162 128.813802 
L 233.490293 92.925041 
L 234.023424 92.925041 
L 234.556555 95.311186 
L 235.089686 94.182321 
L 236.155947 94.182321 
L 236.689078 94.583548 
L 237.222209 94.583548 
L 237.75534 116.081297 
L 238.821602 116.081297 
L 239.354733 99.231957 
L 240.420995 99.231957 
L 240.954126 99.005846 
L 241.487257 98.58271 
L 242.020388 99.957394 
L 242.553518 97.031486 
L 243.086649 96.426658 
L 243.61978 98.707465 
L 244.152911 98.707465 
L 244.686042 108.44909 
L 245.219173 106.682864 
L 245.752304 106.682864 
L 246.285435 110.262515 
L 247.351697 110.262515 
L 247.884828 100.533504 
L 248.417958 100.533504 
L 248.951089 100.776162 
L 249.48422 104.931948 
L 250.017351 104.931948 
L 250.550482 103.92623 
L 251.083613 103.92623 
L 251.616744 103.78053 
L 252.149875 106.000942 
L 252.683006 105.091984 
L 253.216137 102.994305 
L 253.749268 106.778467 
L 254.282398 106.603364 
L 254.815529 106.603364 
L 255.34866 105.550922 
L 255.881791 111.550503 
L 256.948053 111.550503 
L 257.481184 102.069252 
L 258.014315 102.069252 
L 258.547446 101.633127 
L 259.080577 85.236169 
L 260.146838 85.236169 
L 260.679969 86.054867 
L 261.2131 86.054867 
L 261.746231 118.56418 
L 262.279362 115.256203 
L 262.812493 117.089531 
L 263.345624 117.089531 
L 263.878755 95.090657 
L 264.411886 95.090657 
L 264.945017 95.675195 
L 265.478148 97.261423 
L 266.011278 94.320766 
L 266.544409 93.815517 
L 268.143802 93.856939 
L 268.676933 101.607231 
L 269.743195 101.607231 
L 270.276326 93.316351 
L 270.809457 110.30858 
L 271.342588 111.723203 
L 271.875718 112.084923 
L 272.408849 114.904793 
L 272.94198 104.757621 
L 274.008242 104.757621 
L 274.541373 106.992352 
L 276.140766 106.992352 
L 276.673897 106.515361 
L 277.207028 106.515361 
L 277.740158 106.132887 
L 278.273289 106.132887 
L 278.80642 106.267944 
L 279.339551 106.267944 
L 279.872682 108.738038 
L 280.405813 110.248416 
L 280.938944 108.906428 
L 281.472075 73.28632 
L 282.005206 73.28632 
L 282.538337 70.846376 
L 283.071468 105.857634 
L 283.604599 105.857634 
L 284.137729 107.406453 
L 284.67086 86.63922 
L 285.203991 86.63922 
L 285.737122 87.614014 
L 286.270253 87.614014 
L 286.803384 87.177012 
L 287.336515 80.259884 
L 288.402777 80.259884 
L 288.935908 80.895184 
L 290.002169 80.895184 
L 290.5353 80.580874 
L 291.068431 83.835563 
L 291.601562 82.316448 
L 292.134693 90.929639 
L 292.667824 87.373924 
L 293.200955 89.751891 
L 294.267217 89.751891 
L 294.800348 75.492376 
L 297.466002 75.583268 
L 297.999133 93.000369 
L 299.065395 93.000369 
L 299.598526 95.213008 
L 300.131657 83.890176 
L 300.664788 83.890176 
L 301.197919 85.053534 
L 301.731049 85.053534 
L 302.26418 83.400198 
L 302.797311 87.134256 
L 303.330442 87.215049 
L 303.863573 87.44486 
L 304.396704 75.278451 
L 304.929835 79.204334 
L 305.462966 76.628178 
L 305.996097 78.348138 
L 306.529228 99.246745 
L 307.062359 99.246745 
L 307.595489 90.549149 
L 309.728013 90.549149 
L 310.261144 90.359082 
L 310.794275 90.359082 
L 311.327406 88.114123 
L 311.860537 89.256674 
L 312.393668 89.922044 
L 312.926799 93.428451 
L 313.459929 88.199082 
L 313.99306 89.202013 
L 314.526191 89.600473 
L 315.059322 88.625641 
L 315.592453 95.028669 
L 316.125584 95.028669 
L 316.658715 86.281317 
L 317.191846 103.375004 
L 317.724977 103.375004 
L 318.258108 72.073016 
L 319.8575 72.073016 
L 320.390631 72.827785 
L 321.456893 72.827785 
L 321.990024 71.730051 
L 322.523155 69.165377 
L 323.056286 69.165377 
L 323.589417 69.756547 
L 324.122548 74.47448 
L 324.655679 73.298562 
L 325.72194 73.298562 
L 325.72194 73.298562 
" style="fill:none;stroke:#ff4b33;stroke-linecap:square;stroke-opacity:0.5;stroke-width:4;"/>
   </g>
   <g id="patch_3">
    <path d="M 46.388 246.616 
L 46.388 10.8 
" style="fill:none;stroke:#000000;stroke-linecap:square;stroke-linejoin:miter;stroke-width:0.8;"/>
   </g>
   <g id="patch_4">
    <path d="M 46.388 246.616 
L 358.177884 246.616 
" style="fill:none;stroke:#000000;stroke-linecap:square;stroke-linejoin:miter;stroke-width:0.8;"/>
   </g>
   <g id="text_17">
    <!-- Groundtruth -->
    <g transform="translate(331.042587 71.001408)scale(0.15 -0.15)">
     <defs>
      <path d="M 3809 666 
L 3809 1919 
L 2778 1919 
L 2778 2438 
L 4434 2438 
L 4434 434 
Q 4069 175 3628 42 
Q 3188 -91 2688 -91 
Q 1594 -91 976 548 
Q 359 1188 359 2328 
Q 359 3472 976 4111 
Q 1594 4750 2688 4750 
Q 3144 4750 3555 4637 
Q 3966 4525 4313 4306 
L 4313 3634 
Q 3963 3931 3569 4081 
Q 3175 4231 2741 4231 
Q 1884 4231 1454 3753 
Q 1025 3275 1025 2328 
Q 1025 1384 1454 906 
Q 1884 428 2741 428 
Q 3075 428 3337 486 
Q 3600 544 3809 666 
z
" id="DejaVuSans-47" transform="scale(0.015625)"/>
      <path d="M 2631 2963 
Q 2534 3019 2420 3045 
Q 2306 3072 2169 3072 
Q 1681 3072 1420 2755 
Q 1159 2438 1159 1844 
L 1159 0 
L 581 0 
L 581 3500 
L 1159 3500 
L 1159 2956 
Q 1341 3275 1631 3429 
Q 1922 3584 2338 3584 
Q 2397 3584 2469 3576 
Q 2541 3569 2628 3553 
L 2631 2963 
z
" id="DejaVuSans-72" transform="scale(0.015625)"/>
      <path d="M 1959 3097 
Q 1497 3097 1228 2736 
Q 959 2375 959 1747 
Q 959 1119 1226 758 
Q 1494 397 1959 397 
Q 2419 397 2687 759 
Q 2956 1122 2956 1747 
Q 2956 2369 2687 2733 
Q 2419 3097 1959 3097 
z
M 1959 3584 
Q 2709 3584 3137 3096 
Q 3566 2609 3566 1747 
Q 3566 888 3137 398 
Q 2709 -91 1959 -91 
Q 1206 -91 779 398 
Q 353 888 353 1747 
Q 353 2609 779 3096 
Q 1206 3584 1959 3584 
z
" id="DejaVuSans-6f" transform="scale(0.015625)"/>
      <path d="M 544 1381 
L 544 3500 
L 1119 3500 
L 1119 1403 
Q 1119 906 1312 657 
Q 1506 409 1894 409 
Q 2359 409 2629 706 
Q 2900 1003 2900 1516 
L 2900 3500 
L 3475 3500 
L 3475 0 
L 2900 0 
L 2900 538 
Q 2691 219 2414 64 
Q 2138 -91 1772 -91 
Q 1169 -91 856 284 
Q 544 659 544 1381 
z
M 1991 3584 
L 1991 3584 
z
" id="DejaVuSans-75" transform="scale(0.015625)"/>
      <path d="M 3513 2113 
L 3513 0 
L 2938 0 
L 2938 2094 
Q 2938 2591 2744 2837 
Q 2550 3084 2163 3084 
Q 1697 3084 1428 2787 
Q 1159 2491 1159 1978 
L 1159 0 
L 581 0 
L 581 3500 
L 1159 3500 
L 1159 2956 
Q 1366 3272 1645 3428 
Q 1925 3584 2291 3584 
Q 2894 3584 3203 3211 
Q 3513 2838 3513 2113 
z
" id="DejaVuSans-6e" transform="scale(0.015625)"/>
      <path d="M 2906 2969 
L 2906 4863 
L 3481 4863 
L 3481 0 
L 2906 0 
L 2906 525 
Q 2725 213 2448 61 
Q 2172 -91 1784 -91 
Q 1150 -91 751 415 
Q 353 922 353 1747 
Q 353 2572 751 3078 
Q 1150 3584 1784 3584 
Q 2172 3584 2448 3432 
Q 2725 3281 2906 2969 
z
M 947 1747 
Q 947 1113 1208 752 
Q 1469 391 1925 391 
Q 2381 391 2643 752 
Q 2906 1113 2906 1747 
Q 2906 2381 2643 2742 
Q 2381 3103 1925 3103 
Q 1469 3103 1208 2742 
Q 947 2381 947 1747 
z
" id="DejaVuSans-64" transform="scale(0.015625)"/>
      <path d="M 1172 4494 
L 1172 3500 
L 2356 3500 
L 2356 3053 
L 1172 3053 
L 1172 1153 
Q 1172 725 1289 603 
Q 1406 481 1766 481 
L 2356 481 
L 2356 0 
L 1766 0 
Q 1100 0 847 248 
Q 594 497 594 1153 
L 594 3053 
L 172 3053 
L 172 3500 
L 594 3500 
L 594 4494 
L 1172 4494 
z
" id="DejaVuSans-74" transform="scale(0.015625)"/>
      <path d="M 3513 2113 
L 3513 0 
L 2938 0 
L 2938 2094 
Q 2938 2591 2744 2837 
Q 2550 3084 2163 3084 
Q 1697 3084 1428 2787 
Q 1159 2491 1159 1978 
L 1159 0 
L 581 0 
L 581 4863 
L 1159 4863 
L 1159 2956 
Q 1366 3272 1645 3428 
Q 1925 3584 2291 3584 
Q 2894 3584 3203 3211 
Q 3513 2838 3513 2113 
z
" id="DejaVuSans-68" transform="scale(0.015625)"/>
     </defs>
     <use xlink:href="#DejaVuSans-47"/>
     <use x="77.490234" xlink:href="#DejaVuSans-72"/>
     <use x="116.353516" xlink:href="#DejaVuSans-6f"/>
     <use x="177.535156" xlink:href="#DejaVuSans-75"/>
     <use x="240.914062" xlink:href="#DejaVuSans-6e"/>
     <use x="304.292969" xlink:href="#DejaVuSans-64"/>
     <use x="367.769531" xlink:href="#DejaVuSans-74"/>
     <use x="406.978516" xlink:href="#DejaVuSans-72"/>
     <use x="448.091797" xlink:href="#DejaVuSans-75"/>
     <use x="511.470703" xlink:href="#DejaVuSans-74"/>
     <use x="550.679688" xlink:href="#DejaVuSans-68"/>
    </g>
   </g>
   <g id="text_18">
    <!-- CART -->
    <g style="fill:#1f77b4;" transform="translate(331.042587 54.667002)scale(0.15 -0.15)">
     <defs>
      <path d="M 4122 4306 
L 4122 3641 
Q 3803 3938 3442 4084 
Q 3081 4231 2675 4231 
Q 1875 4231 1450 3742 
Q 1025 3253 1025 2328 
Q 1025 1406 1450 917 
Q 1875 428 2675 428 
Q 3081 428 3442 575 
Q 3803 722 4122 1019 
L 4122 359 
Q 3791 134 3420 21 
Q 3050 -91 2638 -91 
Q 1578 -91 968 557 
Q 359 1206 359 2328 
Q 359 3453 968 4101 
Q 1578 4750 2638 4750 
Q 3056 4750 3426 4639 
Q 3797 4528 4122 4306 
z
" id="DejaVuSans-43" transform="scale(0.015625)"/>
      <path d="M 2188 4044 
L 1331 1722 
L 3047 1722 
L 2188 4044 
z
M 1831 4666 
L 2547 4666 
L 4325 0 
L 3669 0 
L 3244 1197 
L 1141 1197 
L 716 0 
L 50 0 
L 1831 4666 
z
" id="DejaVuSans-41" transform="scale(0.015625)"/>
      <path d="M 2841 2188 
Q 3044 2119 3236 1894 
Q 3428 1669 3622 1275 
L 4263 0 
L 3584 0 
L 2988 1197 
Q 2756 1666 2539 1819 
Q 2322 1972 1947 1972 
L 1259 1972 
L 1259 0 
L 628 0 
L 628 4666 
L 2053 4666 
Q 2853 4666 3247 4331 
Q 3641 3997 3641 3322 
Q 3641 2881 3436 2590 
Q 3231 2300 2841 2188 
z
M 1259 4147 
L 1259 2491 
L 2053 2491 
Q 2509 2491 2742 2702 
Q 2975 2913 2975 3322 
Q 2975 3731 2742 3939 
Q 2509 4147 2053 4147 
L 1259 4147 
z
" id="DejaVuSans-52" transform="scale(0.015625)"/>
      <path d="M -19 4666 
L 3928 4666 
L 3928 4134 
L 2272 4134 
L 2272 0 
L 1638 0 
L 1638 4134 
L -19 4134 
L -19 4666 
z
" id="DejaVuSans-54" transform="scale(0.015625)"/>
     </defs>
     <use xlink:href="#DejaVuSans-43"/>
     <use x="69.824219" xlink:href="#DejaVuSans-41"/>
     <use x="138.232422" xlink:href="#DejaVuSans-52"/>
     <use x="200.464844" xlink:href="#DejaVuSans-54"/>
    </g>
   </g>
   <g id="text_19">
    <!-- Shrunk -->
    <g style="fill:#ff4b33;" transform="translate(331.042587 73.298562)scale(0.15 -0.15)">
     <defs>
      <path d="M 3425 4513 
L 3425 3897 
Q 3066 4069 2747 4153 
Q 2428 4238 2131 4238 
Q 1616 4238 1336 4038 
Q 1056 3838 1056 3469 
Q 1056 3159 1242 3001 
Q 1428 2844 1947 2747 
L 2328 2669 
Q 3034 2534 3370 2195 
Q 3706 1856 3706 1288 
Q 3706 609 3251 259 
Q 2797 -91 1919 -91 
Q 1588 -91 1214 -16 
Q 841 59 441 206 
L 441 856 
Q 825 641 1194 531 
Q 1563 422 1919 422 
Q 2459 422 2753 634 
Q 3047 847 3047 1241 
Q 3047 1584 2836 1778 
Q 2625 1972 2144 2069 
L 1759 2144 
Q 1053 2284 737 2584 
Q 422 2884 422 3419 
Q 422 4038 858 4394 
Q 1294 4750 2059 4750 
Q 2388 4750 2728 4690 
Q 3069 4631 3425 4513 
z
" id="DejaVuSans-53" transform="scale(0.015625)"/>
      <path d="M 581 4863 
L 1159 4863 
L 1159 1991 
L 2875 3500 
L 3609 3500 
L 1753 1863 
L 3688 0 
L 2938 0 
L 1159 1709 
L 1159 0 
L 581 0 
L 581 4863 
z
" id="DejaVuSans-6b" transform="scale(0.015625)"/>
     </defs>
     <use xlink:href="#DejaVuSans-53"/>
     <use x="63.476562" xlink:href="#DejaVuSans-68"/>
     <use x="126.855469" xlink:href="#DejaVuSans-72"/>
     <use x="167.96875" xlink:href="#DejaVuSans-75"/>
     <use x="231.347656" xlink:href="#DejaVuSans-6e"/>
     <use x="294.726562" xlink:href="#DejaVuSans-6b"/>
    </g>
   </g>
  </g>
 </g>
 <defs>
  <clipPath id="p7dbf5328f3">
   <rect height="235.816" width="311.789884" x="46.388" y="10.8"/>
  </clipPath>
 </defs>
</svg>
