<svg version="1.1" viewBox="0.0 0.0 384.0 288.0" fill="none" stroke="none" stroke-linecap="square" stroke-miterlimit="10" xmlns:xlink="http://www.w3.org/1999/xlink" xmlns="http://www.w3.org/2000/svg"><clipPath id="g106732f9e27_0_4.0"><path d="m0 0l384.0 0l0 288.0l-384.0 0l0 -288.0z" clip-rule="nonzero"/></clipPath><g clip-path="url(#g106732f9e27_0_4.0)"><path fill="#ffffff" d="m0 0l384.0 0l0 288.0l-384.0 0z" fill-rule="evenodd"/><path fill="#000000" fill-opacity="0.0" d="m149.53154 48.992126l160.12599 0l0 42.015747l-160.12599 0z" fill-rule="evenodd"/><path fill="#999999" d="m173.84877 75.912125l-1.6875 0l0 -11.234375l-3.40625 1.25l0 -1.53125l4.828125 -1.8125l0.265625 0l0 13.328125zm13.632172 0l-8.6875 0l0 -1.21875l4.578125 -5.09375q1.03125 -1.15625 1.40625 -1.875q0.390625 -0.734375 0.390625 -1.5q0 -1.046875 -0.625 -1.703125q-0.625 -0.671875 -1.671875 -0.671875q-1.265625 0 -1.96875 0.71875q-0.6875 0.71875 -0.6875 1.984375l-1.6875 0q0 -1.828125 1.171875 -2.953125q1.1875 -1.140625 3.171875 -1.140625q1.84375 0 2.921875 0.984375q1.078125 0.96875 1.078125 2.578125q0 1.953125 -2.5 4.65625l-3.546875 3.859375l6.65625 0l0 1.375zm9.819672 -9.796875q0 0.984375 -0.53125 1.765625q-0.515625 0.765625 -1.40625 1.203125q1.046875 0.453125 1.640625 1.3125q0.609375 0.84375 0.609375 1.9375q0 1.71875 -1.171875 2.75q-1.15625 1.015625 -3.046875 1.015625q-1.90625 0 -3.0625 -1.03125q-1.15625 -1.03125 -1.15625 -2.734375q0 -1.078125 0.59375 -1.9375q0.59375 -0.875 1.625 -1.3125q-0.890625 -0.4375 -1.40625 -1.203125q-0.5 -0.78125 -0.5 -1.765625q0 -1.6875 1.078125 -2.671875q1.078125 -0.984375 2.828125 -0.984375q1.75 0 2.828125 0.984375q1.078125 0.984375 1.078125 2.671875zm-1.375 6.1875q0 -1.125 -0.703125 -1.8125q-0.703125 -0.703125 -1.84375 -0.703125q-1.140625 0 -1.828125 0.6875q-0.6875 0.6875 -0.6875 1.828125q0 1.125 0.671875 1.78125q0.671875 0.640625 1.859375 0.640625q1.1875 0 1.859375 -0.65625q0.671875 -0.65625 0.671875 -1.765625zm-2.53125 -8.453125q-0.984375 0 -1.609375 0.625q-0.609375 0.609375 -0.609375 1.65625q0 1.015625 0.609375 1.640625q0.609375 0.625 1.609375 0.625q1.015625 0 1.609375 -0.625q0.609375 -0.625 0.609375 -1.625q0 -1.015625 -0.625 -1.65625q-0.625 -0.640625 -1.59375 -0.640625zm12.266312 6.203125l5.703125 2.296875l0 1.78125l-7.453125 -3.453125l0 -1.328125l7.453125 -3.4375l0 1.78125l-5.703125 2.359375z" fill-rule="nonzero"/><path fill="#009688" d="m220.63718 70.724625l0 5.1875l-1.734375 0l0 -13.265625l4.890625 0q2.171875 0 3.40625 1.109375q1.234375 1.109375 1.234375 2.953125q0 1.921875 -1.21875 2.96875q-1.203125 1.046875 -3.453125 1.046875l-3.125 0zm0 -1.4375l3.15625 0q1.390625 0 2.140625 -0.65625q0.75 -0.65625 0.75 -1.90625q0 -1.1875 -0.75 -1.890625q-0.75 -0.71875 -2.046875 -0.75l-3.25 0l0 5.203125zm19.816345 4.890625q-0.671875 0.953125 -1.875 1.4375q-1.203125 0.484375 -2.8125 0.484375q-1.625 0 -2.890625 -0.765625q-1.25 -0.765625 -1.9375 -2.15625q-0.6875 -1.40625 -0.703125 -3.265625l0 -1.15625q0 -2.984375 1.390625 -4.640625q1.40625 -1.65625 3.9375 -1.65625q2.078125 0 3.34375 1.0625q1.265625 1.0625 1.546875 3.015625l-1.75 0q-0.484375 -2.625 -3.125 -2.625q-1.765625 0 -2.671875 1.234375q-0.90625 1.234375 -0.90625 3.5625l0 1.09375q0 2.234375 1.015625 3.546875q1.015625 1.3125 2.765625 1.3125q0.984375 0 1.71875 -0.21875q0.734375 -0.21875 1.21875 -0.734375l0 -2.984375l-3.078125 0l0 -1.421875l4.8125 0l0 4.875z" fill-rule="nonzero"/><path fill="#999999" d="m248.85791 70.05275l5.703125 2.296875l0 1.78125l-7.453125 -3.453125l0 -1.328125l7.453125 -3.4375l0 1.78125l-5.703125 2.359375zm18.335876 5.859375l-1.6875 0l0 -11.234375l-3.40625 1.25l0 -1.53125l4.828125 -1.8125l0.265625 0l0 13.328125zm11.554047 -13.265625l0 1.421875l-0.3125 0q-1.96875 0.03125 -3.140625 1.171875q-1.15625 1.125 -1.34375 3.171875q1.046875 -1.203125 2.859375 -1.203125q1.734375 0 2.765625 1.21875q1.03125 1.21875 1.03125 3.15625q0 2.046875 -1.125 3.28125q-1.109375 1.234375 -2.984375 1.234375q-1.890625 0 -3.078125 -1.453125q-1.1875 -1.46875 -1.1875 -3.78125l0 -0.640625q0 -3.671875 1.5625 -5.609375q1.5625 -1.9375 4.65625 -1.96875l0.296875 0zm-2.21875 5.96875q-0.859375 0 -1.59375 0.515625q-0.734375 0.515625 -1.015625 1.3125l0 0.609375q0 1.640625 0.734375 2.640625q0.75 1.0 1.84375 1.0q1.140625 0 1.796875 -0.828125q0.65625 -0.84375 0.65625 -2.203125q0 -1.359375 -0.671875 -2.203125q-0.65625 -0.84375 -1.75 -0.84375zm12.694672 -5.96875l0 1.421875l-0.3125 0q-1.96875 0.03125 -3.140625 1.171875q-1.15625 1.125 -1.34375 3.171875q1.046875 -1.203125 2.859375 -1.203125q1.734375 0 2.765625 1.21875q1.03125 1.21875 1.03125 3.15625q0 2.046875 -1.125 3.28125q-1.109375 1.234375 -2.984375 1.234375q-1.890625 0 -3.078125 -1.453125q-1.1875 -1.46875 -1.1875 -3.78125l0 -0.640625q0 -3.671875 1.5625 -5.609375q1.5625 -1.9375 4.65625 -1.96875l0.296875 0zm-2.21875 5.96875q-0.859375 0 -1.59375 0.515625q-0.734375 0.515625 -1.015625 1.3125l0 0.609375q0 1.640625 0.734375 2.640625q0.75 1.0 1.84375 1.0q1.140625 0 1.796875 -0.828125q0.65625 -0.84375 0.65625 -2.203125q0 -1.359375 -0.671875 -2.203125q-0.65625 -0.84375 -1.75 -0.84375z" fill-rule="nonzero"/><path fill="#000000" fill-opacity="0.0" d="m-15.503937 74.829506l0 0c0 -3.0847397 2.5006742 -5.585411 5.585413 -5.585411l112.95516 0c1.4813385 0 2.9020157 0.5884628 3.9494781 1.6359329c1.0474701 1.0474625 1.6359329 2.4681396 1.6359329 3.9494781l0 22.340988c0 3.0847397 -2.5006714 5.585411 -5.585411 5.585411l-112.95516 0c-3.0847387 0 -5.585413 -2.5006714 -5.585413 -5.585411z" fill-rule="evenodd"/><path fill="#009688" d="m14.562574 74.5425l0 5.9375l-2.0 0l0 -15.15625l5.59375 0q2.484375 0 3.890625 1.265625q1.40625 1.265625 1.40625 3.359375q0 2.203125 -1.375 3.40625q-1.375 1.1875 -3.953125 1.1875l-3.5625 0zm0 -1.640625l3.59375 0q1.59375 0 2.453125 -0.75q0.859375 -0.75 0.859375 -2.1875q0 -1.34375 -0.859375 -2.15625q-0.859375 -0.8125 -2.34375 -0.84375l-3.703125 0l0 5.9375zm13.236298 7.578125l-1.921875 0l0 -16.0l1.921875 0l0 16.0zm10.050825 0q-0.171875 -0.328125 -0.28125 -1.1875q-1.34375 1.390625 -3.203125 1.390625q-1.671875 0 -2.734373 -0.9375q-1.0625 -0.9375 -1.0625 -2.390625q0 -1.765625 1.328125 -2.734375q1.3437481 -0.96875 3.765623 -0.96875l1.875 0l0 -0.890625q0 -1.015625 -0.609375 -1.609375q-0.59375 -0.59375 -1.765625 -0.59375q-1.03125 0 -1.734375 0.515625q-0.703125 0.515625 -0.703125 1.265625l-1.9374981 0q0 -0.84375 0.59375 -1.625q0.609375 -0.796875 1.6249981 -1.25q1.03125 -0.453125 2.265625 -0.453125q1.953125 0 3.046875 0.96875q1.109375 0.96875 1.15625 2.671875l0 5.1875q0 1.5625 0.390625 2.46875l0 0.171875l-2.015625 0zm-3.203125 -1.46875q0.90625 0 1.71875 -0.46875q0.8125 -0.46875 1.171875 -1.21875l0 -2.3125l-1.5 0q-3.546875 0 -3.546875 2.078125q0 0.90625 0.59375 1.421875q0.609375 0.5 1.5625 0.5zm14.398209 -1.515625q0 -0.78125 -0.59375 -1.21875q-0.578125 -0.4375 -2.046875 -0.75q-1.453125 -0.3125 -2.3125 -0.75q-0.859375 -0.4375 -1.28125 -1.03125q-0.40625 -0.609375 -0.40625 -1.4375q0 -1.390625 1.171875 -2.34375q1.171875 -0.953125 3.0 -0.953125q1.90625 0 3.09375 0.984375q1.2031288 0.984375 1.2031288 2.53125l-1.9375038 0q0 -0.796875 -0.671875 -1.359375q-0.671875 -0.578125 -1.6875 -0.578125q-1.0625 0 -1.65625 0.453125q-0.59375 0.453125 -0.59375 1.203125q0 0.6875 0.546875 1.046875q0.5625 0.359375 2.0 0.6875q1.453125 0.3125 2.34375 0.765625q0.890625 0.4375 1.3281288 1.078125q0.4375 0.625 0.4375 1.53125q0 1.515625 -1.2187538 2.421875q-1.203125 0.90625 -3.125 0.90625q-1.359375 0 -2.40625 -0.46875q-1.03125 -0.484375 -1.625 -1.34375q-0.59375 -0.859375 -0.59375 -1.859375l1.9375 0q0.046875 0.96875 0.765625 1.546875q0.734375 0.5625 1.921875 0.5625q1.09375 0 1.75 -0.4375q0.65625 -0.453125 0.65625 -1.1875zm6.2473183 -8.28125l0.0625 1.25q1.234375 -1.453125 3.34375 -1.453125q2.359375 0 3.21875 1.796875q0.5625 -0.8125 1.453125 -1.296875q0.90625 -0.5 2.125 -0.5q3.71875 0 3.78125 3.921875l0 7.546875l-1.9375 0l0 -7.4375q0 -1.203125 -0.546875 -1.796875q-0.546875 -0.609375 -1.859375 -0.609375q-1.0625 0 -1.78125 0.640625q-0.703125 0.640625 -0.8125 1.71875l0 7.484375l-1.9375 0l0 -7.390625q0 -2.453125 -2.40625 -2.453125q-1.890625 0 -2.59375 1.609375l0 8.234375l-1.921875 0l0 -11.265625l1.8125 0zm23.84961 11.265625q-0.171875 -0.328125 -0.28125 -1.1875q-1.34375 1.390625 -3.203125 1.390625q-1.671875 0 -2.734375 -0.9375q-1.0625 -0.9375 -1.0625 -2.390625q0 -1.765625 1.328125 -2.734375q1.34375 -0.96875 3.765625 -0.96875l1.875 0l0 -0.890625q0 -1.015625 -0.609375 -1.609375q-0.59375 -0.59375 -1.765625 -0.59375q-1.03125 0 -1.734375 0.515625q-0.703125 0.515625 -0.703125 1.265625l-1.9375 0q0 -0.84375 0.59375 -1.625q0.609375 -0.796875 1.625 -1.25q1.03125 -0.453125 2.265625 -0.453125q1.953125 0 3.046875 0.96875q1.109375 0.96875 1.15625 2.671875l0 5.1875q0 1.5625 0.390625 2.46875l0 0.171875l-2.015625 0zm-3.203125 -1.46875q0.90625 0 1.71875 -0.46875q0.8125 -0.46875 1.171875 -1.21875l0 -2.3125l-1.5 0q-3.546875 0 -3.546875 2.078125q0 0.90625 0.59375 1.421875q0.609375 0.5 1.5625 0.5z" fill-rule="nonzero"/><path fill="#009688" d="m20.969496 104.49563q-0.765625 1.09375 -2.15625 1.640625q-1.375 0.546875 -3.203125 0.546875q-1.859375 0 -3.296875 -0.859375q-1.4375 -0.875 -2.21875 -2.46875q-0.78125 -1.609375 -0.8125 -3.734375l0 -1.3125q0 -3.421875 1.59375 -5.3125q1.609375 -1.890625 4.5 -1.890625q2.375 0 3.8125 1.21875q1.453125 1.21875 1.78125 3.4375l-2.0 0q-0.5625 -3.0 -3.578125 -3.0q-2.015625 0 -3.046875 1.40625q-1.03125 1.40625 -1.046875 4.078125l0 1.25q0 2.546875 1.15625 4.0625q1.171875 1.5 3.171875 1.5q1.125 0 1.96875 -0.25q0.84375 -0.25 1.390625 -0.84375l0 -3.40625l-3.515625 0l0 -1.625l5.5 0l0 5.5625zm5.12146 1.984375l-1.921875 0l0 -16.0l1.921875 0l0 16.0zm10.050825 -1.109375q-1.125 1.3125 -3.3125 1.3125q-1.7968731 0 -2.749998 -1.046875q-0.9375 -1.046875 -0.9375 -3.09375l0 -7.328125l1.921875 0l0 7.28125q0 2.5625 2.078123 2.5625q2.21875 0 2.9375 -1.65625l0 -8.1875l1.9375 0l0 11.265625l-1.84375 0l-0.03125 -1.109375zm9.320053 -0.25q1.03125 0 1.796875 -0.625q0.765625 -0.625 0.859375 -1.5625l1.8125 0q-0.046875 0.96875 -0.671875 1.84375q-0.609375 0.875 -1.640625 1.390625q-1.015625 0.515625 -2.15625 0.515625q-2.3125 0 -3.671875 -1.53125q-1.359375 -1.53125 -1.359375 -4.203125l0 -0.328125q0 -1.640625 0.609375 -2.921875q0.609375 -1.28125 1.734375 -1.984375q1.125 -0.703125 2.671875 -0.703125q1.890625 0 3.140625 1.140625q1.265625 1.125 1.34375 2.9375l-1.8125 0q-0.09375 -1.09375 -0.84375 -1.796875q-0.734375 -0.703125 -1.828125 -0.703125q-1.46875 0 -2.28125 1.0625q-0.796875 1.046875 -0.796875 3.046875l0 0.359375q0 1.953125 0.796875 3.015625q0.796875 1.046875 2.296875 1.046875zm6.1326942 -4.375q0 -1.65625 0.640625 -2.984375q0.65625 -1.328125 1.8125 -2.03125q1.171875 -0.71875 2.65625 -0.71875q2.296875 0 3.71875 1.59375q1.421875 1.578125 1.421875 4.234375l0 0.125q0 1.65625 -0.625 2.96875q-0.625 1.296875 -1.796875 2.03125q-1.171875 0.71875 -2.703125 0.71875q-2.28125 0 -3.703125 -1.59375q-1.421875 -1.59375 -1.421875 -4.21875l0 -0.125zm1.9375 0.21875q0 1.875 0.859375 3.015625q0.875 1.140625 2.328125 1.140625q1.46875 0 2.328125 -1.15625q0.875 -1.15625 0.875 -3.21875q0 -1.859375 -0.890625 -3.0q-0.875 -1.15625 -2.328125 -1.15625q-1.421875 0 -2.296875 1.140625q-0.875 1.125 -0.875 3.234375zm17.288696 2.53125q0 -0.78125 -0.59375 -1.21875q-0.578125 -0.4375 -2.046875 -0.75q-1.453125 -0.3125 -2.3125 -0.75q-0.859375 -0.4375 -1.28125 -1.03125q-0.40625 -0.609375 -0.40625 -1.4375q0 -1.390625 1.171875 -2.34375q1.171875 -0.953125 3.0 -0.953125q1.90625 0 3.09375 0.984375q1.203125 0.984375 1.203125 2.53125l-1.9375 0q0 -0.796875 -0.671875 -1.359375q-0.671875 -0.578125 -1.6875 -0.578125q-1.0625 0 -1.65625 0.453125q-0.59375 0.453125 -0.59375 1.203125q0 0.6875 0.546875 1.046875q0.5625 0.359375 2.0 0.6875q1.453125 0.3125 2.34375 0.765625q0.890625 0.4375 1.328125 1.078125q0.4375 0.625 0.4375 1.53125q0 1.515625 -1.21875 2.421875q-1.203125 0.90625 -3.125 0.90625q-1.359375 0 -2.40625 -0.46875q-1.03125 -0.484375 -1.625 -1.34375q-0.59375 -0.859375 -0.59375 -1.859375l1.9375 0q0.046875 0.96875 0.765625 1.546875q0.734375 0.5625 1.921875 0.5625q1.09375 0 1.75 -0.4375q0.65625 -0.453125 0.65625 -1.1875zm9.122314 3.1875q-2.296875 0 -3.734375 -1.5q-1.4375 -1.5 -1.4375 -4.03125l0 -0.34375q0 -1.6875 0.640625 -3.0q0.640625 -1.3125 1.78125 -2.046875q1.15625 -0.75 2.5 -0.75q2.203125 0 3.421875 1.453125q1.21875 1.4375 1.21875 4.125l0 0.8125l-7.640625 0q0.046875 1.65625 0.96875 2.6875q0.9375 1.03125 2.375 1.03125q1.03125 0 1.734375 -0.421875q0.703125 -0.421875 1.234375 -1.109375l1.1875 0.921875q-1.421875 2.171875 -4.25 2.171875zm-0.25 -10.09375q-1.15625 0 -1.953125 0.84375q-0.796875 0.84375 -0.984375 2.375l5.65625 0l0 -0.140625q-0.09375 -1.46875 -0.796875 -2.265625q-0.703125 -0.8125 -1.921875 -0.8125z" fill-rule="nonzero"/><path fill="#414141" d="m109.249344 86.0l0 0c0 -5.044487 4.0893707 -9.133858 9.133858 -9.133858l0 0c2.4224472 0 4.745682 0.9623108 6.4586105 2.6752472c1.7129364 1.7129288 2.6752472 4.0361633 2.6752472 6.4586105l0 0c0 5.044487 -4.089363 9.133858 -9.133858 9.133858l0 0c-5.044487 0 -9.133858 -4.0893707 -9.133858 -9.133858z" fill-rule="evenodd"/><path fill="#000000" fill-opacity="0.0" d="m-15.503937 170.82951l0 0c0 -3.0847473 2.5006742 -5.5854187 5.585413 -5.5854187l112.95516 0c1.4813385 0 2.9020157 0.5884552 3.9494781 1.6359253c1.0474701 1.0474701 1.6359329 2.4681396 1.6359329 3.9494934l0 22.340973c0 3.0847473 -2.5006714 5.5854187 -5.585411 5.5854187l-112.95516 0c-3.0847387 0 -5.585413 -2.5006714 -5.585413 -5.5854187z" fill-rule="evenodd"/><path fill="#701c7f" d="m29.475111 176.48l0 -15.15625l4.953123 0q2.46875 0 3.703125 1.015625q1.25 1.015625 1.25 3.015625q0 1.0625 -0.609375 1.890625q-0.59375 0.8125 -1.640625 1.25q1.234375 0.34375 1.9375 1.3125q0.71875 0.96875 0.71875 2.296875q0 2.046875 -1.328125 3.21875q-1.3125 1.15625 -3.734375 1.15625l-5.249998 0zm2.0 -7.09375l0 5.453125l3.296873 0q1.390625 0 2.203125 -0.71875q0.8125 -0.71875 0.8125 -2.0q0 -2.734375 -2.984375 -2.734375l-3.328123 0zm0 -1.609375l3.015623 0q1.3125 0 2.09375 -0.65625q0.796875 -0.65625 0.796875 -1.765625q0 -1.25 -0.734375 -1.8125q-0.734375 -0.578125 -2.21875 -0.578125l-2.953123 0l0 4.8125zm13.856138 -6.453125l4.953129 12.359375l4.953125 -12.359375l2.59375 0l0 15.15625l-2.0 0l0 -5.90625l0.1875 -6.375l-4.96875 12.28125l-1.5312538 0l-4.96875 -12.25l0.203125 6.34375l0 5.90625l-2.0 0l0 -15.15625l2.578125 0zm18.182957 15.15625l-2.0 0l0 -15.15625l2.0 0l0 15.15625z" fill-rule="nonzero"/><path fill="#000000" d="m34.647312 195.18312l-6.890623 -2.421875l0 -1.78125l8.906248 3.53125l0 1.375l-8.906248 3.546875l0 -1.796875l6.890623 -2.453125zm1.8125 7.28125l-8.703123 0l0 -1.578125l8.703123 0l0 1.578125zm17.527248 0.015625l-9.921871 0l0 -1.390625l5.25 -5.828125q1.1562462 -1.328125 1.5937462 -2.15625q0.453125 -0.828125 0.453125 -1.703125q0 -1.1875 -0.71875 -1.9375q-0.7187462 -0.765625 -1.9218712 -0.765625q-1.4375 0 -2.234375 0.8125q-0.796875 0.8125 -0.796875 2.28125l-1.921875 0q0 -2.09375 1.34375 -3.390625q1.359375 -1.296875 3.609375 -1.296875q2.1249962 0 3.3437462 1.109375q1.234375 1.109375 1.234375 2.953125q0 2.234375 -2.859375 5.328125l-4.062496 4.40625l7.609371 0l0 1.578125zm9.429367 -6.671875q-0.59375 0.71875 -1.4375 1.15625q-0.84375 0.4375 -1.84375 0.4375q-1.3125 0 -2.28125 -0.640625q-0.96875 -0.640625 -1.5 -1.8125q-0.53125 -1.171875 -0.53125 -2.59375q0 -1.515625 0.578125 -2.734375q0.578125 -1.21875 1.640625 -1.859375q1.0625 -0.65625 2.46875 -0.65625q2.25 0 3.546875 1.6875q1.296875 1.6875 1.296875 4.578125l0 0.5625q0 4.4375 -1.75 6.46875q-1.75 2.03125 -5.28125 2.09375l-0.375 0l0 -1.625l0.40625 0q2.390625 -0.046875 3.671875 -1.25q1.28125 -1.203125 1.390625 -3.8125zm-2.96875 0q0.96875 0 1.78125 -0.59375q0.828125 -0.59375 1.203125 -1.46875l0 -0.765625q0 -1.890625 -0.828125 -3.078125q-0.8125 -1.1875 -2.078125 -1.1875q-1.265625 0 -2.046875 0.984375q-0.765625 0.96875 -0.765625 2.546875q0 1.5625 0.734375 2.5625q0.75 1.0 2.0 1.0z" fill-rule="nonzero"/><path fill="#000000" fill-opacity="0.0" d="m-15.503937 242.82951l0 0c0 -3.0847473 2.5006742 -5.5854187 5.585413 -5.5854187l112.95516 0c1.4813385 0 2.9020157 0.5884552 3.9494781 1.6359253c1.0474701 1.0474701 1.6359329 2.4681396 1.6359329 3.9494934l0 22.340988c0 3.0847168 -2.5006714 5.5854187 -5.585411 5.5854187l-112.95516 0c-3.0847387 0 -5.585413 -2.500702 -5.585413 -5.5854187z" fill-rule="evenodd"/><path fill="#78909c" d="m38.110462 244.52687l-6.359373 0l-1.421875 3.953125l-2.0625 0l5.781248 -15.15625l1.75 0l5.796875 15.15625l-2.046875 0l-1.4375 -3.953125zm-5.75 -1.65625l5.15625 0l-2.59375 -7.078125l-2.5625 7.078125zm10.522644 -0.125q0 -2.625 1.21875 -4.171875q1.21875 -1.5625 3.234375 -1.5625q2.0625 0 3.2187462 1.453125l0.09375 -1.25l1.75 0l0 11.0q0 2.1875 -1.296875 3.4375q-1.2968712 1.265625 -3.4843712 1.265625q-1.21875 0 -2.390625 -0.53125q-1.15625 -0.515625 -1.765625 -1.421875l1.0 -1.15625q1.234375 1.53125 3.03125 1.53125q1.40625 0 2.1875 -0.796875q0.7812462 -0.78125 0.7812462 -2.21875l0 -0.96875q-1.1562462 1.328125 -3.1562462 1.328125q-1.96875 0 -3.203125 -1.59375q-1.21875 -1.59375 -1.21875 -4.34375zm1.9375 0.21875q0 1.90625 0.78125 3.0q0.78125 1.09375 2.1875 1.09375q1.828125 0 2.6718712 -1.65625l0 -5.15625q-0.8749962 -1.609375 -2.6562462 -1.609375q-1.40625 0 -2.203125 1.09375q-0.78125 1.09375 -0.78125 3.234375zm15.168957 5.71875q-2.296875 0 -3.734375 -1.5q-1.4375 -1.5 -1.4375 -4.03125l0 -0.34375q0 -1.6875 0.640625 -3.0q0.640625 -1.3125 1.78125 -2.046875q1.15625 -0.75 2.5 -0.75q2.203125 0 3.421875 1.453125q1.21875 1.4375 1.21875 4.125l0 0.8125l-7.640625 0q0.046875 1.65625 0.96875 2.6875q0.9375 1.03125 2.375 1.03125q1.03125 0 1.734375 -0.421875q0.703125 -0.421875 1.234375 -1.109375l1.1875 0.921875q-1.421875 2.171875 -4.25 2.171875zm-0.25 -10.09375q-1.15625 0 -1.953125 0.84375q-0.796875 0.84375 -0.984375 2.375l5.65625 0l0 -0.140625q-0.09375 -1.46875 -0.796875 -2.265625q-0.703125 -0.8125 -1.921875 -0.8125z" fill-rule="nonzero"/><path fill="#000000" d="m34.647312 267.18314l-6.890623 -2.421875l0 -1.78125l8.906248 3.53125l0 1.375l-8.906248 3.546875l0 -1.796875l6.890623 -2.453125zm1.8125 7.28125l-8.703123 0l0 -1.578125l8.703123 0l0 1.578125zm17.527248 0.015625l-9.921871 0l0 -1.390625l5.25 -5.828125q1.1562462 -1.328125 1.5937462 -2.15625q0.453125 -0.828125 0.453125 -1.703125q0 -1.1875 -0.71875 -1.9375q-0.7187462 -0.765625 -1.9218712 -0.765625q-1.4375 0 -2.234375 0.8125q-0.796875 0.8125 -0.796875 2.28125l-1.921875 0q0 -2.09375 1.34375 -3.390625q1.359375 -1.296875 3.609375 -1.296875q2.1249962 0 3.3437462 1.109375q1.234375 1.109375 1.234375 2.953125q0 2.234375 -2.859375 5.328125l-4.062496 4.40625l7.609371 0l0 1.578125zm9.429367 -6.671875q-0.59375 0.71875 -1.4375 1.15625q-0.84375 0.4375 -1.84375 0.4375q-1.3125 0 -2.28125 -0.640625q-0.96875 -0.640625 -1.5 -1.8125q-0.53125 -1.171875 -0.53125 -2.59375q0 -1.515625 0.578125 -2.734375q0.578125 -1.21875 1.640625 -1.859375q1.0625 -0.65625 2.46875 -0.65625q2.25 0 3.546875 1.6875q1.296875 1.6875 1.296875 4.578125l0 0.5625q0 4.4375 -1.75 6.46875q-1.75 2.03125 -5.28125 2.09375l-0.375 0l0 -1.625l0.40625 0q2.390625 -0.046875 3.671875 -1.25q1.28125 -1.203125 1.390625 -3.8125zm-2.96875 0q0.96875 0 1.78125 -0.59375q0.828125 -0.59375 1.203125 -1.46875l0 -0.765625q0 -1.890625 -0.828125 -3.078125q-0.8125 -1.1875 -2.078125 -1.1875q-1.265625 0 -2.046875 0.984375q-0.765625 0.96875 -0.765625 2.546875q0 1.5625 0.734375 2.5625q0.75 1.0 2.0 1.0z" fill-rule="nonzero"/><path fill="#414141" d="m109.249344 254.0l0 0c0 -5.0444946 4.0893707 -9.133865 9.133858 -9.133865l0 0c2.4224472 0 4.745682 0.96232605 6.4586105 2.6752472c1.7129364 1.7129364 2.6752472 4.0361633 2.6752472 6.458618l0 0c0 5.0444946 -4.089363 9.13385 -9.133858 9.13385l0 0c-5.044487 0 -9.133858 -4.0893555 -9.133858 -9.13385z" fill-rule="evenodd"/><path fill="#000000" fill-opacity="0.0" d="m139.4147 245.03915l0 0c0 -3.084732 2.5006714 -5.5854187 5.5854034 -5.5854187l112.955154 0c1.4813538 0 2.902008 0.58847046 3.9494934 1.6359406c1.0474548 1.0474701 1.6359253 2.4681396 1.6359253 3.9494781l0 22.340973c0 3.0847473 -2.5006714 5.5854187 -5.5854187 5.5854187l-112.955154 0c-3.084732 0 -5.5854034 -2.5006714 -5.5854034 -5.5854187z" fill-rule="evenodd"/><path fill="#3d3d3d" d="m157.03499 255.54903l4.21875 0l0 1.8281097l-4.21875 0l0 4.796875l-1.9375 0l0 -4.796875l-4.234375 0l0 -1.8281097l4.234375 0l0 -4.421875l1.9375 0l0 4.421875zm15.872055 1.6718597q0 3.390625 -1.15625 5.03125q-1.15625 1.640625 -3.609375 1.640625q-2.421875 0 -3.59375 -1.609375q-1.171875 -1.609375 -1.203125 -4.796875l0 -2.5781097q0 -3.34375 1.15625 -4.96875q1.15625 -1.625 3.625 -1.625q2.4375 0 3.59375 1.578125q1.15625 1.5625 1.1875 4.828125l0 2.4999847zm-1.921875 -2.6406097q0 -2.4375 -0.6875 -3.546875q-0.6875 -1.125 -2.171875 -1.125q-1.484375 0 -2.171875 1.109375q-0.671875 1.109375 -0.6875 3.421875l0 3.0781097q0 2.46875 0.703125 3.640625q0.71875 1.171875 2.171875 1.171875q1.421875 0 2.109375 -1.109375q0.703125 -1.109375 0.734375 -3.484375l0 -3.1562347zm4.632492 8.093735q0 -0.5 0.296875 -0.828125q0.296875 -0.328125 0.890625 -0.328125q0.59375 0 0.890625 0.328125q0.3125 0.328125 0.3125 0.828125q0 0.484375 -0.3125 0.8125q-0.296875 0.3125 -0.890625 0.3125q-0.59375 0 -0.890625 -0.3125q-0.296875 -0.328125 -0.296875 -0.8125zm11.70697 1.015625l-1.9375 0l0 -12.843735l-3.890625 1.4375l0 -1.75l5.53125 -2.078125l0.296875 0l0 15.23436zm15.429367 -14.07811l-6.28125 14.07811l-2.015625 0l6.265625 -13.57811l-8.21875 0l0 -1.578125l10.25 0l0 1.078125z" fill-rule="nonzero"/><path fill="#414141" d="m109.249344 174.0l0 0c0 -5.0444946 4.0893707 -9.133865 9.133858 -9.133865l0 0c2.4224472 0 4.745682 0.96232605 6.4586105 2.6752472c1.7129364 1.7129364 2.6752472 4.0361633 2.6752472 6.458618l0 0c0 5.0444946 -4.089363 9.133865 -9.133858 9.133865l0 0c-5.044487 0 -9.133858 -4.0893707 -9.133858 -9.133865z" fill-rule="evenodd"/><path fill="#000000" fill-opacity="0.0" d="m139.4147 162.82918l0 0c0 -3.084732 2.5006714 -5.5854034 5.5854034 -5.5854034l112.955154 0c1.4813538 0 2.902008 0.5884552 3.9494934 1.6359253c1.0474548 1.0474701 1.6359253 2.4681396 1.6359253 3.9494781l0 22.340988c0 3.084732 -2.5006714 5.5854187 -5.5854187 5.5854187l-112.955154 0c-3.084732 0 -5.5854034 -2.5006866 -5.5854034 -5.5854187z" fill-rule="evenodd"/><path fill="#3d3d3d" d="m157.03499 173.33905l4.21875 0l0 1.828125l-4.21875 0l0 4.796875l-1.9375 0l0 -4.796875l-4.234375 0l0 -1.828125l4.234375 0l0 -4.421875l1.9375 0l0 4.421875zm15.872055 1.671875q0 3.390625 -1.15625 5.03125q-1.15625 1.640625 -3.609375 1.640625q-2.421875 0 -3.59375 -1.609375q-1.171875 -1.609375 -1.203125 -4.796875l0 -2.578125q0 -3.34375 1.15625 -4.96875q1.15625 -1.625 3.625 -1.625q2.4375 0 3.59375 1.578125q1.15625 1.5625 1.1875 4.828125l0 2.5zm-1.921875 -2.640625q0 -2.4375 -0.6875 -3.546875q-0.6875 -1.125 -2.171875 -1.125q-1.484375 0 -2.171875 1.109375q-0.671875 1.109375 -0.6875 3.421875l0 3.078125q0 2.46875 0.703125 3.640625q0.71875 1.171875 2.171875 1.171875q1.421875 0 2.109375 -1.109375q0.703125 -1.109375 0.734375 -3.484375l0 -3.15625zm4.632492 8.09375q0 -0.5 0.296875 -0.828125q0.296875 -0.328125 0.890625 -0.328125q0.59375 0 0.890625 0.328125q0.3125 0.328125 0.3125 0.828125q0 0.484375 -0.3125 0.8125q-0.296875 0.3125 -0.890625 0.3125q-0.59375 0 -0.890625 -0.3125q-0.296875 -0.328125 -0.296875 -0.8125zm15.30072 1.015625l-9.921875 0l0 -1.390625l5.25 -5.828125q1.15625 -1.328125 1.59375 -2.15625q0.453125 -0.828125 0.453125 -1.703125q0 -1.1875 -0.71875 -1.9375q-0.71875 -0.765625 -1.921875 -0.765625q-1.4375 0 -2.234375 0.8125q-0.796875 0.8125 -0.796875 2.28125l-1.921875 0q0 -2.09375 1.34375 -3.390625q1.359375 -1.296875 3.609375 -1.296875q2.125 0 3.34375 1.109375q1.234375 1.109375 1.234375 2.953125q0 2.234375 -2.859375 5.328125l-4.0625 4.40625l7.609375 0l0 1.578125zm9.616867 -15.171875l0 1.640625l-0.359375 0q-2.25 0.03125 -3.59375 1.328125q-1.328125 1.296875 -1.53125 3.625q1.203125 -1.375 3.265625 -1.375q1.984375 0 3.15625 1.40625q1.1875 1.390625 1.1875 3.59375q0 2.34375 -1.28125 3.75q-1.265625 1.40625 -3.40625 1.40625q-2.1875 0 -3.546875 -1.671875q-1.34375 -1.671875 -1.34375 -4.296875l0 -0.75q0 -4.171875 1.78125 -6.390625q1.796875 -2.21875 5.328125 -2.265625l0.34375 0zm-2.53125 6.828125q-1.0 0 -1.828125 0.59375q-0.828125 0.59375 -1.15625 1.484375l0 0.71875q0 1.875 0.84375 3.015625q0.84375 1.140625 2.109375 1.140625q1.296875 0 2.03125 -0.953125q0.75 -0.953125 0.75 -2.515625q0 -1.5625 -0.75 -2.515625q-0.75 -0.96875 -2.0 -0.96875z" fill-rule="nonzero"/><path fill="#000000" fill-opacity="0.0" d="m129.91342 86.068245l34.31392 0l0 47.590553l128.93019 0" fill-rule="evenodd"/><path stroke="#c2c2c2" stroke-width="3.0" stroke-linejoin="round" stroke-linecap="butt" d="m129.91342 86.068245l34.31392 0l0 47.590553l128.93019 0" fill-rule="evenodd"/><path fill="#000000" fill-opacity="0.0" d="m129.91342 86.068245l34.31392 0l0 -48.50394l128.93019 0" fill-rule="evenodd"/><path stroke="#c2c2c2" stroke-width="3.0" stroke-linejoin="round" stroke-linecap="butt" d="m129.91342 86.068245l34.31392 0l0 -48.50394l128.93019 0" fill-rule="evenodd"/><path fill="#ffffff" d="m289.85077 37.761486l0 0c0 -5.044491 4.0893555 -9.133858 9.13385 -9.133858l0 0c2.4224548 0 4.745697 0.9623146 6.458618 2.6752453c1.7129211 1.7129307 2.675232 4.036165 2.675232 6.4586124l0 0c0 5.044491 -4.0893555 9.133858 -9.13385 9.133858l0 0c-5.0444946 0 -9.13385 -4.089367 -9.13385 -9.133858z" fill-rule="evenodd"/><path stroke="#78909c" stroke-width="2.0" stroke-linejoin="round" stroke-linecap="butt" d="m289.85077 37.761486l0 0c0 -5.044491 4.0893555 -9.133858 9.13385 -9.133858l0 0c2.4224548 0 4.745697 0.9623146 6.458618 2.6752453c1.7129211 1.7129307 2.675232 4.036165 2.675232 6.4586124l0 0c0 5.044491 -4.0893555 9.133858 -9.13385 9.133858l0 0c-5.0444946 0 -9.13385 -4.089367 -9.13385 -9.133858z" fill-rule="evenodd"/><path fill="#000000" fill-opacity="0.0" d="m307.89542 120.54802l0 0c0 -3.0847397 2.5006714 -5.5854187 5.5854187 -5.5854187l99.50632 0c1.4813538 0 2.902008 0.5884628 3.9494934 1.6359329c1.0474548 1.0474701 1.6359253 2.4681396 1.6359253 3.9494858l0 22.340988c0 3.084732 -2.5006714 5.5854034 -5.5854187 5.5854034l-99.50632 0c-3.0847473 0 -5.5854187 -2.5006714 -5.5854187 -5.5854034z" fill-rule="evenodd"/><path fill="#3d3d3d" d="m325.5157 131.05788l4.21875 0l0 1.828125l-4.21875 0l0 4.796875l-1.9375 0l0 -4.796875l-4.234375 0l0 -1.828125l4.234375 0l0 -4.4218674l1.9375 0l0 4.4218674zm15.87207 1.671875q0 3.390625 -1.15625 5.03125q-1.15625 1.640625 -3.609375 1.640625q-2.421875 0 -3.59375 -1.609375q-1.171875 -1.609375 -1.203125 -4.796875l0 -2.578125q0 -3.3437424 1.15625 -4.9687424q1.15625 -1.625 3.625 -1.625q2.4375 0 3.59375 1.578125q1.15625 1.5625 1.1875 4.8281174l0 2.5zm-1.921875 -2.640625q0 -2.4374924 -0.6875 -3.5468674q-0.6875 -1.125 -2.171875 -1.125q-1.484375 0 -2.171875 1.109375q-0.671875 1.109375 -0.6875 3.4218674l0 3.078125q0 2.46875 0.703125 3.640625q0.71875 1.171875 2.171875 1.171875q1.421875 0 2.109375 -1.109375q0.703125 -1.109375 0.734375 -3.484375l0 -3.15625zm4.632477 8.09375q0 -0.5 0.296875 -0.828125q0.296875 -0.328125 0.890625 -0.328125q0.59375 0 0.890625 0.328125q0.3125 0.328125 0.3125 0.828125q0 0.484375 -0.3125 0.8125q-0.296875 0.3125 -0.890625 0.3125q-0.59375 0 -0.890625 -0.3125q-0.296875 -0.328125 -0.296875 -0.8125zm6.253845 -6.59375l0.78125 -7.5468674l7.765625 0l0 1.78125l-6.140625 0l-0.453125 4.1249924q1.109375 -0.65625 2.53125 -0.65625q2.078125 0 3.28125 1.375q1.21875 1.359375 1.21875 3.703125q0 2.34375 -1.265625 3.6875q-1.25 1.34375 -3.53125 1.34375q-2.0 0 -3.28125 -1.109375q-1.265625 -1.109375 -1.4375 -3.078125l1.8125 0q0.1875 1.296875 0.9375 1.96875q0.75 0.65625 1.96875 0.65625q1.34375 0 2.109375 -0.921875q0.765625 -0.921875 0.765625 -2.53125q0 -1.515625 -0.828125 -2.4375q-0.828125 -0.921875 -2.203125 -0.921875q-1.25 0 -1.96875 0.546875l-0.515625 0.421875l-1.546875 -0.40625zm11.976257 0l0.78125 -7.5468674l7.765625 0l0 1.78125l-6.140625 0l-0.453125 4.1249924q1.109375 -0.65625 2.53125 -0.65625q2.078125 0 3.28125 1.375q1.21875 1.359375 1.21875 3.703125q0 2.34375 -1.265625 3.6875q-1.25 1.34375 -3.53125 1.34375q-2.0 0 -3.28125 -1.109375q-1.265625 -1.109375 -1.4375 -3.078125l1.8125 0q0.1875 1.296875 0.9375 1.96875q0.75 0.65625 1.96875 0.65625q1.34375 0 2.109375 -0.921875q0.765625 -0.921875 0.765625 -2.53125q0 -1.515625 -0.828125 -2.4375q-0.828125 -0.921875 -2.203125 -0.921875q-1.25 0 -1.96875 0.546875l-0.515625 0.421875l-1.546875 -0.40625z" fill-rule="nonzero"/><path fill="#ffffff" d="m291.63815 131.71785l0 0c0 -5.044487 4.089386 -9.133858 9.133881 -9.133858l0 0c2.4224243 0 4.7456665 0.9623184 6.4585876 2.6752472c1.7129517 1.7129288 2.6752625 4.0361557 2.6752625 6.4586105l0 0c0 5.0444946 -4.089386 9.133865 -9.13385 9.133865l0 0c-5.0444946 0 -9.133881 -4.0893707 -9.133881 -9.133865z" fill-rule="evenodd"/><path stroke="#78909c" stroke-width="2.0" stroke-linejoin="round" stroke-linecap="butt" d="m291.63815 131.71785l0 0c0 -5.044487 4.089386 -9.133858 9.133881 -9.133858l0 0c2.4224243 0 4.7456665 0.9623184 6.4585876 2.6752472c1.7129517 1.7129288 2.6752625 4.0361557 2.6752625 6.4586105l0 0c0 5.0444946 -4.089386 9.133865 -9.13385 9.133865l0 0c-5.0444946 0 -9.133881 -4.0893707 -9.133881 -9.133865z" fill-rule="evenodd"/><path fill="#000000" fill-opacity="0.0" d="m129.91399 86.05908l34.804703 0l0 -0.31495667l126.17166 0" fill-rule="evenodd"/><path stroke="#c2c2c2" stroke-width="3.0" stroke-linejoin="round" stroke-linecap="butt" d="m129.91399 86.05908l34.804703 0l0 -0.31495667l126.17166 0" fill-rule="evenodd"/><path fill="#ffffff" d="m290.89035 85.744125l0 0c0 -5.0444946 4.089386 -9.133858 9.133881 -9.133858l0 0c2.4224548 0 4.7456665 0.9623108 6.4585876 2.6752472c1.7129517 1.7129288 2.6752625 4.0361633 2.6752625 6.4586105l0 0c0 5.044487 -4.0893555 9.133858 -9.13385 9.133858l0 0c-5.0444946 0 -9.133881 -4.0893707 -9.133881 -9.133858z" fill-rule="evenodd"/><path stroke="#78909c" stroke-width="2.0" stroke-linejoin="round" stroke-linecap="butt" d="m290.89035 85.744125l0 0c0 -5.0444946 4.089386 -9.133858 9.133881 -9.133858l0 0c2.4224548 0 4.7456665 0.9623108 6.4585876 2.6752472c1.7129517 1.7129288 2.6752625 4.0361633 2.6752625 6.4586105l0 0c0 5.044487 -4.0893555 9.133858 -9.13385 9.133858l0 0c-5.0444946 0 -9.133881 -4.0893707 -9.133881 -9.133858z" fill-rule="evenodd"/><path fill="#000000" fill-opacity="0.0" d="m172.23274 5.656168l105.16536 0l0 42.015747l-105.16536 0z" fill-rule="evenodd"/><path fill="#999999" d="m204.45703 26.404291l5.703125 2.078125l0 1.59375l-7.453125 -3.109375l0 -1.1875l7.453125 -3.09375l0 1.609375l-5.703125 2.109375zm5.765625 6.140623l-7.609375 0l0 -1.3749981l7.609375 0l0 1.3749981zm12.570251 0.03125l-1.6875 0l0 -11.234373l-3.40625 1.25l0 -1.53125l4.828125 -1.8125l0.265625 0l0 13.328123zm13.632172 0l-8.6875 0l0 -1.2187481l4.578125 -5.09375q1.03125 -1.15625 1.40625 -1.875q0.390625 -0.734375 0.390625 -1.5q0 -1.046875 -0.625 -1.703125q-0.625 -0.671875 -1.671875 -0.671875q-1.265625 0 -1.96875 0.71875q-0.6875 0.71875 -0.6875 1.984375l-1.6875 0q0 -1.828125 1.171875 -2.953125q1.1875 -1.140625 3.171875 -1.140625q1.84375 0 2.921875 0.984375q1.078125 0.96875 1.078125 2.578125q0 1.953125 -2.5 4.65625l-3.546875 3.859375l6.65625 0l0 1.3749981zm9.819672 -9.796873q0 0.984375 -0.53125 1.765625q-0.515625 0.765625 -1.40625 1.203125q1.046875 0.453125 1.640625 1.3125q0.609375 0.84375 0.609375 1.9375q0 1.71875 -1.171875 2.75q-1.15625 1.0156231 -3.046875 1.0156231q-1.90625 0 -3.0625 -1.0312481q-1.15625 -1.03125 -1.15625 -2.734375q0 -1.078125 0.59375 -1.9375q0.59375 -0.875 1.625 -1.3125q-0.890625 -0.4375 -1.40625 -1.203125q-0.5 -0.78125 -0.5 -1.765625q0 -1.6875 1.078125 -2.671875q1.078125 -0.984375 2.828125 -0.984375q1.75 0 2.828125 0.984375q1.078125 0.984375 1.078125 2.671875zm-1.375 6.1875q0 -1.125 -0.703125 -1.8125q-0.703125 -0.703125 -1.84375 -0.703125q-1.140625 0 -1.828125 0.6875q-0.6875 0.6875 -0.6875 1.828125q0 1.125 0.671875 1.78125q0.671875 0.640625 1.859375 0.640625q1.1875 0 1.859375 -0.65625q0.671875 -0.65625 0.671875 -1.765625zm-2.53125 -8.453125q-0.984375 0 -1.609375 0.625q-0.609375 0.609375 -0.609375 1.65625q0 1.015625 0.609375 1.640625q0.609375 0.625 1.609375 0.625q1.015625 0 1.609375 -0.625q0.609375 -0.625 0.609375 -1.625q0 -1.015625 -0.625 -1.65625q-0.625 -0.640625 -1.59375 -0.640625z" fill-rule="nonzero"/><path fill="#000000" fill-opacity="0.0" d="m176.71301 101.656166l100.566925 0l0 42.015755l-100.566925 0z" fill-rule="evenodd"/><path fill="#999999" d="m213.63884 122.201164l-6.015625 -2.125l0 -1.5625l7.78125 3.109375l0 1.1875l-7.78125 3.109375l0 -1.5625l6.015625 -2.15625zm1.59375 6.3593826l-7.609375 0l0 -1.3750076l7.609375 0l0 1.3750076zm7.5687714 0.015625l-1.6875 0l0 -11.234383l-3.40625 1.25l0 -1.53125l4.828125 -1.8125l0.265625 0l0 13.328133zm11.554047 -13.265633l0 1.421875l-0.3125 0q-1.96875 0.03125 -3.140625 1.171875q-1.15625 1.125 -1.34375 3.171875q1.046875 -1.203125 2.859375 -1.203125q1.734375 0 2.765625 1.21875q1.03125 1.21875 1.03125 3.15625q0 2.046875 -1.125 3.28125q-1.109375 1.2343826 -2.984375 1.2343826q-1.890625 0 -3.078125 -1.4531326q-1.1875 -1.46875 -1.1875 -3.78125l0 -0.640625q0 -3.671875 1.5625 -5.609375q1.5625 -1.9375 4.65625 -1.96875l0.296875 0zm-2.21875 5.96875q-0.859375 0 -1.59375 0.515625q-0.734375 0.515625 -1.015625 1.3125l0 0.609375q0 1.640625 0.734375 2.640625q0.75 1.0 1.84375 1.0q1.140625 0 1.796875 -0.828125q0.65625 -0.84375 0.65625 -2.203125q0 -1.359375 -0.671875 -2.203125q-0.65625 -0.84375 -1.75 -0.84375zm12.694672 -5.96875l0 1.421875l-0.3125 0q-1.96875 0.03125 -3.140625 1.171875q-1.15625 1.125 -1.34375 3.171875q1.046875 -1.203125 2.859375 -1.203125q1.734375 0 2.765625 1.21875q1.03125 1.21875 1.03125 3.15625q0 2.046875 -1.125 3.28125q-1.109375 1.2343826 -2.984375 1.2343826q-1.890625 0 -3.078125 -1.4531326q-1.1875 -1.46875 -1.1875 -3.78125l0 -0.640625q0 -3.671875 1.5625 -5.609375q1.5625 -1.9375 4.65625 -1.96875l0.296875 0zm-2.21875 5.96875q-0.859375 0 -1.59375 0.515625q-0.734375 0.515625 -1.015625 1.3125l0 0.609375q0 1.640625 0.734375 2.640625q0.75 1.0 1.84375 1.0q1.140625 0 1.796875 -0.828125q0.65625 -0.84375 0.65625 -2.203125q0 -1.359375 -0.671875 -2.203125q-0.65625 -0.84375 -1.75 -0.84375z" fill-rule="nonzero"/><path fill="#000000" fill-opacity="0.0" d="m309.90588 75.521835l0 0c0 -3.084732 2.5006714 -5.585411 5.5854187 -5.585411l99.50632 0c1.4813538 0 2.9020386 0.5884628 3.9494934 1.6359329c1.0474548 1.0474625 1.6359253 2.4681396 1.6359253 3.9494781l0 22.340988c0 3.0847397 -2.5006714 5.585411 -5.5854187 5.585411l-99.50632 0c-3.0847473 0 -5.5854187 -2.5006714 -5.5854187 -5.585411z" fill-rule="evenodd"/><path fill="#3d3d3d" d="m327.52615 86.03171l4.21875 0l0 1.828125l-4.21875 0l0 4.796875l-1.9375 0l0 -4.796875l-4.234375 0l0 -1.828125l4.234375 0l0 -4.421875l1.9375 0l0 4.421875zm15.87207 1.671875q0 3.390625 -1.15625 5.03125q-1.15625 1.640625 -3.609375 1.640625q-2.421875 0 -3.59375 -1.609375q-1.171875 -1.609375 -1.203125 -4.796875l0 -2.578125q0 -3.34375 1.15625 -4.96875q1.15625 -1.625 3.625 -1.625q2.4375 0 3.59375 1.578125q1.15625 1.5625 1.1875 4.828125l0 2.5zm-1.921875 -2.640625q0 -2.4375 -0.6875 -3.546875q-0.6875 -1.125 -2.171875 -1.125q-1.484375 0 -2.171875 1.109375q-0.671875 1.109375 -0.6875 3.421875l0 3.078125q0 2.46875 0.703125 3.640625q0.71875 1.171875 2.171875 1.171875q1.421875 0 2.109375 -1.109375q0.703125 -1.109375 0.734375 -3.484375l0 -3.15625zm4.632477 8.09375q0 -0.5 0.296875 -0.828125q0.296875 -0.328125 0.890625 -0.328125q0.59375 0 0.890625 0.328125q0.3125 0.328125 0.3125 0.828125q0 0.484375 -0.3125 0.8125q-0.296875 0.3125 -0.890625 0.3125q-0.59375 0 -0.890625 -0.3125q-0.296875 -0.328125 -0.296875 -0.8125zm15.30072 1.015625l-9.921875 0l0 -1.390625l5.25 -5.828125q1.15625 -1.328125 1.59375 -2.15625q0.453125 -0.828125 0.453125 -1.703125q0 -1.1875 -0.71875 -1.9375q-0.71875 -0.765625 -1.921875 -0.765625q-1.4375 0 -2.234375 0.8125q-0.796875 0.8125 -0.796875 2.28125l-1.921875 0q0 -2.09375 1.34375 -3.390625q1.359375 -1.296875 3.609375 -1.296875q2.125 0 3.34375 1.109375q1.234375 1.109375 1.234375 2.953125q0 2.234375 -2.859375 5.328125l-4.0625 4.40625l7.609375 0l0 1.578125zm11.976257 0l-9.921875 0l0 -1.390625l5.25 -5.828125q1.15625 -1.328125 1.59375 -2.15625q0.453125 -0.828125 0.453125 -1.703125q0 -1.1875 -0.71875 -1.9375q-0.71875 -0.765625 -1.921875 -0.765625q-1.4375 0 -2.234375 0.8125q-0.796875 0.8125 -0.796875 2.28125l-1.921875 0q0 -2.09375 1.34375 -3.390625q1.359375 -1.296875 3.609375 -1.296875q2.125 0 3.34375 1.109375q1.234375 1.109375 1.234375 2.953125q0 2.234375 -2.859375 5.328125l-4.0625 4.40625l7.609375 0l0 1.578125z" fill-rule="nonzero"/><path fill="#000000" fill-opacity="0.0" d="m309.90588 27.52184l0 0c0 -3.0847397 2.5006714 -5.585415 5.5854187 -5.585415l99.50632 0c1.4813538 0 2.9020386 0.5884628 3.9494934 1.635931c1.0474548 1.0474682 1.6359253 2.4681396 1.6359253 3.9494839l0 22.340984c0 3.0847359 -2.5006714 5.585411 -5.5854187 5.585411l-99.50632 0c-3.0847473 0 -5.5854187 -2.5006752 -5.5854187 -5.585411z" fill-rule="evenodd"/><path fill="#3d3d3d" d="m326.01053 40.51608l-5.078125 0l0 -1.578125l5.078125 0l0 1.578125zm11.180878 -0.8125q0 3.390625 -1.15625 5.03125q-1.15625 1.640625 -3.609375 1.640625q-2.421875 0 -3.59375 -1.609375q-1.171875 -1.609375 -1.203125 -4.796875l0 -2.578125q0 -3.34375 1.15625 -4.96875q1.15625 -1.625 3.625 -1.625q2.4375 0 3.59375 1.578125q1.15625 1.5625 1.1875 4.828125l0 2.5zm-1.921875 -2.640625q0 -2.4375 -0.6875 -3.546875q-0.6875 -1.125 -2.171875 -1.125q-1.484375 0 -2.171875 1.109375q-0.671875 1.109375 -0.6875 3.421875l0 3.078125q0 2.46875 0.703125 3.640625q0.71875 1.171875 2.171875 1.171875q1.421875 0 2.109375 -1.109375q0.703125 -1.109375 0.734375 -3.484375l0 -3.15625zm4.632477 8.09375q0 -0.5 0.296875 -0.828125q0.296875 -0.328125 0.890625 -0.328125q0.59375 0 0.890625 0.328125q0.3125 0.328125 0.3125 0.828125q0 0.484375 -0.3125 0.8125q-0.296875 0.3125 -0.890625 0.3125q-0.59375 0 -0.890625 -0.3125q-0.296875 -0.328125 -0.296875 -0.8125zm14.878845 -5.453125q0 3.390625 -1.15625 5.03125q-1.15625 1.640625 -3.609375 1.640625q-2.421875 0 -3.59375 -1.609375q-1.171875 -1.609375 -1.203125 -4.796875l0 -2.578125q0 -3.34375 1.15625 -4.96875q1.15625 -1.625 3.625 -1.625q2.4375 0 3.59375 1.578125q1.15625 1.5625 1.1875 4.828125l0 2.5zm-1.921875 -2.640625q0 -2.4375 -0.6875 -3.546875q-0.6875 -1.125 -2.171875 -1.125q-1.484375 0 -2.171875 1.109375q-0.671875 1.109375 -0.6875 3.421875l0 3.078125q0 2.46875 0.703125 3.640625q0.71875 1.171875 2.171875 1.171875q1.421875 0 2.109375 -1.109375q0.703125 -1.109375 0.734375 -3.484375l0 -3.15625zm11.960632 -6.0625l0 1.640625l-0.359375 0q-2.25 0.03125 -3.59375 1.328125q-1.328125 1.296875 -1.53125 3.625q1.203125 -1.375 3.265625 -1.375q1.984375 0 3.15625 1.40625q1.1875 1.390625 1.1875 3.59375q0 2.34375 -1.28125 3.75q-1.265625 1.40625 -3.40625 1.40625q-2.1875 0 -3.546875 -1.671875q-1.34375 -1.671875 -1.34375 -4.296875l0 -0.75q0 -4.171875 1.78125 -6.390625q1.796875 -2.21875 5.328125 -2.265625l0.34375 0zm-2.53125 6.828125q-1.0 0 -1.828125 0.59375q-0.828125 0.59375 -1.15625 1.484375l0 0.71875q0 1.875 0.84375 3.015625q0.84375 1.140625 2.109375 1.140625q1.296875 0 2.03125 -0.953125q0.75 -0.953125 0.75 -2.515625q0 -1.5625 -0.75 -2.515625q-0.75 -0.96875 -2.0 -0.96875z" fill-rule="nonzero"/></g></svg>