<svg version="1.1" viewBox="0.0 0.0 228.0 288.0" fill="none" stroke="none" stroke-linecap="square"
     stroke-miterlimit="10"
     xmlns="http://www.w3.org/2000/svg">
    <clipPath id="g106732f9e27_0_4.0">
        <path d="m0 0l228.0 0l0 288.0l-228.0 0l0 -288.0z" clip-rule="nonzero"/>
    </clipPath>
    <g clip-path="url(#g106732f9e27_0_4.0)">
        <path fill="#ffffff" fill-opacity="0.0" d="m0 0l228.0 0l0 288.0l-228.0 0z" fill-rule="evenodd"/>
        <path fill="#000000" fill-opacity="0.0"
              d="m61.473965 92.77988l0 0c19.003819 -23.317726 42.693943 -35.46597 52.913387 -27.133865l-34.409447 42.220474z"
              fill-rule="evenodd"/>
        <path fill="#000000" fill-opacity="0.0"
              d="m61.473965 92.77988l0 0c19.003819 -23.317726 42.693943 -35.46597 52.913387 -27.133865"
              fill-rule="evenodd"/>
        <path stroke="#38761d" stroke-width="16.0" stroke-linejoin="round" stroke-linecap="butt"
              d="m61.473965 92.77988l0 0c19.003819 -23.317726 42.693943 -35.46597 52.913387 -27.133865"
              fill-rule="evenodd"/>
        <path fill="#fff2cc"
              d="m45.20361 236.49805l0 0c-26.648827 -37.4075 -17.694523 -89.49759 19.999996 -116.34645q48.49849 -34.54426 76.67518 -97.61465q5.54187 68.60355 39.828766 116.73275l0 0c26.648819 37.407516 17.694519 89.497604 -20.0 116.346466l0 0c-37.694527 26.848862 -89.85512 18.289383 -116.50394 -19.118118z"
              fill-rule="evenodd"/>
        <path stroke="#674ea7" stroke-width="8.0" stroke-linejoin="round" stroke-linecap="butt"
              d="m45.20361 236.49805l0 0c-26.648827 -37.4075 -17.694523 -89.49759 19.999996 -116.34645q48.49849 -34.54426 76.67518 -97.61465q5.54187 68.60355 39.828766 116.73275l0 0c26.648819 37.407516 17.694519 89.497604 -20.0 116.346466l0 0c-37.694527 26.848862 -89.85512 18.289383 -116.50394 -19.118118z"
              fill-rule="evenodd"/>
        <path fill="#e06666"
              d="m59.84565 229.71194l0 0c-20.856361 -29.275436 -13.354485 -70.40178 16.755905 -91.85826q24.046997 -17.13575 52.544838 -28.02398q23.082153 18.801277 39.738632 42.18145l0 0c20.856354 29.275452 13.354477 70.401794 -16.755905 91.85828l0 0c-30.110397 21.456467 -71.42711 15.117966 -92.28347 -14.157486z"
              fill-rule="evenodd"/>
        <path stroke="#e06666" stroke-width="8.0" stroke-linejoin="round" stroke-linecap="butt"
              d="m59.84565 229.71194l0 0c-20.856361 -29.275436 -13.354485 -70.40178 16.755905 -91.85826q24.046997 -17.13575 52.544838 -28.02398q23.082153 18.801277 39.738632 42.18145l0 0c20.856354 29.275452 13.354477 70.401794 -16.755905 91.85828l0 0c-30.110397 21.456467 -71.42711 15.117966 -92.28347 -14.157486z"
              fill-rule="evenodd"/>
        <path fill="#fff2cc"
              d="m81.334915 172.8288l0 0c0 -6.044693 4.9001923 -10.94487 10.944878 -10.94487l0 0c2.9027634 0 5.686638 1.1531067 7.7392044 3.2056732c2.052559 2.0525665 3.2056808 4.836441 3.2056808 7.739197l0 0c0 6.044693 -4.9001923 10.944885 -10.944885 10.944885l0 0c-6.0446854 0 -10.944878 -4.9001923 -10.944878 -10.944885z"
              fill-rule="evenodd"/>
        <path fill="#fff2cc"
              d="m126.87635 172.8288l0 0c0 -6.044693 4.9001846 -10.94487 10.944878 -10.94487l0 0c2.902771 0 5.6866455 1.1531067 7.739197 3.2056732c2.0525665 2.0525665 3.2056885 4.836441 3.2056885 7.739197l0 0c0 6.044693 -4.9001923 10.944885 -10.944885 10.944885l0 0c-6.044693 0 -10.944878 -4.9001923 -10.944878 -10.944885z"
              fill-rule="evenodd"/>
        <path fill="#000000" fill-opacity="0.0"
              d="m122.95416 230.92879l0 0c-7.2773666 3.2761688 -15.668419 2.9587555 -22.677498 -0.8578186c-7.009079 -3.816574 -11.828796 -10.692673 -13.025673 -18.583237l25.22834 -3.826767z"
              fill-rule="evenodd"/>
        <path fill="#000000" fill-opacity="0.0"
              d="m122.95416 230.92879l0 0c-7.2773666 3.2761688 -15.668419 2.9587555 -22.677498 -0.8578186c-7.009079 -3.816574 -11.828796 -10.692673 -13.025673 -18.583237"
              fill-rule="evenodd"/>
        <path stroke="#fff2cc" stroke-width="12.0" stroke-linejoin="round" stroke-linecap="butt"
              stroke-dasharray="96.0,36.0"
              d="m122.95416 230.92879l0 0c-7.2773666 3.2761688 -15.668419 2.9587555 -22.677498 -0.8578186c-7.009079 -3.816574 -11.828796 -10.692673 -13.025673 -18.583237"
              fill-rule="evenodd"/>
        <path fill="#38761d"
              d="m106.495384 26.697256l0 0c18.038399 -13.907139 42.426537 -12.518164 54.472435 3.1023617q16.0383 20.79768 47.44902 29.743622q-34.282486 5.204525 -58.299408 23.720943l0 0c-18.038406 13.907143 -42.426544 12.518166 -54.472443 -3.1023636l0 0c-12.045898 -15.620522 -7.188011 -39.557426 10.850395 -53.46456z"
              fill-rule="evenodd"/>
        <path stroke="#38761d" stroke-width="8.0" stroke-linejoin="round" stroke-linecap="butt"
              d="m106.495384 26.697256l0 0c18.038399 -13.907139 42.426537 -12.518164 54.472435 3.1023617q16.0383 20.79768 47.44902 29.743622q-34.282486 5.204525 -58.299408 23.720943l0 0c-18.038406 13.907143 -42.426544 12.518166 -54.472443 -3.1023636l0 0c-12.045898 -15.620522 -7.188011 -39.557426 10.850395 -53.46456z"
              fill-rule="evenodd"/>
        <path fill="#ffffff"
              d="m23.124748 186.19196l0 0c-17.725296 -17.742691 -2.4677238 -61.752747 34.07874 -98.29922c36.546467 -36.546463 80.54242 -51.789932 98.267715 -34.04724l0 0c-22.25853 -7.3109894 -59.96714 9.607376 -91.34077 40.980995c-31.37362 31.37362 -48.302177 69.09242 -41.00569 91.36546z"
              fill-rule="evenodd"/>
        <path stroke="#ffffff" stroke-width="1.0" stroke-linejoin="round" stroke-linecap="butt"
              d="m23.124748 186.19196l0 0c-17.725296 -17.742691 -2.4677238 -61.752747 34.07874 -98.29922c36.546467 -36.546463 80.54242 -51.789932 98.267715 -34.04724l0 0c-22.25853 -7.3109894 -59.96714 9.607376 -91.34077 40.980995c-31.37362 31.37362 -48.302177 69.09242 -41.00569 91.36546z"
              fill-rule="evenodd"/>
    </g>
</svg>