<svg version="1.1" viewBox="0.0 0.0 228.0 288.0" fill="none" stroke="none" stroke-linecap="square"
     stroke-miterlimit="10"
     xmlns="http://www.w3.org/2000/svg">
    <clipPath id="g10f8d56089d_0_1.0">
        <path d="m0 0l228.0 0l0 288.0l-228.0 0l0 -288.0z" clip-rule="nonzero"/>
    </clipPath>
    <g clip-path="url(#g10f8d56089d_0_1.0)">
        <path fill="#ffffff" fill-opacity="0.0" d="m0 0l228.0 0l0 288.0l-228.0 0z" fill-rule="evenodd"/>
        <path fill="#000000" fill-opacity="0.0"
              d="m192.33514 92.77988l0 0c-19.003815 -23.317726 -42.69394 -35.46597 -52.91339 -27.133865l34.409454 42.220474z"
              fill-rule="evenodd"/>
        <path fill="#000000" fill-opacity="0.0"
              d="m192.33514 92.77988l0 0c-19.003815 -23.317726 -42.69394 -35.46597 -52.91339 -27.133865"
              fill-rule="evenodd"/>
        <path stroke="#009688" stroke-width="16.0" stroke-linejoin="round" stroke-linecap="butt"
              d="m192.33514 92.77988l0 0c-19.003815 -23.317726 -42.69394 -35.46597 -52.91339 -27.133865"
              fill-rule="evenodd"/>
        <path fill="#fff2cc"
              d="m45.20361 236.49805l0 0c-26.648827 -37.4075 -17.694523 -89.49759 19.999996 -116.34645q48.49849 -34.54426 76.67518 -97.61465q5.54187 68.60355 39.828766 116.73275l0 0c26.648819 37.407516 17.694519 89.497604 -20.0 116.346466l0 0c-37.694527 26.848862 -89.85512 18.289383 -116.50394 -19.118118z"
              fill-rule="evenodd"/>
        <path stroke="#674ea7" stroke-width="8.0" stroke-linejoin="round" stroke-linecap="butt"
              d="m45.20361 236.49805l0 0c-26.648827 -37.4075 -17.694523 -89.49759 19.999996 -116.34645q48.49849 -34.54426 76.67518 -97.61465q5.54187 68.60355 39.828766 116.73275l0 0c26.648819 37.407516 17.694519 89.497604 -20.0 116.346466l0 0c-37.694527 26.848862 -89.85512 18.289383 -116.50394 -19.118118z"
              fill-rule="evenodd"/>
        <path fill="#e06666"
              d="m59.84565 229.71194l0 0c-20.856361 -29.275436 -13.354485 -70.40178 16.755905 -91.85826q24.046997 -17.13575 52.544838 -28.02398q23.082153 18.801277 39.738632 42.18145l0 0c20.856354 29.275452 13.354477 70.401794 -16.755905 91.85828l0 0c-30.110397 21.456467 -71.42711 15.117966 -92.28347 -14.157486z"
              fill-rule="evenodd"/>
        <path stroke="#e06666" stroke-width="8.0" stroke-linejoin="round" stroke-linecap="butt"
              d="m59.84565 229.71194l0 0c-20.856361 -29.275436 -13.354485 -70.40178 16.755905 -91.85826q24.046997 -17.13575 52.544838 -28.02398q23.082153 18.801277 39.738632 42.18145l0 0c20.856354 29.275452 13.354477 70.401794 -16.755905 91.85828l0 0c-30.110397 21.456467 -71.42711 15.117966 -92.28347 -14.157486z"
              fill-rule="evenodd"/>
        <path fill="#009688"
              d="m147.31372 26.697256l0 0c-18.038391 -13.907139 -42.426544 -12.518164 -54.472435 3.1023617q-16.0383 20.79768 -47.449024 29.743622q34.282497 5.204525 58.29942 23.720943l0 0c18.038399 13.907143 42.426544 12.518166 54.472443 -3.1023636l0 0c12.045898 -15.620522 7.1880035 -39.557426 -10.850403 -53.46456z"
              fill-rule="evenodd"/>
        <path stroke="#009688" stroke-width="8.0" stroke-linejoin="round" stroke-linecap="butt"
              d="m147.31372 26.697256l0 0c-18.038391 -13.907139 -42.426544 -12.518164 -54.472435 3.1023617q-16.0383 20.79768 -47.449024 29.743622q34.282497 5.204525 58.29942 23.720943l0 0c18.038399 13.907143 42.426544 12.518166 54.472443 -3.1023636l0 0c12.045898 -15.620522 7.1880035 -39.557426 -10.850403 -53.46456z"
              fill-rule="evenodd"/>
        <path fill="#ffffff"
              d="m230.68436 186.19196l0 0c17.725296 -17.742691 2.4677277 -61.752747 -34.078735 -98.29922c-36.546463 -36.546463 -80.54243 -51.789932 -98.26772 -34.04724l0 0c22.258537 -7.3109894 59.96714 9.607376 91.34077 40.980995c31.373627 31.37362 48.302185 69.09242 41.00569 91.36546z"
              fill-rule="evenodd"/>
        <path stroke="#ffffff" stroke-width="1.0" stroke-linejoin="round" stroke-linecap="butt"
              d="m230.68436 186.19196l0 0c17.725296 -17.742691 2.4677277 -61.752747 -34.078735 -98.29922c-36.546463 -36.546463 -80.54243 -51.789932 -98.26772 -34.04724l0 0c22.258537 -7.3109894 59.96714 9.607376 91.34077 40.980995c31.373627 31.37362 48.302185 69.09242 41.00569 91.36546z"
              fill-rule="evenodd"/>
        <path fill="#fff2cc"
              d="m80.32064 171.94937l0 0c0.31311035 -5.6967926 5.1850967 -10.061142 10.881889 -9.748032q5.1574783 0.28346252 10.314964 0.56692505q-0.28347015 5.157486 -0.5669327 10.314972l0 0c-0.31310272 5.6967926 -5.1850967 10.061127 -10.881889 9.748032l0 0c-5.6967926 -0.31311035 -10.061134 -5.1851044 -9.748032 -10.881897z"
              fill-rule="evenodd"/>
        <path fill="#fff2cc"
              d="m128.3156 172.02493l0 0c0.26960754 -5.6967926 5.1063538 -10.09639 10.803146 -9.826767q5.1574707 0.24409485 10.314957 0.4881897q-0.24409485 5.1574707 -0.4881897 10.314957l0 0c-0.2696228 5.6967926 -5.1063538 10.09639 -10.803146 9.826767l0 0c-5.6967926 -0.26960754 -10.09639 -5.1063538 -9.826767 -10.803146z"
              fill-rule="evenodd"/>
        <path fill="#fff2cc"
              d="m85.558044 220.91832l0 0c2.7918625 -9.975922 13.142197 -15.799744 23.11811 -13.007874q14.424927 4.036957 31.86866 -2.7129364q-14.823822 11.406113 -18.860786 25.83104l0 0c-2.7918625 9.975922 -13.142197 15.799744 -23.11811 13.007874l0 0c-9.975914 -2.79187 -15.799736 -13.142197 -13.007874 -23.118103z"
              fill-rule="evenodd"/>
    </g>
</svg>