<svg version="1.1" viewBox="0.0 0.0 228.0 288.0" fill="none" stroke="none" stroke-linecap="square"
     stroke-miterlimit="10"
     xmlns="http://www.w3.org/2000/svg">
    <clipPath id="g10f8d56089d_0_1.0">
        <path d="m0 0l228.0 0l0 288.0l-228.0 0l0 -288.0z" clip-rule="nonzero"/>
    </clipPath>
    <g clip-path="url(#g10f8d56089d_0_1.0)">
        <path fill="#ffffff" fill-opacity="0.0" d="m0 0l228.0 0l0 288.0l-228.0 0z" fill-rule="evenodd"/>
        <path fill="#000000" fill-opacity="0.0"
              d="m192.33514 92.77988l0 0c-19.003815 -23.317726 -42.69394 -35.46597 -52.91339 -27.133865l34.409454 42.220474z"
              fill-rule="evenodd"/>
        <path fill="#000000" fill-opacity="0.0"
              d="m192.33514 92.77988l0 0c-19.003815 -23.317726 -42.69394 -35.46597 -52.91339 -27.133865"
              fill-rule="evenodd"/>
        <path stroke="#93c47d" stroke-width="16.0" stroke-linejoin="round" stroke-linecap="butt"
              d="m192.33514 92.77988l0 0c-19.003815 -23.317726 -42.69394 -35.46597 -52.91339 -27.133865"
              fill-rule="evenodd"/>
        <path fill="#fff2cc"
              d="m45.20361 236.49805l0 0c-26.648827 -37.4075 -17.694523 -89.49759 19.999996 -116.34645q48.49849 -34.54426 76.67518 -97.61465q5.54187 68.60355 39.828766 116.73275l0 0c26.648819 37.407516 17.694519 89.497604 -20.0 116.346466l0 0c-37.694527 26.848862 -89.85512 18.289383 -116.50394 -19.118118z"
              fill-rule="evenodd"/>
        <path stroke="#674ea7" stroke-width="8.0" stroke-linejoin="round" stroke-linecap="butt"
              d="m45.20361 236.49805l0 0c-26.648827 -37.4075 -17.694523 -89.49759 19.999996 -116.34645q48.49849 -34.54426 76.67518 -97.61465q5.54187 68.60355 39.828766 116.73275l0 0c26.648819 37.407516 17.694519 89.497604 -20.0 116.346466l0 0c-37.694527 26.848862 -89.85512 18.289383 -116.50394 -19.118118z"
              fill-rule="evenodd"/>
        <path fill="#e06666"
              d="m59.84565 229.71194l0 0c-20.856361 -29.275436 -13.354485 -70.40178 16.755905 -91.85826q24.046997 -17.13575 52.544838 -28.02398q23.082153 18.801277 39.738632 42.18145l0 0c20.856354 29.275452 13.354477 70.401794 -16.755905 91.85828l0 0c-30.110397 21.456467 -71.42711 15.117966 -92.28347 -14.157486z"
              fill-rule="evenodd"/>
        <path stroke="#e06666" stroke-width="8.0" stroke-linejoin="round" stroke-linecap="butt"
              d="m59.84565 229.71194l0 0c-20.856361 -29.275436 -13.354485 -70.40178 16.755905 -91.85826q24.046997 -17.13575 52.544838 -28.02398q23.082153 18.801277 39.738632 42.18145l0 0c20.856354 29.275452 13.354477 70.401794 -16.755905 91.85828l0 0c-30.110397 21.456467 -71.42711 15.117966 -92.28347 -14.157486z"
              fill-rule="evenodd"/>
        <path fill="#93c47d"
              d="m147.31372 26.697256l0 0c-18.038391 -13.907139 -42.426544 -12.518164 -54.472435 3.1023617q-16.0383 20.79768 -47.449024 29.743622q34.282497 5.204525 58.29942 23.720943l0 0c18.038399 13.907143 42.426544 12.518166 54.472443 -3.1023636l0 0c12.045898 -15.620522 7.1880035 -39.557426 -10.850403 -53.46456z"
              fill-rule="evenodd"/>
        <path stroke="#93c47d" stroke-width="8.0" stroke-linejoin="round" stroke-linecap="butt"
              d="m147.31372 26.697256l0 0c-18.038391 -13.907139 -42.426544 -12.518164 -54.472435 3.1023617q-16.0383 20.79768 -47.449024 29.743622q34.282497 5.204525 58.29942 23.720943l0 0c18.038399 13.907143 42.426544 12.518166 54.472443 -3.1023636l0 0c12.045898 -15.620522 7.1880035 -39.557426 -10.850403 -53.46456z"
              fill-rule="evenodd"/>
        <path fill="#ffffff"
              d="m230.68436 186.19196l0 0c17.725296 -17.742691 2.4677277 -61.752747 -34.078735 -98.29922c-36.546463 -36.546463 -80.54243 -51.789932 -98.26772 -34.04724l0 0c22.258537 -7.3109894 59.96714 9.607376 91.34077 40.980995c31.373627 31.37362 48.302185 69.09242 41.00569 91.36546z"
              fill-rule="evenodd"/>
        <path stroke="#ffffff" stroke-width="1.0" stroke-linejoin="round" stroke-linecap="butt"
              d="m230.68436 186.19196l0 0c17.725296 -17.742691 2.4677277 -61.752747 -34.078735 -98.29922c-36.546463 -36.546463 -80.54243 -51.789932 -98.26772 -34.04724l0 0c22.258537 -7.3109894 59.96714 9.607376 91.34077 40.980995c31.373627 31.37362 48.302185 69.09242 41.00569 91.36546z"
              fill-rule="evenodd"/>
        <path fill="#fff2cc"
              d="m83.32539 179.83235l0 0c-4.035591 -4.0355835 -4.035591 -10.578583 0 -14.614166q3.6535492 -3.6535492 7.3070908 -7.307083q3.6535416 3.653534 7.307083 7.307083l0 0c4.035591 4.0355835 4.035591 10.578583 0 14.614166l0 0c-4.035591 4.0355988 -10.578583 4.0355988 -14.614174 0z"
              fill-rule="evenodd"/>
        <path fill="#fff2cc"
              d="m131.3254 179.83235l0 0c-4.035591 -4.0355835 -4.035591 -10.578583 0 -14.614166q3.6535492 -3.6535492 7.307083 -7.307083q3.6535492 3.653534 7.3070984 7.307083l0 0c4.0355835 4.0355835 4.0355835 10.578583 0 14.614166l0 0c-4.0355988 4.0355988 -10.578583 4.0355988 -14.6141815 0z"
              fill-rule="evenodd"/>
        <path fill="#fff2cc"
              d="m100.1969 226.91837l0 0c-7.323204 -7.3232117 -7.323204 -19.196472 0 -26.519684q2.4434586 -2.4434662 13.259842 3.4860077q10.816391 -5.929474 13.25985 -3.4860077l0 0c7.323204 7.3232117 7.323204 19.196472 0 26.519684l0 0c-7.3232117 7.3232117 -19.19648 7.3232117 -26.519691 0z"
              fill-rule="evenodd"/>
    </g>
</svg>