<svg version="1.1" viewBox="0.0 0.0 228.0 288.0" fill="none" stroke="none" stroke-linecap="square"
     stroke-miterlimit="10"
     xmlns="http://www.w3.org/2000/svg">
    <clipPath id="g10f8d56089d_0_17.0">
        <path d="m0 0l228.0 0l0 288.0l-228.0 0l0 -288.0z" clip-rule="nonzero"/>
    </clipPath>
    <g clip-path="url(#g10f8d56089d_0_17.0)">
        <path fill="#ffffff" fill-opacity="0.0" d="m0 0l228.0 0l0 288.0l-228.0 0z" fill-rule="evenodd"/>
        <path fill="#93c47d"
              d="m117.120964 40.86095l0 0c-2.026497 5.331505 -7.991333 8.010746 -13.322838 5.984253q-9.653542 -3.6692924 -22.97638 2.3149605q13.322838 -5.984253 16.992126 -15.637798l0 0c2.026497 -5.331503 7.991333 -8.010744 13.322838 -5.984251l0 0c5.331505 2.026495 8.010742 7.991331 5.984253 13.322836z"
              fill-rule="evenodd"/>
        <path stroke="#93c47d" stroke-width="2.0" stroke-linejoin="round" stroke-linecap="butt"
              d="m117.120964 40.86095l0 0c-2.026497 5.331505 -7.991333 8.010746 -13.322838 5.984253q-9.653542 -3.6692924 -22.97638 2.3149605q13.322838 -5.984253 16.992126 -15.637798l0 0c2.026497 -5.331503 7.991333 -8.010744 13.322838 -5.984251l0 0c5.331505 2.026495 8.010742 7.991331 5.984253 13.322836z"
              fill-rule="evenodd"/>
        <path fill="#fff2cc"
              d="m54.19742 247.13031l0 0c-32.47608 -32.47609 -32.271614 -85.32764 0.45669174 -118.04724q42.10886 -42.09767 59.452183 -108.96088q16.826462 66.73559 58.61081 108.51993l0 0c32.47609 32.47609 32.271606 85.32764 -0.45669556 118.04724l0 0c-32.728302 32.719604 -85.58691 32.917023 -118.06299 0.4409485z"
              fill-rule="evenodd"/>
        <path stroke="#674ea7" stroke-width="8.0" stroke-linejoin="round" stroke-linecap="butt"
              d="m54.19742 247.13031l0 0c-32.47608 -32.47609 -32.271614 -85.32764 0.45669174 -118.04724q42.10886 -42.09767 59.452183 -108.96088q16.826462 66.73559 58.61081 108.51993l0 0c32.47609 32.47609 32.271606 85.32764 -0.45669556 118.04724l0 0c-32.728302 32.719604 -85.58691 32.917023 -118.06299 0.4409485z"
              fill-rule="evenodd"/>
        <path fill="#674ea7" d="m86.784775 88.71391l56.598434 0l0 6.614174l-56.598434 0z" fill-rule="evenodd"/>
        <path stroke="#674ea7" stroke-width="1.0" stroke-linejoin="round" stroke-linecap="butt"
              d="m86.784775 88.71391l56.598434 0l0 6.614174l-56.598434 0z" fill-rule="evenodd"/>
        <path fill="#674ea7" d="m94.86877 93.61942l19.496063 -67.90551l19.496056 67.90551z" fill-rule="evenodd"/>
        <path stroke="#674ea7" stroke-width="1.0" stroke-linejoin="round" stroke-linecap="butt"
              d="m94.86877 93.61942l19.496063 -67.90551l19.496056 67.90551z" fill-rule="evenodd"/>
        <path fill="#674ea7" d="m111.84509 95.146126l0.99212646 -63.055115l30.53543 55.1811z" fill-rule="evenodd"/>
        <path stroke="#674ea7" stroke-width="1.0" stroke-linejoin="round" stroke-linecap="butt"
              d="m111.84509 95.146126l0.99212646 -63.055115l30.53543 55.1811z" fill-rule="evenodd"/>
        <path fill="#674ea7" d="m86.78526 87.96334l25.622047 -55.9685l11.007874 60.566925z" fill-rule="evenodd"/>
        <path stroke="#674ea7" stroke-width="1.0" stroke-linejoin="round" stroke-linecap="butt"
              d="m86.78526 87.96334l25.622047 -55.9685l11.007874 60.566925z" fill-rule="evenodd"/>
        <path fill="#93c47d"
              d="m95.167465 21.89719l0 0c4.4965515 -13.83756 19.359291 -21.40994 33.196854 -16.913387q15.139053 4.9194794 31.975327 4.6159678q-10.142471 13.44183 -15.061951 28.580881l0 0c-4.4965515 13.837563 -19.359283 21.409943 -33.196846 16.913387l0 0c-13.837563 -4.4965553 -21.409943 -19.359291 -16.913383 -33.19685z"
              fill-rule="evenodd"/>
        <path fill="#ffffff"
              d="m109.137665 28.849072l0 0c2.1482544 -5.2880173 8.176544 -7.833296 13.464561 -5.6850376q4.787407 1.9448814 9.574806 3.8897629q-1.9448853 4.787401 -3.8897705 9.574804l0 0c-2.1482544 5.2880173 -8.176544 7.833294 -13.464561 5.6850395l0 0c-5.2880173 -2.1482582 -7.8332977 -8.176552 -5.6850357 -13.464569z"
              fill-rule="evenodd"/>
        <path fill="#fff2cc"
              d="m84.49603 160.7827l0 0c-15.542244 -15.542252 -15.175613 -41.10785 0.81890106 -57.102364q15.626717 -15.626724 29.02546 -33.481422q12.892044 17.477669 28.076904 32.66252l0 0c15.542252 15.542252 15.175613 41.10785 -0.81889343 57.10237l0 0c-15.994522 15.994507 -41.56012 16.361145 -57.10237 0.81889343z"
              fill-rule="evenodd"/>
        <path stroke="#fff2cc" stroke-width="8.0" stroke-linejoin="round" stroke-linecap="butt"
              d="m84.49603 160.7827l0 0c-15.542244 -15.542252 -15.175613 -41.10785 0.81890106 -57.102364q15.626717 -15.626724 29.02546 -33.481422q12.892044 17.477669 28.076904 32.66252l0 0c15.542252 15.542252 15.175613 41.10785 -0.81889343 57.10237l0 0c-15.994522 15.994507 -41.56012 16.361145 -57.10237 0.81889343z"
              fill-rule="evenodd"/>
        <path fill="#e06666"
              d="m66.118675 235.2248l0 0c-25.413795 -25.413788 -24.82154 -67.209946 1.3228378 -93.354324q20.879623 -20.879631 47.18267 -36.335846q25.875496 14.716843 46.171654 35.013016l0 0c25.413803 25.413788 24.821548 67.209946 -1.3228302 93.354324l0 0c-26.144379 26.144363 -67.94054 26.736618 -93.35433 1.3228302z"
              fill-rule="evenodd"/>
        <path stroke="#e06666" stroke-width="8.0" stroke-linejoin="round" stroke-linecap="butt"
              d="m66.118675 235.2248l0 0c-25.413795 -25.413788 -24.82154 -67.209946 1.3228378 -93.354324q20.879623 -20.879631 47.18267 -36.335846q25.875496 14.716843 46.171654 35.013016l0 0c25.413803 25.413788 24.821548 67.209946 -1.3228302 93.354324l0 0c-26.144379 26.144363 -67.94054 26.736618 -93.35433 1.3228302z"
              fill-rule="evenodd"/>
        <path fill="#fff2cc"
              d="m83.32539 179.83235l0 0c-4.035591 -4.0355835 -4.035591 -10.578583 0 -14.614166q3.6535492 -3.6535492 7.3070908 -7.307083q3.6535416 3.653534 7.307083 7.307083l0 0c4.035591 4.0355835 4.035591 10.578583 0 14.614166l0 0c-4.035591 4.0355988 -10.578583 4.0355988 -14.614174 0z"
              fill-rule="evenodd"/>
        <path fill="#fff2cc"
              d="m131.3254 179.83235l0 0c-4.035591 -4.0355835 -4.035591 -10.578583 0 -14.614166q3.6535492 -3.6535492 7.307083 -7.307083q3.6535492 3.653534 7.3070984 7.307083l0 0c4.0355835 4.0355835 4.0355835 10.578583 0 14.614166l0 0c-4.0355988 4.0355988 -10.578583 4.0355988 -14.6141815 0z"
              fill-rule="evenodd"/>
        <path fill="#fff2cc"
              d="m100.1969 234.91837l0 0c-7.323204 -7.3232117 -7.323204 -19.196472 0 -26.519684q2.4073944 -2.4073944 13.259842 3.6302795q10.852455 -6.037674 13.25985 -3.6302795l0 0c7.323204 7.3232117 7.323204 19.196472 0 26.519684l0 0c-7.3232117 7.3232117 -19.19648 7.3232117 -26.519691 0z"
              fill-rule="evenodd"/>
        <path fill="#93c47d"
              d="m131.79364 79.1844l0 0c4.4965515 -13.837555 19.359283 -21.409939 33.19684 -16.913383q15.139053 4.9194794 31.975342 4.615967q-10.142471 13.441826 -15.061951 28.58088l0 0c-4.4965515 13.837563 -19.359283 21.409943 -33.196854 16.913391l0 0c-13.837555 -4.496559 -21.409935 -19.359291 -16.913376 -33.196854z"
              fill-rule="evenodd"/>
        <path fill="#ffffff"
              d="m140.34389 87.27539l0 0c2.1482544 -5.2880173 8.176544 -7.83329 13.464569 -5.6850357q4.7873993 1.9448853 9.574799 3.8897629q-1.9448853 4.7873993 -3.8897705 9.574806l0 0c-2.1482544 5.2880173 -8.176544 7.8332977 -13.464554 5.6850357l0 0c-5.288025 -2.1482544 -7.8332977 -8.176544 -5.6850433 -13.464569z"
              fill-rule="evenodd"/>
        <path fill="#93c47d"
              d="m77.81499 111.34367l0 0c-14.524654 0.88713837 -27.018375 -10.168259 -27.90551 -24.69291q-0.97057724 -15.89077 -7.423485 -31.446697q16.225624 4.5117607 32.116394 3.5411835l0 0c14.524658 -0.88713455 27.01838 10.1682625 27.905518 24.692913l0 0c0.88713074 14.524658 -10.168266 27.01838 -24.692917 27.90551z"
              fill-rule="evenodd"/>
        <path fill="#ffffff"
              d="m80.67753 98.44822l0 0c-5.7054977 -0.06088257 -10.281357 -4.7354507 -10.220474 -10.4409485q0.055114746 -5.165352 0.11023712 -10.330704q5.165352 0.055114746 10.330704 0.11023712l0 0c5.7054977 0.06087494 10.281357 4.7354507 10.220474 10.440941l0 0c-0.06088257 5.70549 -4.7354507 10.281357 -10.440941 10.220474z"
              fill-rule="evenodd"/>
    </g>
</svg>