<svg version="1.1" viewBox="0.0 0.0 960.0 480.0" fill="none" stroke="none" stroke-linecap="square" stroke-miterlimit="10" xmlns:xlink="http://www.w3.org/1999/xlink" xmlns="http://www.w3.org/2000/svg"><clipPath id="g1351acabf1a_0_86.0"><path d="m0 0l960.0 0l0 480.0l-960.0 0l0 -480.0z" clip-rule="nonzero"/></clipPath><g clip-path="url(#g1351acabf1a_0_86.0)"><path fill="#ffffff" d="m0 0l960.0 0l0 480.0l-960.0 0z" fill-rule="evenodd"/><path fill="#000000" fill-opacity="0.0" d="m265.26398 74.90672l0 70.05165l-107.590546 0l0 32.53102" fill-rule="evenodd"/><path stroke="#c2c2c2" stroke-width="3.0" stroke-linejoin="round" stroke-linecap="butt" d="m265.26398 74.90672l0 70.05165l-107.590546 0l0 32.53102" fill-rule="evenodd"/><path fill="#000000" fill-opacity="0.0" d="m265.26398 74.90672l0 70.05165l107.93701 0l0 32.53102" fill-rule="evenodd"/><path stroke="#c2c2c2" stroke-width="3.0" stroke-linejoin="round" stroke-linecap="butt" d="m265.26398 74.90672l0 70.05165l107.93701 0l0 32.53102" fill-rule="evenodd"/><path fill="#000000" fill-opacity="0.0" d="m154.85852 256.66785l0 17.070892l-44.724403 0l0 17.070862" fill-rule="evenodd"/><path stroke="#c2c2c2" stroke-width="3.0" stroke-linejoin="round" stroke-linecap="butt" d="m154.85852 256.66785l0 17.070892l-44.724403 0l0 17.070862" fill-rule="evenodd"/><path fill="#ffffff" d="m373.2021 177.4773l0 0c9.4279785 0 17.070892 7.6428833 17.070892 17.070862l0 0c0 4.527481 -1.7985535 8.869522 -4.999939 12.070923c-3.201416 3.201416 -7.543457 4.999954 -12.070953 4.999954l0 0c-9.4279785 0 -17.070862 -7.6428986 -17.070862 -17.070877l0 0c0 -9.4279785 7.6428833 -17.070862 17.070862 -17.070862z" fill-rule="evenodd"/><path stroke="#000000" stroke-width="1.0" stroke-linejoin="round" stroke-linecap="butt" d="m373.2021 177.4773l0 0c9.4279785 0 17.070892 7.6428833 17.070892 17.070862l0 0c0 4.527481 -1.7985535 8.869522 -4.999939 12.070923c-3.201416 3.201416 -7.543457 4.999954 -12.070953 4.999954l0 0c-9.4279785 0 -17.070862 -7.6428986 -17.070862 -17.070877l0 0c0 -9.4279785 7.6428833 -17.070862 17.070862 -17.070862z" fill-rule="evenodd"/><path fill="#ffffff" d="m193.37534 88.73136l0 0c0 -2.539688 2.0588226 -4.5985107 4.5985107 -4.5985107l134.58249 0c1.2196045 0 2.3892517 0.4844818 3.251648 1.3468704c0.86239624 0.8623886 1.3468628 2.0320435 1.3468628 3.2516403l0 18.393524c0 2.539688 -2.0588074 4.5985107 -4.5985107 4.5985107l-134.58249 0l0 0c-2.539688 0 -4.5985107 -2.0588226 -4.5985107 -4.5985107z" fill-rule="evenodd"/><path fill="#000000" d="m247.27812 96.04875l3.640625 -5.796875l2.34375 0l-4.78125 7.515625l4.90625 7.640625l-2.375 0l-3.734375 -5.921875l-3.75 5.921875l-2.359375 0l4.921875 -7.640625l-4.8125 -7.515625l2.34375 0l3.65625 5.796875z" fill-rule="nonzero"/><path fill="#000000" d="m259.00925 113.40813l-1.296875 0l0 -8.5625l-2.5781403 0.953125l0 -1.171875l3.6718903 -1.375l0.203125 0l0 10.15625z" fill-rule="nonzero"/><path fill="#000000" d="m270.21204 98.6425l-6.890625 -2.703125l0 -1.96875l8.90625 3.921875l0 1.53125l-8.90625 3.9375l0 -2.0l6.890625 -2.71875zm16.56369 6.765625q-0.171875 -0.328125 -0.28125 -1.1875q-1.34375 1.390625 -3.203125 1.390625q-1.671875 0 -2.734375 -0.9375q-1.0625 -0.9375 -1.0625 -2.390625q0 -1.765625 1.328125 -2.734375q1.34375 -0.96875 3.765625 -0.96875l1.875 0l0 -0.890625q0 -1.015625 -0.609375 -1.609375q-0.59375 -0.59375 -1.765625 -0.59375q-1.03125 0 -1.734375 0.515625q-0.703125 0.515625 -0.703125 1.265625l-1.9375 0q0 -0.84375 0.59375 -1.625q0.609375 -0.796875 1.625 -1.25q1.03125 -0.453125 2.265625 -0.453125q1.953125 0 3.046875 0.96875q1.109375 0.96875 1.15625 2.671875l0 5.1875q0 1.5625 0.390625 2.46875l0 0.171875l-2.015625 0zm-3.203125 -1.46875q0.90625 0 1.71875 -0.46875q0.8125 -0.46875 1.171875 -1.21875l0 -2.3125l-1.5 0q-3.546875 0 -3.546875 2.078125q0 0.90625 0.59375 1.421875q0.609375 0.5 1.5625 0.5z" fill-rule="nonzero"/><path fill="#95bbff" d="m265.26398 40.76499l0 0c9.4279785 0 17.070892 7.642887 17.070892 17.070866l0 0c0 4.5274734 -1.7985535 8.869518 -4.9999695 12.070927c-3.2013855 3.2014084 -7.5434265 4.999939 -12.070923 4.999939l0 0c-9.427963 0 -17.070862 -7.642891 -17.070862 -17.070866l0 0c0 -9.4279785 7.6428986 -17.070866 17.070862 -17.070866z" fill-rule="evenodd"/><path stroke="#000000" stroke-width="1.0" stroke-linejoin="round" stroke-linecap="butt" d="m265.26398 40.76499l0 0c9.4279785 0 17.070892 7.642887 17.070892 17.070866l0 0c0 4.5274734 -1.7985535 8.869518 -4.9999695 12.070927c-3.2013855 3.2014084 -7.5434265 4.999939 -12.070923 4.999939l0 0c-9.427963 0 -17.070862 -7.642891 -17.070862 -17.070866l0 0c0 -9.4279785 7.6428986 -17.070866 17.070862 -17.070866z" fill-rule="evenodd"/><path fill="#5757ff" d="m157.68808 177.4773l0 0c9.4279785 0 17.070862 7.6428833 17.070862 17.070862l0 0c0 4.527481 -1.798523 8.869522 -4.999939 12.070923c-3.2014008 3.201416 -7.543442 4.999954 -12.070923 4.999954l0 0c-9.4279785 0 -17.070862 -7.6428986 -17.070862 -17.070877l0 0c0 -9.4279785 7.6428833 -17.070862 17.070862 -17.070862z" fill-rule="evenodd"/><path stroke="#000000" stroke-width="1.0" stroke-linejoin="round" stroke-linecap="butt" d="m157.68808 177.4773l0 0c9.4279785 0 17.070862 7.6428833 17.070862 17.070862l0 0c0 4.527481 -1.798523 8.869522 -4.999939 12.070923c-3.2014008 3.201416 -7.543442 4.999954 -12.070923 4.999954l0 0c-9.4279785 0 -17.070862 -7.6428986 -17.070862 -17.070877l0 0c0 -9.4279785 7.6428833 -17.070862 17.070862 -17.070862z" fill-rule="evenodd"/><path fill="#ffffff" d="m200.25461 290.8095l0 0c9.4279785 0 17.070877 7.6428833 17.070877 17.070862l0 0c0 4.527466 -1.7985382 8.869507 -4.999954 12.070923c-3.2014008 3.201416 -7.543442 4.999939 -12.070923 4.999939l0 0c-9.4279785 0 -17.070862 -7.6428833 -17.070862 -17.070862l0 0c0 -9.4279785 7.6428833 -17.070862 17.070862 -17.070862z" fill-rule="evenodd"/><path stroke="#000000" stroke-width="1.0" stroke-linejoin="round" stroke-linecap="butt" d="m200.25461 290.8095l0 0c9.4279785 0 17.070877 7.6428833 17.070877 17.070862l0 0c0 4.527466 -1.7985382 8.869507 -4.999954 12.070923c-3.2014008 3.201416 -7.543442 4.999939 -12.070923 4.999939l0 0c-9.4279785 0 -17.070862 -7.6428833 -17.070862 -17.070862l0 0c0 -9.4279785 7.6428833 -17.070862 17.070862 -17.070862z" fill-rule="evenodd"/><path fill="#0000ff" d="m110.1344 290.8095l0 0c9.4279785 0 17.07087 7.6428833 17.07087 17.070862l0 0c0 4.527466 -1.7985382 8.869507 -4.9999466 12.070923c-3.2014084 3.201416 -7.5434494 4.999939 -12.070923 4.999939l0 0c-9.4279785 0 -17.070862 -7.6428833 -17.070862 -17.070862l0 0c0 -9.4279785 7.6428833 -17.070862 17.070862 -17.070862z" fill-rule="evenodd"/><path stroke="#000000" stroke-width="1.0" stroke-linejoin="round" stroke-linecap="butt" d="m110.1344 290.8095l0 0c9.4279785 0 17.07087 7.6428833 17.07087 17.070862l0 0c0 4.527466 -1.7985382 8.869507 -4.9999466 12.070923c-3.2014084 3.201416 -7.5434494 4.999939 -12.070923 4.999939l0 0c-9.4279785 0 -17.070862 -7.6428833 -17.070862 -17.070862l0 0c0 -9.4279785 7.6428833 -17.070862 17.070862 -17.070862z" fill-rule="evenodd"/><path fill="#000000" fill-opacity="0.0" d="m112.661415 222.9005l0 0c0 -2.539688 2.0588303 -4.5985107 4.5985184 -4.5985107l84.37778 0c1.2195892 0 2.3892517 0.4844818 3.2516327 1.346878c0.86239624 0.862381 1.346878 2.0320435 1.346878 3.2516327l0 18.393524c0 2.539688 -2.0588226 4.5985107 -4.5985107 4.5985107l-84.37778 0c-2.539688 0 -4.5985184 -2.0588226 -4.5985184 -4.5985107z" fill-rule="evenodd"/><path fill="#000000" d="m138.63962 230.21788l3.640625 -5.796875l2.34375 0l-4.78125 7.515625l4.90625 7.640625l-2.375 0l-3.734375 -5.921875l-3.75 5.921875l-2.359375 0l4.921875 -7.640625l-4.8125 -7.515625l2.34375 0l3.65625 5.796875z" fill-rule="nonzero"/><path fill="#000000" d="m152.77698 247.57726l-6.625 0l0 -0.921875l3.5 -3.890625q0.765625 -0.875 1.0625 -1.421875q0.296875 -0.5625 0.296875 -1.15625q0 -0.78125 -0.484375 -1.28125q-0.46875 -0.515625 -1.265625 -0.515625q-0.953125 0 -1.484375 0.546875q-0.53125 0.53125 -0.53125 1.515625l-1.296875 0q0 -1.40625 0.890625 -2.265625q0.90625 -0.859375 2.421875 -0.859375q1.40625 0 2.21875 0.75q0.828125 0.734375 0.828125 1.953125q0 1.5 -1.90625 3.5625l-2.703125 2.9375l5.078125 0l0 1.046875z" fill-rule="nonzero"/><path fill="#000000" d="m166.85349 232.81163l-6.890625 -2.703125l0 -1.96875l8.90625 3.921875l0 1.53125l-8.90625 3.9375l0 -2.0l6.890625 -2.71875zm19.141815 1.25q0 2.59375 -1.1875 4.15625q-1.1875 1.5625 -3.1875 1.5625q-2.140625 0 -3.296875 -1.5l-0.09375 1.296875l-1.7812347 0l0 -16.0l1.9374847 0l0 5.96875q1.15625 -1.4375 3.203125 -1.4375q2.0625 0 3.234375 1.546875q1.171875 1.546875 1.171875 4.25l0 0.15625zm-1.921875 -0.21875q0 -1.96875 -0.765625 -3.03125q-0.765625 -1.078125 -2.1875 -1.078125q-1.90625 0 -2.734375 1.765625l0 4.875q0.875 1.78125 2.75 1.78125q1.390625 0 2.15625 -1.078125q0.78125 -1.078125 0.78125 -3.234375z" fill-rule="nonzero"/><path fill="#000000" fill-opacity="0.0" d="m259.35596 183.9024l0 0c0 -2.9397736 2.3831482 -5.322937 5.322937 -5.322937l107.55884 0c1.4117432 0 2.7656555 0.5608063 3.7638855 1.5590515c0.9982605 0.99824524 1.5590515 2.3521576 1.5590515 3.7638855l0 21.291122c0 2.9397888 -2.3831482 5.3229523 -5.322937 5.3229523l-107.55884 0c-2.9397888 0 -5.322937 -2.3831635 -5.322937 -5.3229523z" fill-rule="evenodd"/><path fill="#434343" d="m300.28857 202.02797l-1.890625 0l-5.421875 -11.765625l-2.046875 11.765625l-1.96875 0l2.640625 -15.15625l1.890625 0l5.4375 11.8125l2.046875 -11.8125l1.9375 0l-2.625 15.15625zm18.500305 -8.484375l-8.4375 0l0.28125 -1.671875l8.453125 0l-0.296875 1.671875zm-0.75 4.328125l-8.4375 0l0.28125 -1.671875l8.453125 0l-0.296875 1.671875zm11.402191 -4.359375l1.25 0q1.375 0 2.3125 -0.71875q0.953125 -0.71875 1.09375 -1.953125q0.125 -1.21875 -0.453125 -1.90625q-0.578125 -0.6875 -1.703125 -0.71875q-1.1875 -0.015625 -2.015625 0.703125q-0.828125 0.703125 -1.015625 1.921875l-1.859375 0q0.171875 -1.875 1.59375 -3.046875q1.421875 -1.171875 3.390625 -1.140625q1.90625 0.03125 2.984375 1.1875q1.09375 1.15625 0.953125 3.03125q-0.09375 1.078125 -0.828125 1.96875q-0.71875 0.875 -2.015625 1.453125q1.03125 0.421875 1.546875 1.328125q0.515625 0.890625 0.421875 2.109375q-0.15625 2.046875 -1.625 3.296875q-1.46875 1.25 -3.5625 1.203125q-1.9375 -0.03125 -3.09375 -1.203125q-1.15625 -1.171875 -1.078125 -3.015625l1.890625 0.015625q-0.0625 1.171875 0.5625 1.890625q0.625 0.703125 1.8125 0.75q1.328125 0.03125 2.203125 -0.765625q0.890625 -0.796875 1.015625 -2.140625q0.125 -1.25 -0.5625 -1.9375q-0.671875 -0.6875 -2.015625 -0.734375l-1.453125 -0.015625l0.25 -1.5625zm12.320038 8.71875q-1.921875 -0.03125 -2.890625 -1.34375q-0.953125 -1.328125 -0.859375 -3.8125q0.015625 -0.765625 0.109375 -1.515625l0.375 -2.53125q0.5 -3.234375 1.90625 -4.828125q1.40625 -1.59375 3.703125 -1.546875q1.9375 0.046875 2.890625 1.34375q0.953125 1.28125 0.875 3.71875q-0.03125 0.78125 -0.125 1.53125l-0.359375 2.453125q-0.546875 3.421875 -1.953125 5.015625q-1.390625 1.578125 -3.671875 1.515625zm4.171875 -9.328125q0.140625 -1.265625 0.140625 -1.953125q-0.0625 -2.640625 -2.0625 -2.71875q-1.453125 -0.046875 -2.359375 1.078125q-0.890625 1.125 -1.25 3.546875l-0.453125 3.015625q-0.140625 1.203125 -0.125 1.96875q0.046875 2.765625 2.03125 2.828125q1.390625 0.0625 2.28125 -1.015625q0.90625 -1.078125 1.296875 -3.4375l0.5 -3.3125z" fill-rule="nonzero"/><path fill="#000000" fill-opacity="0.0" d="m200.2546 290.8096l0 -17.070862l-44.62993 0l0 -17.070892" fill-rule="evenodd"/><path stroke="#c2c2c2" stroke-width="3.0" stroke-linejoin="round" stroke-linecap="butt" d="m200.2546 290.8096l0 -17.070862l-44.62993 0l0 -17.070892" fill-rule="evenodd"/><path fill="#000000" fill-opacity="0.0" d="m0.985874 299.24213l0 0c0 -2.9397583 2.383162 -5.322937 5.322941 -5.322937l107.558846 0c1.4117279 0 2.7656403 0.56082153 3.7638855 1.5590515c0.99824524 0.9982605 1.5590515 2.3521729 1.5590515 3.7638855l0 21.291138c0 2.9397888 -2.3831635 5.322937 -5.322937 5.322937l-107.558846 0c-2.939779 0 -5.322941 -2.3831482 -5.322941 -5.322937z" fill-rule="evenodd"/><path fill="#434343" d="m47.78166 317.3677l-1.890625 0l-5.421875 -11.765625l-2.046875 11.765625l-1.96875 0l2.640625 -15.15625l1.890625 0l5.4375 11.8125l2.046875 -11.8125l1.9375 0l-2.625 15.15625zm18.500301 -8.484375l-8.437496 0l0.28125 -1.671875l8.453121 0l-0.296875 1.671875zm-0.75 4.328125l-8.437496 0l0.28125 -1.671875l8.453121 0l-0.296875 1.671875zm9.355301 -3.484375l1.921875 -7.515625l7.5625 0l-0.28125 1.78125l-5.9375 0l-1.15625 4.140625q1.140625 -0.6875 2.46875 -0.65625q1.890625 0.015625 2.890625 1.421875q1.015625 1.390625 0.828125 3.5625q-0.1875 2.328125 -1.65625 3.75q-1.453125 1.421875 -3.625 1.375q-1.8125 -0.015625 -2.9375 -1.15625q-1.109375 -1.15625 -1.171875 -3.0625l1.765625 0q0.0625 1.25 0.703125 1.9375q0.640625 0.6875 1.71875 0.703125q1.328125 0.046875 2.234375 -0.9375q0.921875 -1.0 1.09375 -2.59375q0.140625 -1.40625 -0.5 -2.3125q-0.625 -0.921875 -1.859375 -0.96875q-0.765625 -0.015625 -1.359375 0.234375q-0.578125 0.25 -1.15625 0.71875l-1.546875 -0.421875z" fill-rule="nonzero"/><path fill="#000000" fill-opacity="0.0" d="m199.27318 298.55722l0 0c0 -2.9397583 2.3831635 -5.322937 5.322937 -5.322937l107.55885 0c1.4117126 0 2.765625 0.56082153 3.7638855 1.5590515c0.99823 0.9982605 1.5590515 2.3521729 1.5590515 3.7638855l0 21.291138c0 2.9397888 -2.3831787 5.322937 -5.322937 5.322937l-107.55885 0c-2.9397736 0 -5.322937 -2.3831482 -5.322937 -5.322937z" fill-rule="evenodd"/><path fill="#434343" d="m240.20581 316.6828l-1.890625 0l-5.421875 -11.765625l-2.046875 11.765625l-1.96875 0l2.640625 -15.15625l1.890625 0l5.4375 11.8125l2.046875 -11.8125l1.9375 0l-2.625 15.15625zm18.500305 -8.484375l-8.4375 0l0.28125 -1.671875l8.453125 0l-0.296875 1.671875zm-0.75 4.328125l-8.4375 0l0.28125 -1.671875l8.453125 0l-0.296875 1.671875zm13.370911 4.15625l-1.90625 0l2.234375 -12.78125l-4.03125 1.40625l0.328125 -1.828125l5.625 -2.03125l0.328125 0l-2.578125 15.234375zm7.7106934 -7.640625l1.921875 -7.515625l7.5625 0l-0.28125 1.78125l-5.9375 0l-1.15625 4.140625q1.140625 -0.6875 2.46875 -0.65625q1.890625 0.015625 2.890625 1.421875q1.015625 1.390625 0.828125 3.5625q-0.1875 2.328125 -1.65625 3.75q-1.453125 1.421875 -3.625 1.375q-1.8125 -0.015625 -2.9375 -1.15625q-1.109375 -1.15625 -1.171875 -3.0625l1.765625 0q0.0625 1.25 0.703125 1.9375q0.640625 0.6875 1.71875 0.703125q1.328125 0.046875 2.234375 -0.9375q0.921875 -1.0 1.09375 -2.59375q0.140625 -1.40625 -0.5 -2.3125q-0.625 -0.921875 -1.859375 -0.96875q-0.765625 -0.015625 -1.359375 0.234375q-0.578125 0.25 -1.15625 0.71875l-1.546875 -0.421875z" fill-rule="nonzero"/><path fill="#000000" fill-opacity="0.0" d="m646.5593 260.21655l0 17.070862l-44.724426 0l0 17.070862" fill-rule="evenodd"/><path stroke="#c2c2c2" stroke-width="3.0" stroke-linejoin="round" stroke-linecap="butt" d="m646.5593 260.21655l0 17.070862l-44.724426 0l0 17.070862" fill-rule="evenodd"/><path fill="#deeaff" d="m861.6892 177.4773l0 0c9.4279785 0 17.070862 7.6428833 17.070862 17.070862l0 0c0 4.527481 -1.798523 8.869522 -4.999939 12.070923c-3.201416 3.201416 -7.543457 4.999954 -12.070923 4.999954l0 0c-9.4279785 0 -17.070862 -7.6428986 -17.070862 -17.070877l0 0c0 -9.4279785 7.6428833 -17.070862 17.070862 -17.070862z" fill-rule="evenodd"/><path stroke="#000000" stroke-width="1.0" stroke-linejoin="round" stroke-linecap="butt" d="m861.6892 177.4773l0 0c9.4279785 0 17.070862 7.6428833 17.070862 17.070862l0 0c0 4.527481 -1.798523 8.869522 -4.999939 12.070923c-3.201416 3.201416 -7.543457 4.999954 -12.070923 4.999954l0 0c-9.4279785 0 -17.070862 -7.6428986 -17.070862 -17.070877l0 0c0 -9.4279785 7.6428833 -17.070862 17.070862 -17.070862z" fill-rule="evenodd"/><path fill="#95bbff" d="m691.9554 294.3582l0 0c9.4279785 0 17.070862 7.6428833 17.070862 17.070862l0 0c0 4.527466 -1.798523 8.869507 -4.999939 12.070923c-3.201416 3.201416 -7.543457 4.999939 -12.070923 4.999939l0 0c-9.4279785 0 -17.070862 -7.6428833 -17.070862 -17.070862l0 0c0 -9.4279785 7.6428833 -17.070862 17.070862 -17.070862z" fill-rule="evenodd"/><path stroke="#000000" stroke-width="1.0" stroke-linejoin="round" stroke-linecap="butt" d="m691.9554 294.3582l0 0c9.4279785 0 17.070862 7.6428833 17.070862 17.070862l0 0c0 4.527466 -1.798523 8.869507 -4.999939 12.070923c-3.201416 3.201416 -7.543457 4.999939 -12.070923 4.999939l0 0c-9.4279785 0 -17.070862 -7.6428833 -17.070862 -17.070862l0 0c0 -9.4279785 7.6428833 -17.070862 17.070862 -17.070862z" fill-rule="evenodd"/><path fill="#5959ff" d="m601.8352 294.3582l0 0c9.4279785 0 17.070862 7.6428833 17.070862 17.070862l0 0c0 4.527466 -1.798523 8.869507 -4.999939 12.070923c-3.201416 3.201416 -7.543457 4.999939 -12.070923 4.999939l0 0c-9.4279785 0 -17.070862 -7.6428833 -17.070862 -17.070862l0 0c0 -9.4279785 7.6428833 -17.070862 17.070862 -17.070862z" fill-rule="evenodd"/><path stroke="#ff0000" stroke-width="3.0" stroke-linejoin="round" stroke-linecap="butt" d="m601.8352 294.3582l0 0c9.4279785 0 17.070862 7.6428833 17.070862 17.070862l0 0c0 4.527466 -1.798523 8.869507 -4.999939 12.070923c-3.201416 3.201416 -7.543457 4.999939 -12.070923 4.999939l0 0c-9.4279785 0 -17.070862 -7.6428833 -17.070862 -17.070862l0 0c0 -9.4279785 7.6428833 -17.070862 17.070862 -17.070862z" fill-rule="evenodd"/><path fill="#000000" fill-opacity="0.0" d="m604.36224 223.62595l0 0c0 -2.9397888 2.3831787 -5.322937 5.322937 -5.322937l82.928894 0c1.4117432 0 2.765686 0.5608063 3.763916 1.5590515c0.99823 0.99824524 1.559021 2.3521576 1.559021 3.7638855l0 21.291122c0 2.9397736 -2.3831177 5.322937 -5.322937 5.322937l-82.928894 0c-2.9397583 0 -5.322937 -2.3831635 -5.322937 -5.322937z" fill-rule="evenodd"/><path fill="#000000" d="m630.34045 232.39214l3.640625 -5.796875l2.34375 0l-4.78125 7.515625l4.90625 7.640625l-2.375 0l-3.734375 -5.921875l-3.75 5.921875l-2.359375 0l4.921875 -7.640625l-4.8125 -7.515625l2.34375 0l3.65625 5.796875z" fill-rule="nonzero"/><path fill="#000000" d="m644.4778 249.75151l-6.625 0l0 -0.921875l3.5 -3.890625q0.765625 -0.875 1.0625 -1.421875q0.296875 -0.5625 0.296875 -1.15625q0 -0.78125 -0.484375 -1.28125q-0.46875 -0.515625 -1.265625 -0.515625q-0.953125 0 -1.484375 0.546875q-0.53125 0.53125 -0.53125 1.515625l-1.296875 0q0 -1.40625 0.890625 -2.265625q0.90625 -0.859375 2.421875 -0.859375q1.40625 0 2.21875 0.75q0.828125 0.734375 0.828125 1.953125q0 1.5 -1.90625 3.5625l-2.703125 2.9375l5.078125 0l0 1.046875z" fill-rule="nonzero"/><path fill="#000000" d="m658.5543 234.98589l-6.890625 -2.703125l0 -1.96875l8.90625 3.921875l0 1.53125l-8.90625 3.9375l0 -2.0l6.890625 -2.71875zm19.141785 1.25q0 2.59375 -1.1875 4.15625q-1.1875 1.5625 -3.1875 1.5625q-2.140625 0 -3.296875 -1.5l-0.09375 1.296875l-1.78125 0l0 -16.0l1.9375 0l0 5.96875q1.15625 -1.4375 3.203125 -1.4375q2.0625 0 3.234375 1.546875q1.171875 1.546875 1.171875 4.25l0 0.15625zm-1.921875 -0.21875q0 -1.96875 -0.765625 -3.03125q-0.765625 -1.078125 -2.1875 -1.078125q-1.90625 0 -2.734375 1.765625l0 4.875q0.875 1.78125 2.75 1.78125q1.390625 0 2.15625 -1.078125q0.78125 -1.078125 0.78125 -3.234375z" fill-rule="nonzero"/><path fill="#000000" fill-opacity="0.0" d="m691.9554 294.35828l0 -17.070862l-44.629944 0l0 -17.070862" fill-rule="evenodd"/><path stroke="#c2c2c2" stroke-width="3.0" stroke-linejoin="round" stroke-linecap="butt" d="m691.9554 294.35828l0 -17.070862l-44.629944 0l0 -17.070862" fill-rule="evenodd"/><path fill="#000000" fill-opacity="0.0" d="m572.4928 313.34076c-29.570984 -4.5679626 -111.97705 -10.309814 -177.42578 -27.407745c-65.4487 -17.0979 -179.38875 -62.64978 -215.26651 -75.17973" fill-rule="evenodd"/><path stroke="#5959ff" stroke-width="3.0" stroke-linejoin="round" stroke-linecap="butt" stroke-dasharray="12.0,9.0" d="m554.6417 311.0301l-3.8949585 -0.44973755c-2.9331665 -0.33538818 -6.0216064 -0.6828308 -9.24823 -1.0447693c-12.906677 -1.447815 -28.024963 -3.1281128 -44.264435 -5.199951c-32.479004 -4.1437073 -69.44272 -9.853638 -102.16708 -18.402588c-65.4487 -17.09793 -179.38876 -62.64981 -215.26651 -75.17976" fill-rule="evenodd"/><path fill="#5959ff" stroke="#5959ff" stroke-width="3.0" stroke-linecap="butt" d="m554.0057 315.9443l14.137695 -3.166565l-12.86554 -6.6618347z" fill-rule="evenodd"/><path fill="#ffffff" d="m51.031498 61.35713l0 0c0 -4.7488747 3.84972 -8.5985985 8.598595 -8.5985985l126.58234 0c2.280487 0 4.467575 0.90592194 6.080124 2.5184708c1.6125488 1.6125488 2.5184631 3.7996368 2.5184631 6.0801277l0 34.393353c0 4.7488785 -3.8497162 8.598602 -8.598587 8.598602l-126.58234 0c-4.7488747 0 -8.598595 -3.8497238 -8.598595 -8.598602z" fill-rule="evenodd"/><path stroke="#ffffff" stroke-width="2.0" stroke-linejoin="round" stroke-linecap="butt" d="m51.031498 61.35713l0 0c0 -4.7488747 3.84972 -8.5985985 8.598595 -8.5985985l126.58234 0c2.280487 0 4.467575 0.90592194 6.080124 2.5184708c1.6125488 1.6125488 2.5184631 3.7996368 2.5184631 6.0801277l0 34.393353c0 4.7488785 -3.8497162 8.598602 -8.598587 8.598602l-126.58234 0c-4.7488747 0 -8.598595 -3.8497238 -8.598595 -8.598602z" fill-rule="evenodd"/><path fill="#000000" d="m63.98744 73.313805l0 -16.109375l5.640629 0q2.9375 0 4.453125 1.125q1.515625 1.125 1.515625 3.296875q0 1.171875 -0.609375 2.078125q-0.609375 0.90625 -1.703125 1.328125q1.25 0.3125 1.953125 1.25q0.71875 0.9375 0.71875 2.296875q0 2.328125 -1.484375 3.53125q-1.484375 1.1875 -4.21875 1.203125l-6.265629 0zm3.3125038 -7.015625l0 4.34375l2.84375 0q1.171875 0 1.828125 -0.546875q0.671875 -0.5625 0.671875 -1.546875q0 -2.21875 -2.296875 -2.25l-3.046875 0zm0 -2.34375l2.46875 0q2.5 -0.046875 2.5 -2.0q0 -1.09375 -0.640625 -1.578125q-0.625 -0.484375 -2.0 -0.484375l-2.328125 0l0 4.0625zm16.443222 9.578125q-2.625 0 -4.28125 -1.609375q-1.65625 -1.625 -1.65625 -4.3125l0 -0.296875q0 -1.8125 0.6875 -3.234375q0.703125 -1.421875 1.984375 -2.1875q1.28125 -0.765625 2.921875 -0.765625q2.453125 0 3.859375 1.546875q1.40625 1.546875 1.40625 4.390625l0 1.3125l-7.625 0q0.15625 1.171875 0.9375 1.875q0.78125 0.703125 1.984375 0.703125q1.84375 0 2.875 -1.328125l1.578125 1.75q-0.71875 1.015625 -1.953125 1.59375q-1.21875 0.5625 -2.71875 0.5625zm-0.359375 -9.828125q-0.953125 0 -1.546875 0.65625q-0.59375 0.640625 -0.75 1.828125l4.4375 0l0 -0.25q-0.015625 -1.0625 -0.578125 -1.640625q-0.546875 -0.59375 -1.5625 -0.59375zm7.9806976 9.609375l0 -9.625l-1.78125 0l0 -2.34375l1.78125 0l0 -1.015625q0 -2.015625 1.140625 -3.125q1.15625 -1.109375 3.25 -1.109375q0.65625 0 1.625 0.21875l-0.03125 2.46875q-0.40625 -0.09375 -0.984375 -0.09375q-1.796875 0 -1.796875 1.6875l0 0.96875l2.375 0l0 2.34375l-2.375 0l0 9.625l-3.203125 0zm6.7449646 -6.09375q0 -1.78125 0.6875 -3.171875q0.6875 -1.40625 1.96875 -2.15625q1.28125 -0.765625 3.0 -0.765625q2.421875 0 3.953125 1.484375q1.53125 1.484375 1.703125 4.015625l0.015625 0.828125q0 2.75 -1.53125 4.421875q-1.53125 1.65625 -4.125 1.65625q-2.59375 0 -4.140625 -1.65625q-1.53125 -1.65625 -1.53125 -4.515625l0 -0.140625zm3.1875 0.234375q0 1.703125 0.640625 2.609375q0.640625 0.890625 1.84375 0.890625q1.15625 0 1.8125 -0.890625q0.65625 -0.890625 0.65625 -2.84375q0 -1.671875 -0.65625 -2.59375q-0.65625 -0.921875 -1.828125 -0.921875q-1.1875 0 -1.828125 0.921875q-0.640625 0.90625 -0.640625 2.828125zm16.841766 -3.109375q-0.65625 -0.09375 -1.15625 -0.09375q-1.8125 0 -2.375 1.234375l0 7.828125l-3.1875 0l0 -11.96875l3.015625 0l0.09375 1.421875q0.953125 -1.640625 2.65625 -1.640625q0.53125 0 1.0 0.140625l-0.046875 3.078125zm6.8347473 9.1875q-2.625 0 -4.28125 -1.609375q-1.65625 -1.625 -1.65625 -4.3125l0 -0.296875q0 -1.8125 0.6875 -3.234375q0.703125 -1.421875 1.984375 -2.1875q1.28125 -0.765625 2.921875 -0.765625q2.453125 0 3.859375 1.546875q1.40625 1.546875 1.40625 4.390625l0 1.3125l-7.625 0q0.15625 1.171875 0.9375 1.875q0.78125 0.703125 1.984375 0.703125q1.84375 0 2.875 -1.328125l1.578125 1.75q-0.71875 1.015625 -1.953125 1.59375q-1.21875 0.5625 -2.71875 0.5625zm-0.359375 -9.828125q-0.953125 0 -1.546875 0.65625q-0.59375 0.640625 -0.75 1.828125l4.4375 0l0 -0.25q-0.015625 -1.0625 -0.578125 -1.640625q-0.546875 -0.59375 -1.5625 -0.59375z" fill-rule="nonzero"/><path fill="#000000" d="m70.25307 97.001305q0 -0.578125 -0.578125 -0.90625q-0.578125 -0.34375 -1.859375 -0.609375q-4.265629 -0.90625 -4.265629 -3.640625q0 -1.59375 1.3125038 -2.65625q1.328125 -1.0625 3.46875 -1.0625q2.265625 0 3.625 1.078125q1.375 1.0625 1.375 2.78125l-3.1875 0q0 -0.6875 -0.453125 -1.125q-0.4375 -0.453125 -1.375 -0.453125q-0.8125 0 -1.25 0.359375q-0.4375 0.359375 -0.4375 0.921875q0 0.53125 0.5 0.859375q0.5 0.328125 1.6875 0.578125q1.203125 0.234375 2.015625 0.53125q2.53125 0.921875 2.53125 3.21875q0 1.640625 -1.40625 2.65625q-1.390625 1.0 -3.625 1.0q-1.5 0 -2.671875 -0.53125q-1.15625 -0.546875 -1.8281288 -1.46875q-0.65625 -0.9375 -0.65625 -2.03125l3.0312538 0q0.03125 0.859375 0.625 1.3125q0.59375 0.453125 1.578125 0.453125q0.90625 0 1.375 -0.34375q0.46875 -0.359375 0.46875 -0.921875zm8.289566 -7.359375q1.28125 -1.515625 3.203125 -1.515625q3.890625 0 3.953125 4.515625l0 7.671875l-3.203125 0l0 -7.578125q0 -1.03125 -0.453125 -1.515625q-0.4375 -0.5 -1.453125 -0.5q-1.40625 0 -2.046875 1.09375l0 8.5l-3.1875 0l0 -17.0l3.1875 0l0 6.328125zm16.28714 1.703125q-0.65625 -0.09375 -1.15625 -0.09375q-1.8125 0 -2.375 1.234375l0 7.828125l-3.1875 0l0 -11.96875l3.015625 0l0.09375 1.421875q0.953125 -1.640625 2.65625 -1.640625q0.53125 0 1.0 0.140625l-0.046875 3.078125zm4.9200287 8.96875l-3.21875 0l0 -11.96875l3.21875 0l0 11.96875zm-3.40625 -15.0625q0 -0.71875 0.484375 -1.1875q0.484375 -0.46875 1.3125 -0.46875q0.8125 0 1.296875 0.46875q0.5 0.46875 0.5 1.1875q0 0.71875 -0.5 1.1875q-0.484375 0.46875 -1.296875 0.46875q-0.8125 0 -1.3125 -0.46875q-0.484375 -0.46875 -0.484375 -1.1875zm8.975754 3.09375l0.09375 1.375q1.28125 -1.59375 3.4375 -1.59375q1.90625 0 2.828125 1.125q0.9375 1.109375 0.96875 3.328125l0 7.734375l-3.203125 0l0 -7.65625q0 -1.015625 -0.453125 -1.46875q-0.4375 -0.46875 -1.453125 -0.46875q-1.359375 0 -2.03125 1.15625l0 8.4375l-3.203125 0l0 -11.96875l3.015625 0zm14.0950775 7.171875l-1.15625 1.140625l0 3.65625l-3.1875 0l0 -17.0l3.1875 0l0 9.421875l0.625 -0.796875l3.0625 -3.59375l3.84375 0l-4.328125 4.984375l4.703125 6.984375l-3.671875 0l-3.078125 -4.796875zm14.696259 4.796875q-0.234375 -0.4375 -0.328125 -1.078125q-1.15625 1.296875 -3.015625 1.296875q-1.765625 0 -2.921875 -1.015625q-1.15625 -1.015625 -1.15625 -2.5625q0 -1.90625 1.40625 -2.921875q1.421875 -1.015625 4.078125 -1.03125l1.46875 0l0 -0.6875q0 -0.828125 -0.421875 -1.328125q-0.421875 -0.5 -1.34375 -0.5q-0.796875 0 -1.265625 0.390625q-0.453125 0.390625 -0.453125 1.0625l-3.203125 0q0 -1.046875 0.640625 -1.921875q0.640625 -0.890625 1.8125 -1.390625q1.171875 -0.5 2.640625 -0.5q2.203125 0 3.5 1.109375q1.3125 1.109375 1.3125 3.125l0 5.1875q0.015625 1.703125 0.46875 2.578125l0 0.1875l-3.21875 0zm-2.65625 -2.21875q0.71875 0 1.3125 -0.3125q0.59375 -0.328125 0.875 -0.859375l0 -2.046875l-1.1875 0q-2.40625 0 -2.5625 1.65625l0 0.1875q0 0.59375 0.421875 0.984375q0.421875 0.390625 1.140625 0.390625zm7.396759 -3.859375q0 -2.75 1.3125 -4.421875q1.3125 -1.6875 3.53125 -1.6875q1.96875 0 3.0625 1.34375l0.140625 -1.125l2.890625 0l0 11.578125q0 1.5625 -0.71875 2.71875q-0.703125 1.171875 -2.0 1.78125q-1.296875 0.609375 -3.03125 0.609375q-1.3125 0 -2.5625 -0.53125q-1.25 -0.53125 -1.890625 -1.359375l1.40625 -1.9375q1.203125 1.328125 2.90625 1.328125q1.265625 0 1.96875 -0.6875q0.71875 -0.671875 0.71875 -1.921875l0 -0.640625q-1.109375 1.25 -2.90625 1.25q-2.171875 0 -3.5 -1.6875q-1.328125 -1.6875 -1.328125 -4.46875l0 -0.140625zm3.1875 0.234375q0 1.625 0.65625 2.546875q0.65625 0.921875 1.796875 0.921875q1.453125 0 2.09375 -1.09375l0 -5.03125q-0.640625 -1.09375 -2.078125 -1.09375q-1.140625 0 -1.8125 0.953125q-0.65625 0.9375 -0.65625 2.796875zm15.713455 6.0625q-2.625 0 -4.28125 -1.609375q-1.65625 -1.625 -1.65625 -4.3125l0 -0.296875q0 -1.8125 0.6875 -3.234375q0.703125 -1.421875 1.984375 -2.1875q1.28125 -0.765625 2.921875 -0.765625q2.453125 0 3.859375 1.546875q1.40625 1.546875 1.40625 4.390625l0 1.3125l-7.625 0q0.15625 1.171875 0.9375 1.875q0.78125 0.703125 1.984375 0.703125q1.84375 0 2.875 -1.328125l1.578125 1.75q-0.71875 1.015625 -1.953125 1.59375q-1.21875 0.5625 -2.71875 0.5625zm-0.359375 -9.828125q-0.953125 0 -1.546875 0.65625q-0.59375 0.640625 -0.75 1.828125l4.4375 0l0 -0.25q-0.015625 -1.0625 -0.578125 -1.640625q-0.546875 -0.59375 -1.5625 -0.59375z" fill-rule="nonzero"/><path fill="#000000" fill-opacity="0.0" d="m447.36746 40.76487l0 394.77167" fill-rule="evenodd"/><path stroke="#595959" stroke-width="1.0" stroke-linejoin="round" stroke-linecap="butt" d="m447.36746 40.76487l0 394.77167" fill-rule="evenodd"/><path fill="#ffffff" d="m480.0 66.67996l0 0c0 -4.7488747 3.8497314 -8.5985985 8.598602 -8.5985985l116.12564 0c2.2804565 0 4.4675903 0.90592194 6.080139 2.5184708c1.6125488 1.6125526 2.5184326 3.7996407 2.5184326 6.0801277l0 34.393356c0 4.748871 -3.8497314 8.598595 -8.598572 8.598595l-116.12564 0l0 0c-4.748871 0 -8.598602 -3.8497238 -8.598602 -8.598595z" fill-rule="evenodd"/><path stroke="#ffffff" stroke-width="2.0" stroke-linejoin="round" stroke-linecap="butt" d="m480.0 66.67996l0 0c0 -4.7488747 3.8497314 -8.5985985 8.598602 -8.5985985l116.12564 0c2.2804565 0 4.4675903 0.90592194 6.080139 2.5184708c1.6125488 1.6125526 2.5184326 3.7996407 2.5184326 6.0801277l0 34.393356c0 4.748871 -3.8497314 8.598595 -8.598572 8.598595l-116.12564 0l0 0c-4.748871 0 -8.598602 -3.8497238 -8.598602 -8.598595z" fill-rule="evenodd"/><path fill="#000000" d="m502.04968 75.32414l-5.8125 0l-1.109375 3.3125l-3.53125 0l6.0 -16.109379l3.078125 0l6.015625 16.109379l-3.515625 0l-1.125 -3.3125zm-4.921875 -2.6875l4.03125 0l-2.03125 -6.03125l-2.0 6.03125zm11.744293 6.0l0 -9.625l-1.78125 0l0 -2.34375l1.78125 0l0 -1.015625q0 -2.0156288 1.140625 -3.1250038q1.15625 -1.109375 3.2500305 -1.109375q0.65625 0 1.625 0.21875l-0.03125 2.4687538q-0.40625 -0.09375 -0.984375 -0.09375q-1.796875 0 -1.796875 1.6875l0 0.96875l2.375 0l0 2.34375l-2.375 0l0 9.625l-3.2031555 0zm11.07309 -14.906254l0 2.9375038l2.046875 0l0 2.34375l-2.046875 0l0 5.96875q0 0.671875 0.25 0.96875q0.25 0.28125 0.96875 0.28125q0.53125 0 0.9375 -0.078125l0 2.421875q-0.9375 0.28125 -1.9375 0.28125q-3.359375 0 -3.421875 -3.390625l0 -6.453125l-1.75 0l0 -2.34375l1.75 0l0 -2.9375038l3.203125 0zm9.327209 15.125004q-2.625 0 -4.28125 -1.609375q-1.65625 -1.625 -1.65625 -4.3125l0 -0.296875q0 -1.8125 0.6875 -3.234375q0.703125 -1.421875 1.984375 -2.1875q1.28125 -0.765625 2.921875 -0.765625q2.453125 0 3.859375 1.546875q1.40625 1.546875 1.40625 4.390625l0 1.3125l-7.625 0q0.15625 1.171875 0.9375 1.875q0.78125 0.703125 1.984375 0.703125q1.84375 0 2.875 -1.328125l1.578125 1.75q-0.71875 1.015625 -1.953125 1.59375q-1.21875 0.5625 -2.71875 0.5625zm-0.359375 -9.828125q-0.953125 0 -1.546875 0.65625q-0.59375 0.640625 -0.75 1.828125l4.4375 0l0 -0.25q-0.015625 -1.0625 -0.578125 -1.640625q-0.546875 -0.59375 -1.5625 -0.59375zm13.824463 0.640625q-0.65625 -0.09375 -1.15625 -0.09375q-1.8125 0 -2.375 1.234375l0 7.828125l-3.1875 0l0 -11.96875l3.015625 0l0.09375 1.421875q0.953125 -1.640625 2.65625 -1.640625q0.53125 0 1.0 0.140625l-0.046875 3.078125z" fill-rule="nonzero"/><path fill="#000000" d="m499.22156 102.32414q0 -0.578125 -0.578125 -0.90625q-0.578125 -0.34375 -1.859375 -0.609375q-4.265625 -0.90625 -4.265625 -3.640625q0 -1.59375 1.3125 -2.65625q1.328125 -1.0625 3.46875 -1.0625q2.265625 0 3.625 1.078125q1.375 1.0625 1.375 2.78125l-3.1875 0q0 -0.6875 -0.453125 -1.125q-0.4375 -0.453125 -1.375 -0.453125q-0.8125 0 -1.25 0.359375q-0.4375 0.359375 -0.4375 0.921875q0 0.53125 0.5 0.859375q0.5 0.328125 1.6875 0.578125q1.203125 0.234375 2.015625 0.53125q2.53125 0.921875 2.53125 3.21875q0 1.640625 -1.40625 2.65625q-1.390625 1.0 -3.625 1.0q-1.5 0 -2.671875 -0.53125q-1.15625 -0.546875 -1.828125 -1.46875q-0.65625 -0.9375 -0.65625 -2.03125l3.03125 0q0.03125 0.859375 0.625 1.3125q0.59375 0.453125 1.578125 0.453125q0.90625 0 1.375 -0.34375q0.46875 -0.359375 0.46875 -0.921875zm8.289581 -7.359375q1.28125 -1.515625 3.203125 -1.515625q3.8905945 0 3.9530945 4.515625l0 7.671875l-3.2030945 0l0 -7.578125q0 -1.03125 -0.453125 -1.515625q-0.4375 -0.5 -1.453125 -0.5q-1.40625 0 -2.046875 1.09375l0 8.5l-3.1875 0l0 -17.0l3.1875 0l0 6.328125zm16.28714 1.703125q-0.65625 -0.09375 -1.15625 -0.09375q-1.8125 0 -2.375 1.234375l0 7.828125l-3.1875 0l0 -11.96875l3.015625 0l0.09375 1.421875q0.953125 -1.640625 2.65625 -1.640625q0.53125 0 1.0 0.140625l-0.046875 3.078125zm4.920044 8.96875l-3.21875 0l0 -11.96875l3.21875 0l0 11.96875zm-3.40625 -15.0625q0 -0.71875 0.484375 -1.1875q0.484375 -0.46875 1.3125 -0.46875q0.8125 0 1.296875 0.46875q0.5 0.46875 0.5 1.1875q0 0.71875 -0.5 1.1875q-0.484375 0.46875 -1.296875 0.46875q-0.8125 0 -1.3125 -0.46875q-0.484375 -0.46875 -0.484375 -1.1875zm8.975708 3.09375l0.09375 1.375q1.28125 -1.59375 3.4375 -1.59375q1.90625 0 2.828125 1.125q0.9375 1.109375 0.96875 3.328125l0 7.734375l-3.203125 0l0 -7.65625q0 -1.015625 -0.453125 -1.46875q-0.4375 -0.46875 -1.453125 -0.46875q-1.359375 0 -2.03125 1.15625l0 8.4375l-3.203125 0l0 -11.96875l3.015625 0zm14.095093 7.171875l-1.15625 1.140625l0 3.65625l-3.1875 0l0 -17.0l3.1875 0l0 9.421875l0.625 -0.796875l3.0625 -3.59375l3.84375 0l-4.328125 4.984375l4.703125 6.984375l-3.671875 0l-3.078125 -4.796875zm14.696289 4.796875q-0.234375 -0.4375 -0.328125 -1.078125q-1.15625 1.296875 -3.015625 1.296875q-1.765625 0 -2.921875 -1.015625q-1.15625 -1.015625 -1.15625 -2.5625q0 -1.90625 1.40625 -2.921875q1.421875 -1.015625 4.078125 -1.03125l1.46875 0l0 -0.6875q0 -0.828125 -0.421875 -1.328125q-0.421875 -0.5 -1.34375 -0.5q-0.796875 0 -1.265625 0.390625q-0.453125 0.390625 -0.453125 1.0625l-3.203125 0q0 -1.046875 0.640625 -1.921875q0.640625 -0.890625 1.8125 -1.390625q1.171875 -0.5 2.640625 -0.5q2.203125 0 3.5 1.109375q1.3125 1.109375 1.3125 3.125l0 5.1875q0.015625 1.703125 0.46875 2.578125l0 0.1875l-3.21875 0zm-2.65625 -2.21875q0.71875 0 1.3125 -0.3125q0.59375 -0.328125 0.875 -0.859375l0 -2.046875l-1.1875 0q-2.40625 0 -2.5625 1.65625l0 0.1875q0 0.59375 0.421875 0.984375q0.421875 0.390625 1.140625 0.390625zm7.3967285 -3.859375q0 -2.75 1.3125 -4.421875q1.3125 -1.6875 3.53125 -1.6875q1.96875 0 3.0625 1.34375l0.140625 -1.125l2.890625 0l0 11.578125q0 1.5625 -0.71875 2.71875q-0.703125 1.171875 -2.0 1.78125q-1.296875 0.609375 -3.03125 0.609375q-1.3125 0 -2.5625 -0.53125q-1.25 -0.53125 -1.890625 -1.359375l1.40625 -1.9375q1.203125 1.328125 2.90625 1.328125q1.265625 0 1.96875 -0.6875q0.71875 -0.671875 0.71875 -1.921875l0 -0.640625q-1.109375 1.25 -2.90625 1.25q-2.171875 0 -3.5 -1.6875q-1.328125 -1.6875 -1.328125 -4.46875l0 -0.140625zm3.1875 0.234375q0 1.625 0.65625 2.546875q0.65625 0.921875 1.796875 0.921875q1.453125 0 2.09375 -1.09375l0 -5.03125q-0.640625 -1.09375 -2.078125 -1.09375q-1.140625 0 -1.8125 0.953125q-0.65625 0.9375 -0.65625 2.796875zm15.71344 6.0625q-2.625 0 -4.28125 -1.609375q-1.65625 -1.625 -1.65625 -4.3125l0 -0.296875q0 -1.8125 0.6875 -3.234375q0.703125 -1.421875 1.984375 -2.1875q1.28125 -0.765625 2.921875 -0.765625q2.453125 0 3.859375 1.546875q1.40625 1.546875 1.40625 4.390625l0 1.3125l-7.625 0q0.15625 1.171875 0.9375 1.875q0.78125 0.703125 1.984375 0.703125q1.84375 0 2.875 -1.328125l1.578125 1.75q-0.71875 1.015625 -1.953125 1.59375q-1.21875 0.5625 -2.71875 0.5625zm-0.359375 -9.828125q-0.953125 0 -1.546875 0.65625q-0.59375 0.640625 -0.75 1.828125l4.4375 0l0 -0.25q-0.015625 -1.0625 -0.578125 -1.640625q-0.546875 -0.59375 -1.5625 -0.59375z" fill-rule="nonzero"/><path fill="#000000" fill-opacity="0.0" d="m511.04636 381.00656l0 0c0 -7.691559 6.235199 -13.926788 13.926788 -13.926788l385.02832 0c3.6936035 0 7.235901 1.4672852 9.847717 4.079071c2.6117554 2.611786 4.0790405 6.154114 4.0790405 9.847717l0 55.705475c0 7.691559 -6.2352295 13.926788 -13.926758 13.926788l-385.02832 0l0 0c-7.6915894 0 -13.926788 -6.2352295 -13.926788 -13.926788z" fill-rule="evenodd"/><path fill="#000000" d="m537.5316 400.6388l-2.0 0l-7.640625 -11.6875l0 11.6875l-2.0 0l0 -15.15625l2.0 0l7.65625 11.734375l0 -11.734375l1.984375 0l0 15.15625zm7.938965 0.203125q-2.296875 0 -3.734375 -1.5q-1.4375 -1.5 -1.4375 -4.03125l0 -0.34375q0 -1.6875 0.640625 -3.0q0.640625 -1.3125 1.78125 -2.046875q1.15625 -0.75 2.5 -0.75q2.203125 0 3.421875 1.453125q1.21875 1.4375 1.21875 4.125l0 0.8125l-7.640625 0q0.046875 1.65625 0.96875 2.6875q0.9375 1.03125 2.375 1.03125q1.03125 0 1.734375 -0.421875q0.703125 -0.421875 1.234375 -1.109375l1.1875 0.921875q-1.421875 2.171875 -4.25 2.171875zm-0.25 -10.09375q-1.15625 0 -1.953125 0.84375q-0.796875 0.84375 -0.984375 2.375l5.65625 0l0 -0.140625q-0.09375 -1.46875 -0.796875 -2.265625q-0.703125 -0.8125 -1.921875 -0.8125zm16.846252 7.234375l2.15625 -8.609375l1.9375 0l-3.28125 11.265625l-1.5625 0l-2.734375 -8.546875l-2.671875 8.546875l-1.5625 0l-3.265625 -11.265625l1.90625 0l2.21875 8.4375l2.625 -8.4375l1.5625 0l2.671875 8.609375zm20.838562 -2.859375q0 2.578125 -1.171875 4.15625q-1.171875 1.5625 -3.1875 1.5625q-2.046875 0 -3.21875 -1.296875l0 5.421875l-1.9375 0l0 -15.59375l1.765625 0l0.09375 1.25q1.171875 -1.453125 3.265625 -1.453125q2.03125 0 3.203125 1.53125q1.1875 1.515625 1.1875 4.25l0 0.171875zm-1.921875 -0.21875q0 -1.90625 -0.8125 -3.0q-0.8125 -1.109375 -2.21875 -1.109375q-1.75 0 -2.625 1.546875l0 5.390625q0.859375 1.546875 2.640625 1.546875q1.390625 0 2.203125 -1.09375q0.8125 -1.109375 0.8125 -3.28125zm9.825195 -3.8125q-0.4375 -0.0625 -0.953125 -0.0625q-1.890625 0 -2.5625 1.609375l0 8.0l-1.9375 0l0 -11.265625l1.875 0l0.03125 1.296875q0.953125 -1.5 2.6875 -1.5q0.5625 0 0.859375 0.140625l0 1.78125zm6.253418 9.75q-2.296875 0 -3.734375 -1.5q-1.4375 -1.5 -1.4375 -4.03125l0 -0.34375q0 -1.6875 0.640625 -3.0q0.640625 -1.3125 1.78125 -2.046875q1.15625 -0.75 2.5 -0.75q2.203125 0 3.421875 1.453125q1.21875 1.4375 1.21875 4.125l0 0.8125l-7.640625 0q0.046875 1.65625 0.96875 2.6875q0.9375 1.03125 2.375 1.03125q1.03125 0 1.734375 -0.421875q0.703125 -0.421875 1.234375 -1.109375l1.1875 0.921875q-1.421875 2.171875 -4.25 2.171875zm-0.25 -10.09375q-1.15625 0 -1.953125 0.84375q-0.796875 0.84375 -0.984375 2.375l5.65625 0l0 -0.140625q-0.09375 -1.46875 -0.796875 -2.265625q-0.703125 -0.8125 -1.921875 -0.8125zm6.3931274 4.15625q0 -2.59375 1.234375 -4.15625q1.234375 -1.578125 3.21875 -1.578125q1.984375 0 3.140625 1.34375l0 -5.875l1.921875 0l0 16.0l-1.765625 0l-0.09375 -1.203125q-1.15625 1.40625 -3.21875 1.40625q-1.96875 0 -3.203125 -1.59375q-1.234375 -1.609375 -1.234375 -4.1875l0 -0.15625zm1.9375 0.21875q0 1.921875 0.78125 3.015625q0.796875 1.078125 2.1875 1.078125q1.84375 0 2.6875 -1.65625l0 -5.171875q-0.875 -1.59375 -2.65625 -1.59375q-1.421875 0 -2.21875 1.09375q-0.78125 1.09375 -0.78125 3.234375zm12.65332 5.515625l-1.921875 0l0 -11.265625l1.921875 0l0 11.265625zm-2.078125 -14.25q0 -0.46875 0.28125 -0.796875q0.296875 -0.328125 0.859375 -0.328125q0.5625 0 0.84375 0.328125q0.296875 0.328125 0.296875 0.796875q0 0.46875 -0.296875 0.78125q-0.28125 0.3125 -0.84375 0.3125q-0.5625 0 -0.859375 -0.3125q-0.28125 -0.3125 -0.28125 -0.78125zm9.691406 12.890625q1.03125 0 1.796875 -0.625q0.765625 -0.625 0.859375 -1.5625l1.8125 0q-0.046875 0.96875 -0.671875 1.84375q-0.609375 0.875 -1.640625 1.390625q-1.015625 0.515625 -2.15625 0.515625q-2.3125 0 -3.671875 -1.53125q-1.359375 -1.53125 -1.359375 -4.203125l0 -0.328125q0 -1.640625 0.609375 -2.921875q0.609375 -1.28125 1.734375 -1.984375q1.125 -0.703125 2.671875 -0.703125q1.890625 0 3.140625 1.140625q1.265625 1.125 1.34375 2.9375l-1.8125 0q-0.09375 -1.09375 -0.84375 -1.796875q-0.734375 -0.703125 -1.828125 -0.703125q-1.46875 0 -2.28125 1.0625q-0.796875 1.046875 -0.796875 3.046875l0 0.359375q0 1.953125 0.796875 3.015625q0.796875 1.046875 2.296875 1.046875zm9.25769 -12.640625l0 2.734375l2.09375 0l0 1.484375l-2.09375 0l0 6.984375q0 0.6875 0.28125 1.03125q0.28125 0.328125 0.953125 0.328125q0.328125 0 0.921875 -0.125l0 1.5625q-0.765625 0.203125 -1.484375 0.203125q-1.296875 0 -1.953125 -0.78125q-0.65625 -0.78125 -0.65625 -2.21875l0 -6.984375l-2.046875 0l0 -1.484375l2.046875 0l0 -2.734375l1.9375 0zm6.435852 14.0l-1.921875 0l0 -11.265625l1.921875 0l0 11.265625zm-2.078125 -14.25q0 -0.46875 0.28125 -0.796875q0.296875 -0.328125 0.859375 -0.328125q0.5625 0 0.84375 0.328125q0.296875 0.328125 0.296875 0.796875q0 0.46875 -0.296875 0.78125q-0.28125 0.3125 -0.84375 0.3125q-0.5625 0 -0.859375 -0.3125q-0.28125 -0.3125 -0.28125 -0.78125zm4.6601562 8.515625q0 -1.65625 0.640625 -2.984375q0.65625 -1.328125 1.8125 -2.03125q1.171875 -0.71875 2.65625 -0.71875q2.296875 0 3.71875 1.59375q1.421875 1.578125 1.421875 4.234375l0 0.125q0 1.65625 -0.625 2.96875q-0.625 1.296875 -1.796875 2.03125q-1.171875 0.71875 -2.703125 0.71875q-2.28125 0 -3.703125 -1.59375q-1.421875 -1.59375 -1.421875 -4.21875l0 -0.125zm1.9375 0.21875q0 1.875 0.859375 3.015625q0.875 1.140625 2.328125 1.140625q1.46875 0 2.328125 -1.15625q0.875 -1.15625 0.875 -3.21875q0 -1.859375 -0.890625 -3.0q-0.875 -1.15625 -2.328125 -1.15625q-1.421875 0 -2.296875 1.140625q-0.875 1.125 -0.875 3.234375zm12.554321 -5.75l0.0625 1.40625q1.296875 -1.609375 3.375 -1.609375q3.578125 0 3.609375 4.015625l0 7.453125l-1.9375 0l0 -7.453125q0 -1.21875 -0.546875 -1.796875q-0.546875 -0.59375 -1.703125 -0.59375q-0.9375 0 -1.65625 0.5q-0.703125 0.5 -1.09375 1.3125l0 8.03125l-1.9375 0l0 -11.265625l1.828125 0zm16.172974 11.265625l0 -9.78125l-1.78125 0l0 -1.484375l1.78125 0l0 -1.15625q0 -1.8125 0.96875 -2.796875q0.96875 -1.0 2.734375 -1.0q0.671875 0 1.328125 0.1875l-0.109375 1.5625q-0.484375 -0.09375 -1.03125 -0.09375q-0.9375 0 -1.453125 0.546875q-0.515625 0.546875 -0.515625 1.5625l0 1.1875l2.40625 0l0 1.484375l-2.40625 0l0 9.78125l-1.921875 0zm5.951294 -5.734375q0 -1.65625 0.640625 -2.984375q0.65625 -1.328125 1.8125 -2.03125q1.171875 -0.71875 2.65625 -0.71875q2.296875 0 3.71875 1.59375q1.421875 1.578125 1.421875 4.234375l0 0.125q0 1.65625 -0.625 2.96875q-0.625 1.296875 -1.796875 2.03125q-1.171875 0.71875 -2.703125 0.71875q-2.28125 0 -3.703125 -1.59375q-1.421875 -1.59375 -1.421875 -4.21875l0 -0.125zm1.9375 0.21875q0 1.875 0.859375 3.015625q0.875 1.140625 2.328125 1.140625q1.46875 0 2.328125 -1.15625q0.875 -1.15625 0.875 -3.21875q0 -1.859375 -0.890625 -3.0q-0.875 -1.15625 -2.328125 -1.15625q-1.421875 0 -2.296875 1.140625q-0.875 1.125 -0.875 3.234375zm16.179321 -4.03125q-0.4375 -0.0625 -0.953125 -0.0625q-1.890625 0 -2.5625 1.609375l0 8.0l-1.9375 0l0 -11.265625l1.875 0l0.03125 1.296875q0.953125 -1.5 2.6875 -1.5q0.5625 0 0.859375 0.140625l0 1.78125zm9.137573 9.546875l-1.921875 0l0 -16.0l1.921875 0l0 16.0zm7.7695923 0.203125q-2.296875 0 -3.734375 -1.5q-1.4375 -1.5 -1.4375 -4.03125l0 -0.34375q0 -1.6875 0.640625 -3.0q0.640625 -1.3125 1.78125 -2.046875q1.15625 -0.75 2.5 -0.75q2.203125 0 3.421875 1.453125q1.21875 1.4375 1.21875 4.125l0 0.8125l-7.640625 0q0.046875 1.65625 0.96875 2.6875q0.9375 1.03125 2.375 1.03125q1.03125 0 1.734375 -0.421875q0.703125 -0.421875 1.234375 -1.109375l1.1875 0.921875q-1.421875 2.171875 -4.25 2.171875zm-0.25 -10.09375q-1.15625 0 -1.953125 0.84375q-0.796875 0.84375 -0.984375 2.375l5.65625 0l0 -0.140625q-0.09375 -1.46875 -0.796875 -2.265625q-0.703125 -0.8125 -1.921875 -0.8125zm7.8149414 9.890625l0 -9.78125l-1.78125 0l0 -1.484375l1.78125 0l0 -1.15625q0 -1.8125 0.96875 -2.796875q0.96875 -1.0 2.734375 -1.0q0.671875 0 1.328125 0.1875l-0.109375 1.5625q-0.484375 -0.09375 -1.03125 -0.09375q-0.9375 0 -1.453125 0.546875q-0.515625 0.546875 -0.515625 1.5625l0 1.1875l2.40625 0l0 1.484375l-2.40625 0l0 9.78125l-1.921875 0zm9.076355 -14.0l0 2.734375l2.09375 0l0 1.484375l-2.09375 0l0 6.984375q0 0.6875 0.28125 1.03125q0.28125 0.328125 0.953125 0.328125q0.328125 0 0.921875 -0.125l0 1.5625q-0.765625 0.203125 -1.484375 0.203125q-1.296875 0 -1.953125 -0.78125q-0.65625 -0.78125 -0.65625 -2.21875l0 -6.984375l-2.046875 0l0 -1.484375l2.046875 0l0 -2.734375l1.9375 0zm6.154541 2.734375l0.0625 1.25q1.234375 -1.453125 3.34375 -1.453125q2.359375 0 3.21875 1.796875q0.5625 -0.8125 1.453125 -1.296875q0.90625 -0.5 2.125 -0.5q3.71875 0 3.78125 3.921875l0 7.546875l-1.9375 0l0 -7.4375q0 -1.203125 -0.546875 -1.796875q-0.546875 -0.609375 -1.859375 -0.609375q-1.0625 0 -1.78125 0.640625q-0.703125 0.640625 -0.8125 1.71875l0 7.484375l-1.9375 0l0 -7.390625q0 -2.453125 -2.40625 -2.453125q-1.890625 0 -2.59375 1.609375l0 8.234375l-1.921875 0l0 -11.265625l1.8125 0zm16.38086 5.53125q0 -1.65625 0.640625 -2.984375q0.65625 -1.328125 1.8125 -2.03125q1.171875 -0.71875 2.65625 -0.71875q2.296875 0 3.71875 1.59375q1.421875 1.578125 1.421875 4.234375l0 0.125q0 1.65625 -0.625 2.96875q-0.625 1.296875 -1.796875 2.03125q-1.171875 0.71875 -2.703125 0.71875q-2.28125 0 -3.703125 -1.59375q-1.421875 -1.59375 -1.421875 -4.21875l0 -0.125zm1.9375 0.21875q0 1.875 0.859375 3.015625q0.875 1.140625 2.328125 1.140625q1.46875 0 2.328125 -1.15625q0.875 -1.15625 0.875 -3.21875q0 -1.859375 -0.890625 -3.0q-0.875 -1.15625 -2.328125 -1.15625q-1.421875 0 -2.296875 1.140625q-0.875 1.125 -0.875 3.234375zm17.288696 2.53125q0 -0.78125 -0.59375 -1.21875q-0.578125 -0.4375 -2.046875 -0.75q-1.453125 -0.3125 -2.3125 -0.75q-0.859375 -0.4375 -1.28125 -1.03125q-0.40625 -0.609375 -0.40625 -1.4375q0 -1.390625 1.171875 -2.34375q1.171875 -0.953125 3.0 -0.953125q1.90625 0 3.09375 0.984375q1.203125 0.984375 1.203125 2.53125l-1.9375 0q0 -0.796875 -0.671875 -1.359375q-0.671875 -0.578125 -1.6875 -0.578125q-1.0625 0 -1.65625 0.453125q-0.59375 0.453125 -0.59375 1.203125q0 0.6875 0.546875 1.046875q0.5625 0.359375 2.0 0.6875q1.453125 0.3125 2.34375 0.765625q0.890625 0.4375 1.328125 1.078125q0.4375 0.625 0.4375 1.53125q0 1.515625 -1.21875 2.421875q-1.203125 0.90625 -3.125 0.90625q-1.359375 0 -2.40625 -0.46875q-1.03125 -0.484375 -1.625 -1.34375q-0.59375 -0.859375 -0.59375 -1.859375l1.9375 0q0.046875 0.96875 0.765625 1.546875q0.734375 0.5625 1.921875 0.5625q1.09375 0 1.75 -0.4375q0.65625 -0.453125 0.65625 -1.1875zm7.0598145 -11.015625l0 2.734375l2.09375 0l0 1.484375l-2.09375 0l0 6.984375q0 0.6875 0.28125 1.03125q0.28125 0.328125 0.953125 0.328125q0.328125 0 0.921875 -0.125l0 1.5625q-0.765625 0.203125 -1.484375 0.203125q-1.296875 0 -1.953125 -0.78125q-0.65625 -0.78125 -0.65625 -2.21875l0 -6.984375l-2.046875 0l0 -1.484375l2.046875 0l0 -2.734375l1.9375 0zm11.715759 14.0l-1.921875 0l0 -16.0l1.921875 0l0 16.0zm7.7695923 0.203125q-2.296875 0 -3.734375 -1.5q-1.4375 -1.5 -1.4375 -4.03125l0 -0.34375q0 -1.6875 0.640625 -3.0q0.640625 -1.3125 1.78125 -2.046875q1.15625 -0.75 2.5 -0.75q2.203125 0 3.421875 1.453125q1.21875 1.4375 1.21875 4.125l0 0.8125l-7.640625 0q0.046875 1.65625 0.96875 2.6875q0.9375 1.03125 2.375 1.03125q1.03125 0 1.734375 -0.421875q0.703125 -0.421875 1.234375 -1.109375l1.1875 0.921875q-1.421875 2.171875 -4.25 2.171875zm-0.25 -10.09375q-1.15625 0 -1.953125 0.84375q-0.796875 0.84375 -0.984375 2.375l5.65625 0l0 -0.140625q-0.09375 -1.46875 -0.796875 -2.265625q-0.703125 -0.8125 -1.921875 -0.8125zm13.830566 9.890625q-0.171875 -0.328125 -0.28125 -1.1875q-1.34375 1.390625 -3.203125 1.390625q-1.671875 0 -2.734375 -0.9375q-1.0625 -0.9375 -1.0625 -2.390625q0 -1.765625 1.328125 -2.734375q1.34375 -0.96875 3.765625 -0.96875l1.875 0l0 -0.890625q0 -1.015625 -0.609375 -1.609375q-0.59375 -0.59375 -1.765625 -0.59375q-1.03125 0 -1.734375 0.515625q-0.703125 0.515625 -0.703125 1.265625l-1.9375 0q0 -0.84375 0.59375 -1.625q0.609375 -0.796875 1.625 -1.25q1.03125 -0.453125 2.265625 -0.453125q1.953125 0 3.046875 0.96875q1.109375 0.96875 1.15625 2.671875l0 5.1875q0 1.5625 0.390625 2.46875l0 0.171875l-2.015625 0zm-3.203125 -1.46875q0.90625 0 1.71875 -0.46875q0.8125 -0.46875 1.171875 -1.21875l0 -2.3125l-1.5 0q-3.546875 0 -3.546875 2.078125q0 0.90625 0.59375 1.421875q0.609375 0.5 1.5625 0.5zm8.788818 1.46875l0 -9.78125l-1.78125 0l0 -1.484375l1.78125 0l0 -1.15625q0 -1.8125 0.96875 -2.796875q0.96875 -1.0 2.734375 -1.0q0.671875 0 1.328125 0.1875l-0.109375 1.5625q-0.484375 -0.09375 -1.03125 -0.09375q-0.9375 0 -1.453125 0.546875q-0.515625 0.546875 -0.515625 1.5625l0 1.1875l2.40625 0l0 1.484375l-2.40625 0l0 9.78125l-1.921875 0z" fill-rule="nonzero"/><path fill="#000000" d="m534.391 421.15442l-8.6875 0l0 -1.671875l8.6875 0l0 1.671875zm0 4.328125l-8.6875 0l0 -1.671875l8.6875 0l0 1.671875zm17.485413 -2.3125q0 3.390625 -1.15625 5.03125q-1.15625 1.640625 -3.609375 1.640625q-2.421875 0 -3.59375 -1.609375q-1.171875 -1.609375 -1.203125 -4.796875l0 -2.578125q0 -3.34375 1.15625 -4.96875q1.15625 -1.625 3.625 -1.625q2.4375 0 3.59375 1.578125q1.15625 1.5625 1.1875 4.828125l0 2.5zm-1.921875 -2.640625q0 -2.4375 -0.6875 -3.546875q-0.6875 -1.125 -2.171875 -1.125q-1.484375 0 -2.171875 1.109375q-0.671875 1.109375 -0.6875 3.421875l0 3.078125q0 2.46875 0.703125 3.640625q0.71875 1.171875 2.171875 1.171875q1.421875 0 2.109375 -1.109375q0.703125 -1.109375 0.734375 -3.484375l0 -3.15625zm4.6325073 8.09375q0 -0.5 0.296875 -0.828125q0.296875 -0.328125 0.890625 -0.328125q0.59375 0 0.890625 0.328125q0.3125 0.328125 0.3125 0.828125q0 0.484375 -0.3125 0.8125q-0.296875 0.3125 -0.890625 0.3125q-0.59375 0 -0.890625 -0.3125q-0.296875 -0.328125 -0.296875 -0.8125zm14.566345 -10.1875q0 1.125 -0.59375 2.015625q-0.59375 0.890625 -1.625 1.390625q1.1875 0.5 1.875 1.484375q0.703125 0.984375 0.703125 2.21875q0 1.96875 -1.328125 3.140625q-1.328125 1.15625 -3.5 1.15625q-2.1875 0 -3.5 -1.171875q-1.3125 -1.171875 -1.3125 -3.125q0 -1.234375 0.671875 -2.21875q0.671875 -0.984375 1.859375 -1.5q-1.015625 -0.5 -1.609375 -1.375q-0.578125 -0.890625 -0.578125 -2.015625q0 -1.921875 1.234375 -3.046875q1.234375 -1.125 3.234375 -1.125q2.0 0 3.234375 1.125q1.234375 1.125 1.234375 3.046875zm-1.5625 7.0625q0 -1.265625 -0.8125 -2.0625q-0.8125 -0.8125 -2.109375 -0.8125q-1.296875 0 -2.09375 0.796875q-0.78125 0.796875 -0.78125 2.09375q0 1.28125 0.765625 2.03125q0.765625 0.734375 2.125 0.734375q1.359375 0 2.125 -0.75q0.78125 -0.75 0.78125 -2.03125zm-2.90625 -9.640625q-1.125 0 -1.828125 0.703125q-0.703125 0.703125 -0.703125 1.90625q0 1.15625 0.6875 1.875q0.6875 0.703125 1.84375 0.703125q1.15625 0 1.84375 -0.703125q0.703125 -0.71875 0.703125 -1.875q0 -1.15625 -0.71875 -1.875q-0.71875 -0.734375 -1.828125 -0.734375zm16.757507 7.3125q0 3.390625 -1.15625 5.03125q-1.15625 1.640625 -3.609375 1.640625q-2.421875 0 -3.59375 -1.609375q-1.171875 -1.609375 -1.203125 -4.796875l0 -2.578125q0 -3.34375 1.15625 -4.96875q1.15625 -1.625 3.625 -1.625q2.4375 0 3.59375 1.578125q1.15625 1.5625 1.1875 4.828125l0 2.5zm-1.921875 -2.640625q0 -2.4375 -0.6875 -3.546875q-0.6875 -1.125 -2.171875 -1.125q-1.484375 0 -2.171875 1.109375q-0.671875 1.109375 -0.6875 3.421875l0 3.078125q0 2.46875 0.703125 3.640625q0.71875 1.171875 2.171875 1.171875q1.421875 0 2.109375 -1.109375q0.703125 -1.109375 0.734375 -3.484375l0 -3.15625z" fill-rule="nonzero"/><path fill="#000000" d="m598.4015 419.37317l1.046875 1.078125l-4.25 4.265625l4.25 4.234375l-1.0625 1.078125l-4.25 -4.25l-4.265625 4.28125l-1.0625 -1.046875l4.28125 -4.296875l-4.296875 -4.328125l1.03125 -1.046875l4.3125 4.296875l4.265625 -4.265625z" fill-rule="nonzero"/><path fill="#000000" d="m649.6125 421.49817l4.21875 0l0 1.828125l-4.21875 0l0 4.796875l-1.9375 0l0 -4.796875l-4.234375 0l0 -1.828125l4.234375 0l0 -4.421875l1.9375 0l0 4.421875zm21.152039 1.671875q0 3.390625 -1.15625 5.03125q-1.15625 1.640625 -3.609375 1.640625q-2.421875 0 -3.59375 -1.609375q-1.171875 -1.609375 -1.203125 -4.796875l0 -2.578125q0 -3.34375 1.15625 -4.96875q1.15625 -1.625 3.625 -1.625q2.4375 0 3.59375 1.578125q1.15625 1.5625 1.1875 4.828125l0 2.5zm-1.921875 -2.640625q0 -2.4375 -0.6875 -3.546875q-0.6875 -1.125 -2.171875 -1.125q-1.484375 0 -2.171875 1.109375q-0.671875 1.109375 -0.6875 3.421875l0 3.078125q0 2.46875 0.703125 3.640625q0.71875 1.171875 2.171875 1.171875q1.421875 0 2.109375 -1.109375q0.703125 -1.109375 0.734375 -3.484375l0 -3.15625zm4.6325073 8.09375q0 -0.5 0.296875 -0.828125q0.296875 -0.328125 0.890625 -0.328125q0.59375 0 0.890625 0.328125q0.3125 0.328125 0.3125 0.828125q0 0.484375 -0.3125 0.8125q-0.296875 0.3125 -0.890625 0.3125q-0.59375 0 -0.890625 -0.3125q-0.296875 -0.328125 -0.296875 -0.8125zm11.70697 1.015625l-1.9375 0l0 -12.84375l-3.890625 1.4375l0 -1.75l5.53125 -2.078125l0.296875 0l0 15.234375zm11.976257 0l-1.9375 0l0 -12.84375l-3.890625 1.4375l0 -1.75l5.53125 -2.078125l0.296875 0l0 15.234375z" fill-rule="nonzero"/><path fill="#000000" d="m717.28955 419.37317l1.046875 1.078125l-4.25 4.265625l4.25 4.234375l-1.0625 1.078125l-4.25 -4.25l-4.265625 4.28125l-1.0625 -1.046875l4.28125 -4.296875l-4.296875 -4.328125l1.03125 -1.046875l4.3125 4.296875l4.265625 -4.265625z" fill-rule="nonzero"/><path fill="#000000" d="m768.5006 421.49817l4.21875 0l0 1.828125l-4.21875 0l0 4.796875l-1.9375 0l0 -4.796875l-4.234375 0l0 -1.828125l4.234375 0l0 -4.421875l1.9375 0l0 4.421875zm21.152039 1.671875q0 3.390625 -1.15625 5.03125q-1.15625 1.640625 -3.609375 1.640625q-2.421875 0 -3.59375 -1.609375q-1.171875 -1.609375 -1.203125 -4.796875l0 -2.578125q0 -3.34375 1.15625 -4.96875q1.15625 -1.625 3.625 -1.625q2.4375 0 3.59375 1.578125q1.15625 1.5625 1.1875 4.828125l0 2.5zm-1.921875 -2.640625q0 -2.4375 -0.6875 -3.546875q-0.6875 -1.125 -2.171875 -1.125q-1.484375 0 -2.171875 1.109375q-0.671875 1.109375 -0.6875 3.421875l0 3.078125q0 2.46875 0.703125 3.640625q0.71875 1.171875 2.171875 1.171875q1.421875 0 2.109375 -1.109375q0.703125 -1.109375 0.734375 -3.484375l0 -3.15625zm4.6325073 8.09375q0 -0.5 0.296875 -0.828125q0.296875 -0.328125 0.890625 -0.328125q0.59375 0 0.890625 0.328125q0.3125 0.328125 0.3125 0.828125q0 0.484375 -0.3125 0.8125q-0.296875 0.3125 -0.890625 0.3125q-0.59375 0 -0.890625 -0.3125q-0.296875 -0.328125 -0.296875 -0.8125zm14.878845 -5.453125q0 3.390625 -1.15625 5.03125q-1.15625 1.640625 -3.609375 1.640625q-2.421875 0 -3.59375 -1.609375q-1.171875 -1.609375 -1.203125 -4.796875l0 -2.578125q0 -3.34375 1.15625 -4.96875q1.15625 -1.625 3.625 -1.625q2.4375 0 3.59375 1.578125q1.15625 1.5625 1.1875 4.828125l0 2.5zm-1.921875 -2.640625q0 -2.4375 -0.6875 -3.546875q-0.6875 -1.125 -2.171875 -1.125q-1.484375 0 -2.171875 1.109375q-0.671875 1.109375 -0.6875 3.421875l0 3.078125q0 2.46875 0.703125 3.640625q0.71875 1.171875 2.171875 1.171875q1.421875 0 2.109375 -1.109375q0.703125 -1.109375 0.734375 -3.484375l0 -3.15625zm11.773071 2.4375q-0.59375 0.71875 -1.4375 1.15625q-0.84375 0.4375 -1.84375 0.4375q-1.3125 0 -2.28125 -0.640625q-0.96875 -0.640625 -1.5 -1.8125q-0.53125 -1.171875 -0.53125 -2.59375q0 -1.515625 0.578125 -2.734375q0.578125 -1.21875 1.640625 -1.859375q1.0625 -0.65625 2.46875 -0.65625q2.25 0 3.546875 1.6875q1.296875 1.6875 1.296875 4.578125l0 0.5625q0 4.4375 -1.75 6.46875q-1.75 2.03125 -5.28125 2.09375l-0.375 0l0 -1.625l0.40625 0q2.390625 -0.046875 3.671875 -1.25q1.28125 -1.203125 1.390625 -3.8125zm-2.96875 0q0.96875 0 1.78125 -0.59375q0.828125 -0.59375 1.203125 -1.46875l0 -0.765625q0 -1.890625 -0.828125 -3.078125q-0.8125 -1.1875 -2.078125 -1.1875q-1.265625 0 -2.046875 0.984375q-0.765625 0.96875 -0.765625 2.546875q0 1.5625 0.734375 2.5625q0.75 1.0 2.0 1.0z" fill-rule="nonzero"/><path fill="#000000" d="m836.1777 419.37317l1.046875 1.078125l-4.25 4.265625l4.25 4.234375l-1.0625 1.078125l-4.25 -4.25l-4.265625 4.28125l-1.0625 -1.046875l4.28125 -4.296875l-4.296875 -4.328125l1.03125 -1.046875l4.3125 4.296875l4.265625 -4.265625z" fill-rule="nonzero"/><path fill="#0000ff" d="m619.7836 410.85278l0 0c6.436096 0 11.653564 5.2174683 11.653564 11.653564l0 0c0 3.0906982 -1.2277832 6.05484 -3.413269 8.240295c-2.1854248 2.1854553 -5.149536 3.4132385 -8.240295 3.4132385l0 0c-6.436035 0 -11.653503 -5.2174683 -11.653503 -11.653534l0 0c0 -6.436096 5.2174683 -11.653564 11.653503 -11.653564z" fill-rule="evenodd"/><path stroke="#000000" stroke-width="1.0" stroke-linejoin="round" stroke-linecap="butt" d="m619.7836 410.85278l0 0c6.436096 0 11.653564 5.2174683 11.653564 11.653564l0 0c0 3.0906982 -1.2277832 6.05484 -3.413269 8.240295c-2.1854248 2.1854553 -5.149536 3.4132385 -8.240295 3.4132385l0 0c-6.436035 0 -11.653503 -5.2174683 -11.653503 -11.653534l0 0c0 -6.436096 5.2174683 -11.653564 11.653503 -11.653564z" fill-rule="evenodd"/><path fill="#5757ff" d="m740.67017 410.85193l0 0c6.436096 0 11.653564 5.2174683 11.653564 11.653564l0 0c0 3.0906982 -1.2277832 6.0548096 -3.413269 8.240295c-2.1854858 2.1854553 -5.149597 3.4132385 -8.240295 3.4132385l0 0c-6.436096 0 -11.653564 -5.2174683 -11.653564 -11.653534l0 0c0 -6.436096 5.2174683 -11.653564 11.653564 -11.653564z" fill-rule="evenodd"/><path stroke="#000000" stroke-width="1.0" stroke-linejoin="round" stroke-linecap="butt" d="m740.67017 410.85193l0 0c6.436096 0 11.653564 5.2174683 11.653564 11.653564l0 0c0 3.0906982 -1.2277832 6.0548096 -3.413269 8.240295c-2.1854858 2.1854553 -5.149597 3.4132385 -8.240295 3.4132385l0 0c-6.436096 0 -11.653564 -5.2174683 -11.653564 -11.653534l0 0c0 -6.436096 5.2174683 -11.653564 11.653564 -11.653564z" fill-rule="evenodd"/><path fill="#95bbff" d="m861.7214 410.8523l0 0c6.436096 0 11.653564 5.2174683 11.653564 11.653534l0 0c0 3.0907288 -1.2277832 6.05484 -3.413208 8.240295c-2.1854858 2.1854858 -5.149597 3.413269 -8.240356 3.413269l0 0c-6.436035 0 -11.653503 -5.2174683 -11.653503 -11.653564l0 0c0 -6.4360657 5.2174683 -11.653534 11.653503 -11.653534z" fill-rule="evenodd"/><path stroke="#000000" stroke-width="1.0" stroke-linejoin="round" stroke-linecap="butt" d="m861.7214 410.8523l0 0c6.436096 0 11.653564 5.2174683 11.653564 11.653534l0 0c0 3.0907288 -1.2277832 6.05484 -3.413208 8.240295c-2.1854858 2.1854858 -5.149597 3.413269 -8.240356 3.413269l0 0c-6.436035 0 -11.653503 -5.2174683 -11.653503 -11.653564l0 0c0 -6.4360657 5.2174683 -11.653534 11.653503 -11.653534z" fill-rule="evenodd"/><path fill="#000000" fill-opacity="0.0" d="m504.71652 387.34274l0 0c0 -6.7145386 5.443207 -12.157745 12.157745 -12.157745l368.37744 0c3.2244263 0 6.3168335 1.2809143 8.596802 3.5609436c2.2800293 2.2799988 3.560913 5.3723755 3.560913 8.596802l0 48.629425c0 6.7145386 -5.4431763 12.157715 -12.157715 12.157715l-368.37744 0l0 0c-6.7145386 0 -12.157745 -5.4431763 -12.157745 -12.157715z" fill-rule="evenodd"/><path stroke="#ff0000" stroke-width="3.0" stroke-linejoin="round" stroke-linecap="butt" d="m504.71652 387.34274l0 0c0 -6.7145386 5.443207 -12.157745 12.157745 -12.157745l368.37744 0c3.2244263 0 6.3168335 1.2809143 8.596802 3.5609436c2.2800293 2.2799988 3.560913 5.3723755 3.560913 8.596802l0 48.629425c0 6.7145386 -5.4431763 12.157715 -12.157715 12.157715l-368.37744 0l0 0c-6.7145386 0 -12.157745 -5.4431763 -12.157745 -12.157715z" fill-rule="evenodd"/><path fill="#000000" fill-opacity="0.0" d="m578.4042 325.37128c-58.70166 12.101929 -278.06778 73.4462 -352.20996 72.61157c-74.142166 -0.83465576 -77.202545 -64.68286 -92.64305 -77.619446" fill-rule="evenodd"/><path stroke="#0000ff" stroke-width="3.0" stroke-linejoin="round" stroke-linecap="butt" stroke-dasharray="12.0,9.0" d="m560.83685 329.29416l-2.9266968 0.6873779c-2.6918335 0.6361084 -5.512512 1.3101196 -8.452759 2.0185852c-11.761108 2.8339539 -25.435059 6.219696 -40.4245 9.939606c-29.979004 7.4398193 -65.22 16.216309 -100.94348 24.588562c-71.44702 16.744476 -144.82413 31.871887 -181.89519 31.45456c-74.14218 -0.83462524 -77.202545 -64.68286 -92.64305 -77.619446" fill-rule="evenodd"/><path fill="#0000ff" stroke="#0000ff" stroke-width="3.0" stroke-linecap="butt" d="m561.9168 334.13025l12.207092 -7.8031616l-14.366943 -1.8690186z" fill-rule="evenodd"/><path fill="#000000" fill-opacity="0.0" d="m-55.603676 171.78474l314.96063 0l0 45.259842l-314.96063 0z" fill-rule="evenodd"/><path fill="#434343" d="m83.7069 201.26474l-1.890625 0l-5.421875 -11.765625l-2.046875 11.765625l-1.9687424 0l2.6406174 -15.15625l1.890625 0l5.4375 11.8125l2.046875 -11.8125l1.9375 0l-2.625 15.15625zm18.500305 -8.484375l-8.4375 0l0.28125 -1.671875l8.453125 0l-0.296875 1.671875zm-0.75 4.328125l-8.4375 0l0.28125 -1.671875l8.453125 0l-0.296875 1.671875zm16.964691 4.15625l-9.65625 0l0.234375 -1.46875l5.59375 -5.4375l1.015625 -1.015625q1.765625 -1.75 1.953125 -3.234375q0.140625 -1.15625 -0.453125 -1.875q-0.578125 -0.71875 -1.640625 -0.765625q-1.359375 -0.046875 -2.28125 0.796875q-0.921875 0.84375 -1.109375 2.296875l-1.875 0.015625q0.140625 -1.40625 0.859375 -2.484375q0.734375 -1.078125 1.90625 -1.65625q1.1875 -0.578125 2.578125 -0.546875q1.875 0.046875 2.984375 1.15625q1.109375 1.09375 0.953125 2.84375q-0.171875 1.984375 -2.296875 4.203125l-0.953125 0.96875l-4.875 4.625l7.3125 0l-0.25 1.578125zm6.757538 0.203125q-1.921875 -0.03125 -2.890625 -1.34375q-0.953125 -1.328125 -0.859375 -3.8125q0.015625 -0.765625 0.109375 -1.515625l0.375 -2.53125q0.5 -3.234375 1.90625 -4.828125q1.40625 -1.59375 3.703125 -1.546875q1.9375076 0.046875 2.8906326 1.34375q0.953125 1.28125 0.875 3.71875q-0.03125 0.78125 -0.125 1.53125l-0.359375 2.453125q-0.546875 3.421875 -1.953125 5.015625q-1.3906326 1.578125 -3.6718826 1.515625zm4.1718826 -9.328125q0.140625 -1.265625 0.140625 -1.953125q-0.0625 -2.640625 -2.0625076 -2.71875q-1.453125 -0.046875 -2.359375 1.078125q-0.890625 1.125 -1.25 3.546875l-0.453125 3.015625q-0.140625 1.203125 -0.125 1.96875q0.046875 2.765625 2.03125 2.828125q1.390625 0.0625 2.28125 -1.015625q0.9062576 -1.078125 1.2968826 -3.4375l0.5 -3.3125z" fill-rule="nonzero"/><path fill="#95bbff" d="m752.8518 40.76499l0 0c9.4279785 0 17.070862 7.642887 17.070862 17.070866l0 0c0 4.5274734 -1.798584 8.869518 -4.999939 12.070927c-3.201416 3.2014084 -7.543457 4.999939 -12.070923 4.999939l0 0c-9.4279785 0 -17.070862 -7.642891 -17.070862 -17.070866l0 0c0 -9.4279785 7.6428833 -17.070866 17.070862 -17.070866z" fill-rule="evenodd"/><path stroke="#000000" stroke-width="1.0" stroke-linejoin="round" stroke-linecap="butt" d="m752.8518 40.76499l0 0c9.4279785 0 17.070862 7.642887 17.070862 17.070866l0 0c0 4.5274734 -1.798584 8.869518 -4.999939 12.070927c-3.201416 3.2014084 -7.543457 4.999939 -12.070923 4.999939l0 0c-9.4279785 0 -17.070862 -7.642891 -17.070862 -17.070866l0 0c0 -9.4279785 7.6428833 -17.070866 17.070862 -17.070866z" fill-rule="evenodd"/><path fill="#000000" fill-opacity="0.0" d="m753.264 74.90672l0 70.05165l107.93701 0l0 32.53102" fill-rule="evenodd"/><path stroke="#c2c2c2" stroke-width="3.0" stroke-linejoin="round" stroke-linecap="butt" d="m753.264 74.90672l0 70.05165l107.93701 0l0 32.53102" fill-rule="evenodd"/><path fill="#000000" fill-opacity="0.0" d="m753.264 74.90672l0 70.05165l-107.590515 0l0 32.53102" fill-rule="evenodd"/><path stroke="#c2c2c2" stroke-width="3.0" stroke-linejoin="round" stroke-linecap="butt" d="m753.264 74.90672l0 70.05165l-107.590515 0l0 32.53102" fill-rule="evenodd"/><path fill="#ffffff" d="m679.8027 88.73136l0 0c0 -2.539688 2.058838 -4.5985107 4.5985107 -4.5985107l134.58252 0c1.2196045 0 2.3892212 0.4844818 3.251648 1.3468704c0.8623657 0.8623886 1.3468628 2.0320435 1.3468628 3.2516403l0 18.393524c0 2.539688 -2.058838 4.5985107 -4.5985107 4.5985107l-134.58252 0l0 0c-2.5396729 0 -4.5985107 -2.0588226 -4.5985107 -4.5985107z" fill-rule="evenodd"/><path fill="#000000" d="m733.70544 96.04875l3.640625 -5.796875l2.34375 0l-4.78125 7.515625l4.90625 7.640625l-2.375 0l-3.734375 -5.921875l-3.75 5.921875l-2.359375 0l4.921875 -7.640625l-4.8125 -7.515625l2.34375 0l3.65625 5.796875z" fill-rule="nonzero"/><path fill="#000000" d="m745.4366 113.40813l-1.296875 0l0 -8.5625l-2.578125 0.953125l0 -1.171875l3.671875 -1.375l0.203125 0l0 10.15625z" fill-rule="nonzero"/><path fill="#000000" d="m756.6394 98.6425l-6.890625 -2.703125l0 -1.96875l8.90625 3.921875l0 1.53125l-8.90625 3.9375l0 -2.0l6.890625 -2.71875zm16.56366 6.765625q-0.171875 -0.328125 -0.28125 -1.1875q-1.34375 1.390625 -3.203125 1.390625q-1.671875 0 -2.734375 -0.9375q-1.0625 -0.9375 -1.0625 -2.390625q0 -1.765625 1.328125 -2.734375q1.34375 -0.96875 3.765625 -0.96875l1.875 0l0 -0.890625q0 -1.015625 -0.609375 -1.609375q-0.59375 -0.59375 -1.765625 -0.59375q-1.03125 0 -1.734375 0.515625q-0.703125 0.515625 -0.703125 1.265625l-1.9375 0q0 -0.84375 0.59375 -1.625q0.609375 -0.796875 1.625 -1.25q1.03125 -0.453125 2.265625 -0.453125q1.953125 0 3.046875 0.96875q1.109375 0.96875 1.15625 2.671875l0 5.1875q0 1.5625 0.390625 2.46875l0 0.171875l-2.015625 0zm-3.203125 -1.46875q0.90625 0 1.71875 -0.46875q0.8125 -0.46875 1.171875 -1.21875l0 -2.3125l-1.5 0q-3.546875 0 -3.546875 2.078125q0 0.90625 0.59375 1.421875q0.609375 0.5 1.5625 0.5z" fill-rule="nonzero"/><path fill="#000000" fill-opacity="0.0" d="m54.632545 35.0212l314.96063 0l0 45.259846l-314.96063 0z" fill-rule="evenodd"/><path fill="#434343" d="m193.94313 64.5012l-1.890625 0l-5.421875 -11.765625l-2.046875 11.765625l-1.96875 0l2.640625 -15.15625l1.890625 0l5.4375 11.8125l2.046875 -11.8125l1.9375 0l-2.625 15.15625zm18.500305 -8.484375l-8.4375 0l0.28125 -1.671875l8.453125 0l-0.296875 1.671875zm-0.75 4.328125l-8.4375 0l0.28125 -1.671875l8.453125 0l-0.296875 1.671875zm9.355316 -3.484375l1.921875 -7.515625l7.5625 0l-0.28125 1.78125l-5.9375 0l-1.15625 4.140625q1.140625 -0.6875 2.46875 -0.65625q1.890625 0.015625 2.890625 1.421875q1.015625 1.390625 0.828125 3.5625q-0.1875 2.328125 -1.65625 3.75q-1.453125 1.421875 -3.625 1.375q-1.8125 -0.015625 -2.9375 -1.15625q-1.109375 -1.15625 -1.171875 -3.0625l1.765625 0q0.0625 1.25 0.703125 1.9375q0.640625 0.6875 1.71875 0.703125q1.328125 0.046875 2.234375 -0.9375q0.921875 -1.0 1.09375 -2.59375q0.140625 -1.40625 -0.5 -2.3125q-0.625 -0.921875 -1.859375 -0.96875q-0.765625 -0.015625 -1.359375 0.234375q-0.578125 0.25 -1.15625 0.71875l-1.546875 -0.421875zm14.366913 7.84375q-1.921875 -0.03125 -2.890625 -1.34375q-0.953125 -1.328125 -0.859375 -3.8125q0.015625 -0.765625 0.109375 -1.515625l0.375 -2.53125q0.5 -3.234375 1.90625 -4.828125q1.40625 -1.59375 3.703125 -1.546875q1.9375 0.046875 2.890625 1.34375q0.953125 1.28125 0.875 3.71875q-0.03125 0.78125 -0.125 1.53125l-0.359375 2.453125q-0.546875 3.421875 -1.953125 5.015625q-1.390625 1.578125 -3.671875 1.515625zm4.171875 -9.328125q0.140625 -1.265625 0.140625 -1.953125q-0.0625 -2.640625 -2.0625 -2.71875q-1.453125 -0.046875 -2.359375 1.078125q-0.890625 1.125 -1.25 3.546875l-0.453125 3.015625q-0.140625 1.203125 -0.125 1.96875q0.046875 2.765625 2.03125 2.828125q1.390625 0.0625 2.28125 -1.015625q0.90625 -1.078125 1.296875 -3.4375l0.5 -3.3125z" fill-rule="nonzero"/><path fill="#000000" fill-opacity="0.0" d="m577.81757 298.8084c-44.5744 0 -53.08185 -58.637802 -89.14877 -117.275604c-36.066925 -58.637794 -99.69333 -117.27559 -199.38663 -117.27559" fill-rule="evenodd"/><path stroke="#95bbff" stroke-width="3.0" stroke-linejoin="round" stroke-linecap="butt" stroke-dasharray="12.0,9.0" d="m560.194 295.14667l-0.049926758 -0.022521973c-0.27557373 -0.12588501 -0.5494995 -0.2548523 -0.82177734 -0.3868103c-1.0892944 -0.5279236 -2.1530762 -1.104126 -3.1932373 -1.7268677c-2.0803833 -1.2454834 -4.0664673 -2.677063 -5.973816 -4.280426c-7.6293945 -6.413513 -13.998779 -15.575684 -20.102295 -26.570251c-12.207031 -21.989182 -23.350647 -51.30809 -41.384125 -80.62698c-36.066925 -58.637794 -99.69333 -117.27559 -199.38663 -117.27559" fill-rule="evenodd"/><path fill="#95bbff" stroke="#95bbff" stroke-width="3.0" stroke-linecap="butt" d="m559.1859 299.99823l14.3376465 -2.0820312l-12.321533 -7.6211243z" fill-rule="evenodd"/><path fill="#649bff" d="m646.5411 177.34344l0 0c9.4279785 0 17.070862 7.6428833 17.070862 17.070862l0 0c0 4.527466 -1.798523 8.869507 -4.999939 12.070923c-3.201355 3.2014008 -7.543396 4.999939 -12.070923 4.999939l0 0c-9.4279785 0 -17.070862 -7.6428833 -17.070862 -17.070862l0 0c0 -9.4279785 7.6428833 -17.070862 17.070862 -17.070862z" fill-rule="evenodd"/><path stroke="#000000" stroke-width="1.0" stroke-linejoin="round" stroke-linecap="butt" d="m646.5411 177.34344l0 0c9.4279785 0 17.070862 7.6428833 17.070862 17.070862l0 0c0 4.527466 -1.798523 8.869507 -4.999939 12.070923c-3.201355 3.2014008 -7.543396 4.999939 -12.070923 4.999939l0 0c-9.4279785 0 -17.070862 -7.6428833 -17.070862 -17.070862l0 0c0 -9.4279785 7.6428833 -17.070862 17.070862 -17.070862z" fill-rule="evenodd"/></g></svg>