<svg version="1.1" viewBox="0.0 0.0 228.0 307.1994750656168" fill="none" stroke="none" stroke-linecap="square" stroke-miterlimit="10" xmlns:xlink="http://www.w3.org/1999/xlink" xmlns="http://www.w3.org/2000/svg"><clipPath id="g106732f9e27_0_4.0"><path d="m0 0l228.0 0l0 307.19946l-228.0 0l0 -307.19946z" clip-rule="nonzero"/></clipPath><g clip-path="url(#g106732f9e27_0_4.0)"><path fill="#ffffff" d="m0 0l228.0 0l0 307.19946l-228.0 0z" fill-rule="evenodd"/><path fill="#000000" fill-opacity="0.0" d="m66.4769 90.77401l0 0c19.003815 -23.317726 42.693947 -35.465965 52.913383 -27.133858l-34.409447 42.220474z" fill-rule="evenodd"/><path fill="#000000" fill-opacity="0.0" d="m66.4769 90.77401l0 0c19.003815 -23.317726 42.693947 -35.465965 52.913383 -27.133858" fill-rule="evenodd"/><path stroke="#009688" stroke-width="16.0" stroke-linejoin="round" stroke-linecap="butt" d="m66.4769 90.77401l0 0c19.003815 -23.317726 42.693947 -35.465965 52.913383 -27.133858" fill-rule="evenodd"/><path fill="#fff2cc" d="m39.439384 251.62347l0 0c-27.379406 -38.433807 -17.987963 -92.08913 20.97638 -119.84253q50.132256 -35.70804 79.3856 -100.72484q5.5135193 70.61378 40.740387 120.06343l0 0c27.37941 38.433792 17.98796 92.08913 -20.97638 119.84253l0 0c-38.96434 27.753387 -92.746574 19.095215 -120.125984 -19.338593z" fill-rule="evenodd"/><path stroke="#351c75" stroke-width="8.0" stroke-linejoin="round" stroke-linecap="butt" d="m39.439384 251.62347l0 0c-27.379406 -38.433807 -17.987963 -92.08913 20.97638 -119.84253q50.132256 -35.70804 79.3856 -100.72484q5.5135193 70.61378 40.740387 120.06343l0 0c27.37941 38.433792 17.98796 92.08913 -20.97638 119.84253l0 0c-38.96434 27.753387 -92.746574 19.095215 -120.125984 -19.338593z" fill-rule="evenodd"/><path fill="#990000" d="m57.34809 239.70999l0 0c-20.856358 -29.275436 -13.354485 -70.40178 16.755905 -91.85826q24.046997 -17.135742 52.544838 -28.023987q23.082153 18.801285 39.738632 42.181458l0 0c20.856354 29.275452 13.354477 70.401794 -16.755905 91.85828l0 0c-30.110397 21.456467 -71.42711 15.117966 -92.28347 -14.157486z" fill-rule="evenodd"/><path stroke="#990000" stroke-width="8.0" stroke-linejoin="round" stroke-linecap="butt" d="m57.34809 239.70999l0 0c-20.856358 -29.275436 -13.354485 -70.40178 16.755905 -91.85826q24.046997 -17.135742 52.544838 -28.023987q23.082153 18.801285 39.738632 42.181458l0 0c20.856354 29.275452 13.354477 70.401794 -16.755905 91.85828l0 0c-30.110397 21.456467 -71.42711 15.117966 -92.28347 -14.157486z" fill-rule="evenodd"/><path fill="#009688" d="m111.498314 24.691391l0 0c18.038399 -13.907139 42.42655 -12.518164 54.472435 3.1023617q16.0383 20.797682 47.449036 29.743624q-34.2825 5.204525 -58.299423 23.720947l0 0c-18.038406 13.907135 -42.426544 12.518158 -54.472443 -3.1023636l0 0c-12.045891 -15.620529 -7.1880035 -39.55743 10.850395 -53.46457z" fill-rule="evenodd"/><path stroke="#009688" stroke-width="8.0" stroke-linejoin="round" stroke-linecap="butt" d="m111.498314 24.691391l0 0c18.038399 -13.907139 42.42655 -12.518164 54.472435 3.1023617q16.0383 20.797682 47.449036 29.743624q-34.2825 5.204525 -58.299423 23.720947l0 0c-18.038406 13.907135 -42.426544 12.518158 -54.472443 -3.1023636l0 0c-12.045891 -15.620529 -7.1880035 -39.55743 10.850395 -53.46457z" fill-rule="evenodd"/><path fill="#fff2cc" d="m78.83736 182.82684l0 0c0 -6.044693 4.9001923 -10.944885 10.944885 -10.944885l0 0c2.9027634 0 5.686638 1.153122 7.739197 3.2056885c2.0525665 2.0525665 3.2056808 4.836441 3.2056808 7.739197l0 0c0 6.044693 -4.9001923 10.944885 -10.944878 10.944885l0 0c-6.044693 0 -10.944885 -4.9001923 -10.944885 -10.944885z" fill-rule="evenodd"/><path fill="#fff2cc" d="m124.37879 182.82684l0 0c0 -6.044693 4.9001846 -10.944885 10.944878 -10.944885l0 0c2.902771 0 5.6866455 1.153122 7.739212 3.2056885c2.0525513 2.0525665 3.2056732 4.836441 3.2056732 7.739197l0 0c0 6.044693 -4.9001923 10.944885 -10.944885 10.944885l0 0c-6.044693 0 -10.944878 -4.9001923 -10.944878 -10.944885z" fill-rule="evenodd"/><path fill="#000000" fill-opacity="0.0" d="m129.40627 234.20601c-6.4802322 7.607132 -16.804611 10.731415 -26.415352 7.9936066c-9.610741 -2.7378082 -16.738815 -10.8337555 -18.23748 -20.713837l25.228348 -3.826767z" fill-rule="evenodd"/><path fill="#000000" fill-opacity="0.0" d="m129.40627 234.20601c-6.4802322 7.607132 -16.804611 10.731415 -26.415352 7.9936066c-9.610741 -2.7378082 -16.738815 -10.8337555 -18.23748 -20.713837" fill-rule="evenodd"/><path stroke="#fff2cc" stroke-width="12.0" stroke-linejoin="round" stroke-linecap="butt" d="m129.40627 234.20601c-6.4802322 7.607132 -16.804611 10.731415 -26.415352 7.9936066c-9.610741 -2.7378082 -16.738815 -10.8337555 -18.23748 -20.713837" fill-rule="evenodd"/><path fill="#ffffff" d="m-24.36473 262.84854l0 0c-22.908947 -19.777878 -0.45267677 -83.37459 50.15748 -142.04724c50.61016 -58.67264 110.20916 -90.20308 133.1181 -70.42519l0 0c-27.96849 -8.29591 -81.28769 23.82808 -126.44849 76.18325c-45.160797 52.35518 -69.12293 109.82387 -56.8271 136.28918z" fill-rule="evenodd"/><path stroke="#ffffff" stroke-width="1.0" stroke-linejoin="round" stroke-linecap="butt" d="m-24.36473 262.84854l0 0c-22.908947 -19.777878 -0.45267677 -83.37459 50.15748 -142.04724c50.61016 -58.67264 110.20916 -90.20308 133.1181 -70.42519l0 0c-27.96849 -8.29591 -81.28769 23.82808 -126.44849 76.18325c-45.160797 52.35518 -69.12293 109.82387 -56.8271 136.28918z" fill-rule="evenodd"/></g></svg>